G04 Layer_Physical_Order=1*
G04 Layer_Color=255*
%FSLAX25Y25*%
%MOIN*%
G70*
G01*
G75*
%ADD10R,0.05906X0.13780*%
%ADD11R,0.03937X0.13780*%
%ADD12R,0.02165X0.02362*%
%ADD13R,0.04724X0.04724*%
%ADD14R,0.11811X0.09764*%
%ADD15R,0.03150X0.03150*%
%ADD16R,0.01575X0.05315*%
%ADD17R,0.06299X0.05512*%
%ADD18R,0.07480X0.07480*%
%ADD19R,0.12992X0.09488*%
%ADD20R,0.02559X0.06890*%
G04:AMPARAMS|DCode=21|XSize=33.46mil|YSize=12.6mil|CornerRadius=5.04mil|HoleSize=0mil|Usage=FLASHONLY|Rotation=135.000|XOffset=0mil|YOffset=0mil|HoleType=Round|Shape=RoundedRectangle|*
%AMROUNDEDRECTD21*
21,1,0.03346,0.00252,0,0,135.0*
21,1,0.02338,0.01260,0,0,135.0*
1,1,0.01008,-0.00738,0.00916*
1,1,0.01008,0.00916,-0.00738*
1,1,0.01008,0.00738,-0.00916*
1,1,0.01008,-0.00916,0.00738*
%
%ADD21ROUNDEDRECTD21*%
G04:AMPARAMS|DCode=22|XSize=33.46mil|YSize=12.6mil|CornerRadius=5.04mil|HoleSize=0mil|Usage=FLASHONLY|Rotation=45.000|XOffset=0mil|YOffset=0mil|HoleType=Round|Shape=RoundedRectangle|*
%AMROUNDEDRECTD22*
21,1,0.03346,0.00252,0,0,45.0*
21,1,0.02338,0.01260,0,0,45.0*
1,1,0.01008,0.00916,0.00738*
1,1,0.01008,-0.00738,-0.00916*
1,1,0.01008,-0.00916,-0.00738*
1,1,0.01008,0.00738,0.00916*
%
%ADD22ROUNDEDRECTD22*%
%ADD23R,0.02559X0.04134*%
%ADD24R,0.03150X0.02165*%
%ADD25R,0.04724X0.11811*%
%ADD26R,0.03937X0.07087*%
%ADD27R,0.07098X0.06299*%
%ADD28R,0.03150X0.02362*%
%ADD29R,0.03150X0.03150*%
%ADD30R,0.05906X0.04882*%
%ADD31R,0.06693X0.04331*%
%ADD32R,0.04882X0.05906*%
%ADD33R,0.02992X0.09449*%
%ADD34R,0.06299X0.03150*%
%ADD35C,0.00800*%
%ADD36C,0.02000*%
%ADD37C,0.06000*%
%ADD38C,0.01500*%
%ADD39C,0.04000*%
%ADD40C,0.00600*%
%ADD41C,0.01000*%
%ADD42C,0.03000*%
%ADD43C,0.23622*%
%ADD44O,0.03543X0.06299*%
%ADD45C,0.05906*%
%ADD46R,0.05906X0.05906*%
%ADD47C,0.02000*%
%ADD48C,0.05000*%
D10*
X581006Y983282D02*
D03*
X554628D02*
D03*
D11*
X571754Y1004935D02*
D03*
X563880D02*
D03*
D12*
X551912Y1020994D02*
D03*
Y1015876D02*
D03*
X559196Y1018435D02*
D03*
D13*
X419188Y1048335D02*
D03*
X410920D02*
D03*
D14*
X533254Y988336D02*
D03*
Y1009517D02*
D03*
D15*
X611554Y1090989D02*
D03*
Y1085083D02*
D03*
X599554Y1056688D02*
D03*
Y1050782D02*
D03*
X422654Y1112282D02*
D03*
Y1118188D02*
D03*
X452954Y1067988D02*
D03*
Y1062082D02*
D03*
X425754Y1063183D02*
D03*
Y1069088D02*
D03*
X435454Y1063083D02*
D03*
Y1068989D02*
D03*
X430754Y1112082D02*
D03*
Y1117988D02*
D03*
X455854Y1035588D02*
D03*
Y1029683D02*
D03*
X484054Y1035289D02*
D03*
Y1029383D02*
D03*
X491754Y1035388D02*
D03*
Y1029482D02*
D03*
X565854Y1089888D02*
D03*
Y1083982D02*
D03*
X550354Y1055989D02*
D03*
Y1050082D02*
D03*
X556354Y1056089D02*
D03*
Y1050183D02*
D03*
X605354Y1056489D02*
D03*
Y1050583D02*
D03*
D16*
X465872Y1142836D02*
D03*
X463313D02*
D03*
X460754D02*
D03*
X458195D02*
D03*
X455636D02*
D03*
D17*
X473352D02*
D03*
X448156D02*
D03*
D18*
X465478Y1153368D02*
D03*
X456030D02*
D03*
D19*
X548854Y1077135D02*
D03*
X593754Y1078036D02*
D03*
D20*
X556354Y1088159D02*
D03*
X551354D02*
D03*
X546354D02*
D03*
X541354D02*
D03*
X556354Y1066112D02*
D03*
X551354D02*
D03*
X546354D02*
D03*
X541354D02*
D03*
X586254Y1067012D02*
D03*
X591254D02*
D03*
X596254D02*
D03*
X601254D02*
D03*
X586254Y1089059D02*
D03*
X591254D02*
D03*
X596254D02*
D03*
X601254D02*
D03*
D21*
X437097Y1100981D02*
D03*
X438489Y1102373D02*
D03*
X439881Y1103765D02*
D03*
X441273Y1105157D02*
D03*
X442665Y1106549D02*
D03*
X444057Y1107941D02*
D03*
X445449Y1109333D02*
D03*
X446841Y1110725D02*
D03*
X448233Y1112117D02*
D03*
X449625Y1113509D02*
D03*
X451016Y1114900D02*
D03*
X452409Y1116293D02*
D03*
X476211Y1092490D02*
D03*
X474819Y1091098D02*
D03*
X473427Y1089706D02*
D03*
X472035Y1088314D02*
D03*
X470644Y1086922D02*
D03*
X469251Y1085530D02*
D03*
X467860Y1084138D02*
D03*
X466467Y1082746D02*
D03*
X465076Y1081355D02*
D03*
X463684Y1079962D02*
D03*
X462292Y1078571D02*
D03*
X460900Y1077178D02*
D03*
D22*
Y1116293D02*
D03*
X462292Y1114900D02*
D03*
X463684Y1113509D02*
D03*
X465076Y1112117D02*
D03*
X466467Y1110725D02*
D03*
X467860Y1109333D02*
D03*
X469251Y1107941D02*
D03*
X470644Y1106549D02*
D03*
X472035Y1105157D02*
D03*
X473427Y1103765D02*
D03*
X474819Y1102373D02*
D03*
X476211Y1100981D02*
D03*
X452409Y1077178D02*
D03*
X451016Y1078571D02*
D03*
X449625Y1079962D02*
D03*
X448233Y1081355D02*
D03*
X446841Y1082746D02*
D03*
X445449Y1084138D02*
D03*
X444057Y1085530D02*
D03*
X442665Y1086922D02*
D03*
X441273Y1088314D02*
D03*
X439881Y1089706D02*
D03*
X438489Y1091098D02*
D03*
X437097Y1092490D02*
D03*
D23*
X408922Y1077367D02*
D03*
Y1093705D02*
D03*
X417386Y1077367D02*
D03*
Y1093705D02*
D03*
D24*
X465030Y1035676D02*
D03*
Y1031936D02*
D03*
Y1028195D02*
D03*
X474478D02*
D03*
Y1035676D02*
D03*
D25*
X577354Y1050759D02*
D03*
Y1028712D02*
D03*
D26*
X425633Y1077036D02*
D03*
X435475D02*
D03*
D27*
X589254Y1098637D02*
D03*
Y1109834D02*
D03*
X546254Y1098438D02*
D03*
Y1109634D02*
D03*
D28*
X445154Y1062280D02*
D03*
Y1067791D02*
D03*
D29*
X411301Y1041436D02*
D03*
X417207D02*
D03*
X453007Y1122536D02*
D03*
X447101D02*
D03*
X476601Y1073036D02*
D03*
X482507D02*
D03*
X472007Y1134035D02*
D03*
X466101D02*
D03*
X452601D02*
D03*
X458507D02*
D03*
D30*
X435754Y1137096D02*
D03*
Y1144576D02*
D03*
D31*
X491654Y1136720D02*
D03*
Y1147350D02*
D03*
D32*
X522994Y1026035D02*
D03*
X515514D02*
D03*
X515214Y1034636D02*
D03*
X522694D02*
D03*
D33*
X458054Y988158D02*
D03*
X463054D02*
D03*
X468054D02*
D03*
X473054D02*
D03*
X478054D02*
D03*
X458054Y1003513D02*
D03*
X463054D02*
D03*
X468054D02*
D03*
X473054D02*
D03*
X478054D02*
D03*
D34*
X537354Y1018736D02*
D03*
X510654Y1006336D02*
D03*
D35*
X536554Y1018736D02*
X537354D01*
X535854Y1018036D02*
X536554Y1018736D01*
X494654Y1018036D02*
X535854D01*
X554413Y1020994D02*
X559354Y1025935D01*
X551912Y1020994D02*
X554413D01*
X528354Y1039835D02*
X528754Y1039435D01*
X528354D02*
Y1048236D01*
Y1039435D02*
Y1039835D01*
Y1039435D02*
X528754D01*
X520754Y1055836D02*
X528354Y1048236D01*
X508454Y1055836D02*
X508654Y1056036D01*
X510254D01*
X511354Y1057135D01*
Y1067136D01*
X508154Y1070335D02*
X511354Y1067136D01*
X508154Y1070335D02*
Y1081736D01*
X487054Y1102835D02*
X508154Y1081736D01*
X478654Y1102835D02*
X487054D01*
X476800Y1100981D02*
X478654Y1102835D01*
X476211Y1100981D02*
X476800D01*
X444778Y1089036D02*
X449154D01*
X442665Y1086922D02*
X444778Y1089036D01*
X491654Y1021035D02*
X494654Y1018036D01*
X410954Y1097836D02*
X411154D01*
X408922Y1095804D02*
X410954Y1097836D01*
X408922Y1093705D02*
Y1095804D01*
X458054Y1006635D02*
Y1008335D01*
Y1003513D02*
Y1006635D01*
X453554Y1011135D02*
X458054Y1006635D01*
X468054Y1010336D02*
X470854D01*
X460054D02*
X468054D01*
X458054Y1008335D02*
X460054Y1010336D01*
X470854D02*
X473054Y1008136D01*
Y1003513D02*
Y1008136D01*
X506454Y996935D02*
X510654Y1001136D01*
X473054Y996935D02*
X506454D01*
X473054D02*
Y1003513D01*
X468054D02*
Y1010336D01*
X483454Y1015436D02*
Y1019335D01*
X478054Y1010036D02*
X483454Y1015436D01*
X478054Y1003513D02*
Y1010036D01*
X461754Y1092435D02*
X464254Y1089935D01*
X457855Y1096334D02*
X461754Y1092435D01*
X489254Y1096535D02*
X490754Y1095035D01*
X471254Y1096535D02*
X489254D01*
X467154Y1092435D02*
X471254Y1096535D01*
X461754Y1092435D02*
X467154D01*
X466467Y1082746D02*
X476178Y1073036D01*
X464735Y1081355D02*
X465076D01*
X462254Y1083836D02*
X464735Y1081355D01*
X462254Y1083836D02*
Y1089336D01*
X457954Y1093635D02*
X462254Y1089336D01*
X454854Y1093635D02*
X457954D01*
X443054Y1048335D02*
X443154Y1048236D01*
X419188Y1048335D02*
X443054D01*
X410920D02*
X411301Y1047954D01*
Y1041436D02*
Y1047954D01*
X452879Y1096334D02*
X457855D01*
X442665Y1106549D02*
X452879Y1096334D01*
X457855Y1119337D02*
X460900Y1116293D01*
X454657Y1122536D02*
X457855Y1119337D01*
X464254Y1084959D02*
X466467Y1082746D01*
X464254Y1084959D02*
Y1089935D01*
X457855Y1096334D02*
Y1119337D01*
X474478Y1035676D02*
X491467D01*
X440378Y1108836D02*
X442665Y1106549D01*
X426954Y1108836D02*
X440378D01*
X423507Y1112282D02*
X426954Y1108836D01*
X422654Y1112282D02*
X423507D01*
X440907Y1118188D02*
X443146Y1115950D01*
Y1111635D02*
Y1115950D01*
Y1111635D02*
X445449Y1109333D01*
X453007Y1122536D02*
X454657D01*
X437854Y1087679D02*
X439881Y1089706D01*
X437854Y1083535D02*
Y1087679D01*
Y1083535D02*
X439754Y1081635D01*
Y1060835D02*
Y1081635D01*
Y1060835D02*
X452454Y1048135D01*
X468747Y1082643D02*
Y1083251D01*
Y1082643D02*
X471471Y1079918D01*
X473071D01*
X474754Y1078236D01*
X479254D01*
X476178Y1073036D02*
X476601D01*
X435454Y1068989D02*
X435475Y1069010D01*
Y1077036D01*
X425633D02*
Y1082514D01*
Y1069210D02*
Y1077036D01*
Y1069210D02*
X425754Y1069088D01*
X425633Y1082514D02*
X435609Y1092490D01*
X437097D01*
X435475Y1077036D02*
X435854Y1077414D01*
Y1088463D01*
X438489Y1091098D01*
X446841Y1082746D02*
X454130Y1090036D01*
X457554D01*
X470554Y1072435D02*
X479654Y1063336D01*
X508954D01*
X493154Y1086335D02*
X494254Y1087436D01*
X474014Y1086335D02*
X493154D01*
X472035Y1088314D02*
X474014Y1086335D01*
X473546Y1081236D02*
X497454D01*
X497954Y1080735D01*
X469251Y1085530D02*
X473546Y1081236D01*
X470644Y1086922D02*
X470867D01*
X474554Y1083235D01*
X492154D01*
X491467Y1035676D02*
X491754Y1035388D01*
D36*
X571754Y993736D02*
Y1004935D01*
X570054Y992035D02*
X571754Y993736D01*
X561054Y992035D02*
X570054D01*
X557554Y995535D02*
X561054Y992035D01*
X557554Y995535D02*
Y1015436D01*
X559196Y1017077D01*
Y1018435D01*
X551912Y1015876D02*
X552354Y1015435D01*
Y1004735D02*
Y1015435D01*
X563880Y1004935D02*
Y1015661D01*
X567191Y1018972D01*
Y1024899D01*
X535954Y988336D02*
X552354Y1004735D01*
X533254Y988336D02*
X535954D01*
X510554Y1052536D02*
X513354Y1055336D01*
X475054Y1052536D02*
X510554D01*
X469354Y1046836D02*
X475054Y1052536D01*
X513354Y1055336D02*
Y1079636D01*
X561654Y1030435D02*
Y1042235D01*
Y1030435D02*
X567191Y1024899D01*
X491654Y1101336D02*
Y1136720D01*
Y1101336D02*
X513354Y1079636D01*
X596254Y1094036D02*
X597954Y1095735D01*
X498754Y1116535D02*
Y1125336D01*
X491654Y1021035D02*
X496554Y1025935D01*
X489954Y1019335D02*
X491654Y1021035D01*
X483454Y1019335D02*
X489954D01*
X446754D02*
X483454D01*
X457754Y1042235D02*
X466554Y1051035D01*
X465254Y1052335D02*
X466554Y1051035D01*
X464454Y1053135D02*
X465254Y1052335D01*
X470854Y1077335D02*
Y1077536D01*
X465254Y1071735D02*
X470854Y1077335D01*
X465254Y1052335D02*
Y1071735D01*
X453554Y1053135D02*
X464454D01*
X445154Y1061535D02*
X453554Y1053135D01*
X445154Y1061535D02*
Y1062280D01*
X446454Y1042235D02*
X457754D01*
X441554Y1037335D02*
X446454Y1042235D01*
X441554Y1024535D02*
Y1037335D01*
Y1024535D02*
X446754Y1019335D01*
X496554Y1025935D02*
Y1034435D01*
X495601Y1035388D02*
X496554Y1034435D01*
X491754Y1035388D02*
X495601D01*
X469354Y1034435D02*
Y1046836D01*
Y1033836D02*
Y1034435D01*
X536278Y1093235D02*
X541354Y1088159D01*
X552154Y1096035D02*
X554254Y1098135D01*
X552154Y1088959D02*
Y1096035D01*
X551354Y1088159D02*
X552154Y1088959D01*
X596254Y1089059D02*
Y1094036D01*
X554254Y1098135D02*
X557354D01*
D37*
X561654Y1042235D02*
X581478D01*
X537954D02*
X561654D01*
X597354Y1104636D02*
X597954Y1104035D01*
Y1095735D02*
Y1104035D01*
X619354Y1051336D02*
Y1088935D01*
X610454Y1042435D02*
X619354Y1051336D01*
X585678Y1042435D02*
X610454D01*
X577354Y1050759D02*
X585678Y1042435D01*
X581478Y1042235D02*
X583678Y1044436D01*
X530654Y1051735D02*
X537954Y1044436D01*
X530654Y1051735D02*
Y1067636D01*
X526654Y1071636D02*
X530654Y1067636D01*
X526654Y1071636D02*
Y1117393D01*
X534497Y1125235D01*
X571454Y1090936D02*
X577354Y1085036D01*
X565554Y1090936D02*
X571454D01*
X611554Y1090989D02*
X617301D01*
X607354D02*
X611554D01*
X617301D02*
X619354Y1088935D01*
X577354Y1062535D02*
Y1085036D01*
X548869Y1119135D02*
X554969Y1125235D01*
X540954Y1119135D02*
X548869D01*
X536278Y1114459D02*
X540954Y1119135D01*
X536278Y1093235D02*
Y1114459D01*
X584497Y1125235D02*
X592954D01*
X597354Y1120835D01*
Y1104636D02*
Y1120835D01*
X557354Y1098135D02*
X564812Y1105593D01*
Y1125235D01*
X580354Y1094036D02*
X584154Y1090236D01*
X580354Y1094036D02*
Y1097435D01*
X574654Y1103135D02*
X580354Y1097435D01*
X574654Y1103135D02*
Y1125235D01*
D38*
X543335Y1009517D02*
X543354Y1009536D01*
X533254Y1009517D02*
X543335D01*
X441454Y1147435D02*
X442254D01*
X438614D02*
X441454D01*
X442254Y1131536D02*
Y1147435D01*
X440754Y1149736D02*
X441454Y1149035D01*
Y1147435D02*
Y1149035D01*
X498654Y1125436D02*
X498754Y1125336D01*
X480254Y1067136D02*
X482507Y1069388D01*
Y1073036D01*
X457154Y1023635D02*
X457954Y1024436D01*
X461101D01*
X449854Y1063235D02*
X451007Y1062082D01*
X452954D01*
X419607Y1039036D02*
X420654D01*
X417207Y1041436D02*
X419607Y1039036D01*
X425754Y1063183D02*
X435354D01*
X430454Y1061736D02*
X431801Y1063083D01*
X435454D01*
X435354Y1063183D02*
X435454Y1063083D01*
X422654Y1118188D02*
X440907D01*
X418954Y1117535D02*
X419607Y1118188D01*
X422654D01*
X445254Y1122536D02*
X447101D01*
X440907Y1118188D02*
X445254Y1122536D01*
X447101Y1125836D02*
Y1126688D01*
Y1122536D02*
Y1125836D01*
X463267Y1115876D02*
X464454Y1117063D01*
Y1119835D01*
X458454Y1125836D02*
X464454Y1119835D01*
X447101Y1125836D02*
X458454D01*
X510514Y1039336D02*
X515214Y1034636D01*
X515514Y1034336D01*
Y1026035D02*
Y1034336D01*
X527354Y1026035D02*
X528054Y1025336D01*
X522994Y1026035D02*
X527354D01*
X582630Y1028712D02*
X582854Y1028936D01*
X577354Y1028712D02*
X582630D01*
X586254Y1070535D02*
X593754Y1078036D01*
X586254Y1067012D02*
Y1070535D01*
X541354Y1069635D02*
X548854Y1077135D01*
X541354Y1066112D02*
Y1069635D01*
X583454Y1106236D02*
X587052Y1109834D01*
X589254D01*
X593754Y1078036D02*
X608454D01*
X611554Y1081135D01*
Y1085083D01*
X548854Y1077135D02*
X562454D01*
X565854Y1080536D01*
Y1083982D01*
X546254Y1109634D02*
X551556D01*
X592607Y1052382D02*
X597954D01*
X479254Y1078236D02*
X482507Y1074982D01*
Y1073036D02*
Y1074982D01*
X597954Y1052382D02*
X599554Y1050782D01*
X541354Y1055136D02*
Y1066112D01*
Y1055136D02*
X546407Y1050082D01*
X550354D01*
X586254Y1058735D02*
Y1067012D01*
Y1058735D02*
X592607Y1052382D01*
X455854Y1029683D02*
X461101Y1024436D01*
X478254D01*
X481107Y1027289D01*
Y1029482D01*
X491754D01*
X460754Y1031936D02*
X465030D01*
X458501Y1029683D02*
X460754Y1031936D01*
X455854Y1029683D02*
X458501D01*
X442254Y1147435D02*
X454254D01*
X442254Y1131536D02*
X447101Y1126688D01*
X435754Y1144576D02*
X438614Y1147435D01*
X454254D02*
X455636Y1146054D01*
Y1142836D02*
Y1146054D01*
X466769Y1147350D02*
X491654D01*
X465872Y1146453D02*
X466769Y1147350D01*
X465872Y1142836D02*
Y1146453D01*
D39*
X518654Y1000336D02*
X529854Y989135D01*
X510654Y1001136D02*
Y1006336D01*
Y1001136D02*
X511454Y1000336D01*
X518654D01*
D40*
X433754Y1104836D02*
X438354D01*
X433654Y1104735D02*
X433754Y1104836D01*
X433654Y1102435D02*
Y1104735D01*
X430954Y1099736D02*
X433654Y1102435D01*
X408854Y1106835D02*
X420554D01*
X404854Y1102835D02*
X408854Y1106835D01*
X404854Y1038035D02*
Y1102835D01*
Y1038035D02*
X407454Y1035435D01*
X424754D01*
X431254Y1028936D01*
Y1009536D02*
Y1028936D01*
Y1009536D02*
X444554Y996235D01*
Y984935D02*
Y996235D01*
Y984935D02*
X449754Y979735D01*
X475354D01*
X478054Y982436D01*
Y988158D01*
X439295Y1107135D02*
X441273Y1105157D01*
X432354Y1107135D02*
X439295D01*
X428054Y1102835D02*
X432354Y1107135D01*
X428054Y1092435D02*
Y1102835D01*
X420954Y1085336D02*
X428054Y1092435D01*
X420954Y1056936D02*
Y1085336D01*
Y1056936D02*
X424554Y1053335D01*
X443754D01*
X446754Y1050336D01*
Y1047736D02*
Y1050336D01*
X444154Y1045135D02*
X446754Y1047736D01*
X441454Y1045135D02*
X444154D01*
X438254Y1041936D02*
X441454Y1045135D01*
X438254Y1030836D02*
Y1041936D01*
Y1030836D02*
X439654Y1029436D01*
Y1011335D02*
Y1029436D01*
Y1011335D02*
X456254Y994736D01*
X471454D01*
X473054Y993136D01*
Y988158D02*
Y993136D01*
X413654Y1089972D02*
X417386Y1093705D01*
X413654Y1071636D02*
Y1089972D01*
X407154Y1065135D02*
X413654Y1071636D01*
X407154Y1039435D02*
Y1065135D01*
Y1039435D02*
X409254Y1037335D01*
X411054D01*
X411754Y1036635D01*
X427654D01*
X436454Y1027835D01*
Y1008636D02*
Y1027835D01*
Y1008636D02*
X456931Y988158D01*
X458054D01*
X446195Y1093235D02*
X447954D01*
X441273Y1088314D02*
X446195Y1093235D01*
X417386Y1093705D02*
X417917Y1094236D01*
X421254D01*
X451554Y1106236D02*
X452854Y1104935D01*
X451554Y1106236D02*
Y1108535D01*
X448233Y1111857D02*
X451554Y1108535D01*
X448233Y1111857D02*
Y1112117D01*
X439916Y1112082D02*
X444057Y1107941D01*
X430754Y1112082D02*
X439916D01*
D41*
X470644Y1106549D02*
X475930Y1111835D01*
X480154D01*
X452454Y1048135D02*
X457954D01*
X455854Y1035588D02*
X468201D01*
X469354Y1029535D02*
Y1033836D01*
X530354Y1034636D02*
X537954Y1042235D01*
X522694Y1034636D02*
X530354D01*
X545354Y1060536D02*
X546354Y1061535D01*
Y1066112D01*
X452409Y1075190D02*
Y1077178D01*
X450154Y1072935D02*
X452409Y1075190D01*
X608501Y1050583D02*
X609654Y1051735D01*
X605354Y1050583D02*
X608501D01*
X460900Y1077178D02*
X461754Y1076324D01*
Y1060036D02*
Y1076324D01*
Y1060036D02*
X462054Y1059735D01*
X558507Y1050183D02*
X560854Y1047836D01*
X556354Y1050183D02*
X558507D01*
X441454Y1082927D02*
X444057Y1085530D01*
X441454Y1075235D02*
Y1082927D01*
Y1075235D02*
X445351Y1071338D01*
Y1067988D02*
Y1071338D01*
Y1067988D02*
X452954D01*
X480654Y1088735D02*
X482054D01*
X476900Y1092490D02*
X480654Y1088735D01*
X451016Y1078571D02*
X455681Y1083235D01*
X456954D01*
X593854Y1056736D02*
Y1058535D01*
X596254Y1060935D01*
Y1067012D01*
X469251Y1107941D02*
X471554Y1110244D01*
Y1112035D01*
X473754Y1114235D01*
X591154Y1060935D02*
X591254Y1061036D01*
Y1067012D01*
X476211Y1092490D02*
X476900D01*
X549654Y1060536D02*
X551354Y1062236D01*
Y1066112D01*
X556354Y1056089D02*
Y1063435D01*
Y1066112D01*
X550354Y1057436D02*
X556354Y1063435D01*
X550354Y1055989D02*
Y1057436D01*
X601254Y1062189D02*
Y1067012D01*
Y1062189D02*
X605554Y1057889D01*
X598854Y1058288D02*
X600054Y1059488D01*
Y1065812D01*
X601254Y1067012D01*
X468201Y1035588D02*
X469354Y1034435D01*
X468014Y1028195D02*
X469354Y1029535D01*
X465030Y1028195D02*
X468014D01*
X447762Y1153347D02*
X473746D01*
X446654Y1135135D02*
X448156Y1136637D01*
Y1142836D01*
X434166Y1153347D02*
X447762D01*
X430054Y1149236D02*
X434166Y1153347D01*
X430054Y1138836D02*
Y1149236D01*
Y1138836D02*
X431794Y1137096D01*
X435754D01*
X473746Y1153347D02*
X494442D01*
X499254Y1148536D01*
Y1146436D02*
Y1148536D01*
X494654Y1141835D02*
X499254Y1146436D01*
X486154Y1141835D02*
X494654D01*
X478354Y1134035D02*
X486154Y1141835D01*
X472007Y1134035D02*
X478354D01*
X448156Y1142836D02*
X452601Y1138391D01*
Y1134035D02*
Y1138391D01*
X473352Y1135380D02*
Y1142836D01*
X472007Y1134035D02*
X473352Y1135380D01*
X460754Y1133936D02*
Y1142836D01*
Y1129390D02*
Y1133936D01*
X460654Y1134035D02*
X460754Y1133936D01*
X458507Y1134035D02*
X460654D01*
X463313Y1134235D02*
Y1142836D01*
Y1129377D02*
Y1134235D01*
X463513Y1134035D01*
X466101D01*
X465076Y1112117D02*
X467954Y1114995D01*
Y1115234D01*
X468481Y1115761D01*
Y1124208D01*
X463313Y1129377D02*
X468481Y1124208D01*
X463684Y1113509D02*
X466681Y1116507D01*
Y1123463D01*
X460754Y1129390D02*
X466681Y1123463D01*
D42*
X603184Y1090989D02*
X607354D01*
X558083Y1089888D02*
X565854D01*
X577354Y1050759D02*
Y1062535D01*
X556354Y1088159D02*
X558083Y1089888D01*
X601254Y1089059D02*
X603184Y1090989D01*
X589254Y1098637D02*
X591254Y1096638D01*
Y1089059D02*
Y1096638D01*
X546354Y1088159D02*
Y1098337D01*
D43*
X612154Y1021935D02*
D03*
X414368Y1021904D02*
D03*
X613140Y1145920D02*
D03*
X414368D02*
D03*
D44*
X447762Y1153347D02*
D03*
X473746D02*
D03*
D45*
X554969Y1125235D02*
D03*
X574654D02*
D03*
X564812D02*
D03*
X524654D02*
D03*
X514812D02*
D03*
D46*
X584497D02*
D03*
X534497D02*
D03*
D47*
X559354Y1025935D02*
D03*
X528754Y1039435D02*
D03*
X520754Y1055836D02*
D03*
X508454D02*
D03*
X449154Y1089036D02*
D03*
X440754Y1149736D02*
D03*
X498654Y1125436D02*
D03*
X498754Y1116535D02*
D03*
X480254Y1067136D02*
D03*
X457154Y1023635D02*
D03*
X449854Y1063235D02*
D03*
X420654Y1039036D02*
D03*
X430454Y1061736D02*
D03*
X418954Y1117535D02*
D03*
X411154Y1097836D02*
D03*
X453554Y1011135D02*
D03*
X430954Y1099736D02*
D03*
X420554Y1106835D02*
D03*
X447954Y1093235D02*
D03*
X490754Y1095035D02*
D03*
X454854Y1093635D02*
D03*
X443154Y1048236D02*
D03*
X421254Y1094236D02*
D03*
X452854Y1104935D02*
D03*
X480154Y1111835D02*
D03*
X457954Y1048135D02*
D03*
X510514Y1039336D02*
D03*
X528054Y1025336D02*
D03*
X593854Y1082635D02*
D03*
X548854Y1077135D02*
D03*
X549154Y1072935D02*
D03*
Y1081336D02*
D03*
X554654Y1077236D02*
D03*
X542954Y1077036D02*
D03*
X542854Y1073036D02*
D03*
X554754Y1073236D02*
D03*
X554854Y1081135D02*
D03*
X543054D02*
D03*
X587954Y1077936D02*
D03*
X599954Y1078036D02*
D03*
X593754D02*
D03*
X599854Y1082436D02*
D03*
X599754Y1073835D02*
D03*
X593854D02*
D03*
X588054Y1073936D02*
D03*
X587954Y1082135D02*
D03*
X545354Y1060536D02*
D03*
X582854Y1028936D02*
D03*
X583454Y1106236D02*
D03*
X551556Y1109634D02*
D03*
X450154Y1072935D02*
D03*
X609654Y1051735D02*
D03*
X462054Y1059735D02*
D03*
X560854Y1047836D02*
D03*
X457554Y1090036D02*
D03*
X470554Y1072435D02*
D03*
X508954Y1063336D02*
D03*
X482054Y1088735D02*
D03*
X494254Y1087436D02*
D03*
X497954Y1080735D02*
D03*
X492154Y1083235D02*
D03*
X456954D02*
D03*
X593854Y1056736D02*
D03*
X473754Y1114235D02*
D03*
X591154Y1060935D02*
D03*
X549654Y1060536D02*
D03*
X446654Y1135135D02*
D03*
D48*
X543354Y1009536D02*
D03*
M02*
