G04 Layer_Physical_Order=2*
G04 Layer_Color=16711680*
%FSLAX25Y25*%
%MOIN*%
G70*
G01*
G75*
%ADD29R,0.03150X0.03150*%
%ADD35C,0.00800*%
%ADD38C,0.01500*%
%ADD40C,0.00600*%
%ADD41C,0.01000*%
%ADD43C,0.23622*%
%ADD44O,0.03543X0.06299*%
%ADD45C,0.05906*%
%ADD46R,0.05906X0.05906*%
%ADD47C,0.02000*%
%ADD48C,0.05000*%
%ADD49R,0.01200X0.03900*%
G36*
X608751Y1157535D02*
X607488Y1157012D01*
X605822Y1155991D01*
X604337Y1154723D01*
X603068Y1153237D01*
X602047Y1151572D01*
X601300Y1149767D01*
X600844Y1147867D01*
X600691Y1145920D01*
X600844Y1143972D01*
X601300Y1142073D01*
X602047Y1140268D01*
X603068Y1138602D01*
X604337Y1137117D01*
X605822Y1135848D01*
X607488Y1134827D01*
X609293Y1134080D01*
X611192Y1133624D01*
X613140Y1133470D01*
X615088Y1133624D01*
X616987Y1134080D01*
X618792Y1134827D01*
X620458Y1135848D01*
X621254Y1136528D01*
X623254Y1135620D01*
Y1127435D01*
Y1031129D01*
X621254Y1030391D01*
X620957Y1030739D01*
X619472Y1032007D01*
X617806Y1033028D01*
X616001Y1033776D01*
X614102Y1034232D01*
X612154Y1034385D01*
X610207Y1034232D01*
X608307Y1033776D01*
X606502Y1033028D01*
X604837Y1032007D01*
X603351Y1030739D01*
X602082Y1029253D01*
X601062Y1027587D01*
X600314Y1025782D01*
X599858Y1023883D01*
X599705Y1021935D01*
X599858Y1019988D01*
X600314Y1018088D01*
X601062Y1016284D01*
X602082Y1014618D01*
X603351Y1013132D01*
X604837Y1011864D01*
X606188Y1011036D01*
X606146Y1010043D01*
X605697Y1009035D01*
X594654D01*
X590554Y1004935D01*
X587654Y1002036D01*
Y979436D01*
X587354D01*
X582554Y974636D01*
X518154D01*
Y1041614D01*
X525880D01*
X526365Y1041062D01*
X527158Y1039614D01*
X527123Y1039435D01*
X527247Y1038811D01*
X527601Y1038282D01*
X528130Y1037928D01*
X528754Y1037804D01*
X528912Y1037836D01*
X538833Y1027915D01*
X539164Y1027693D01*
X539554Y1027616D01*
X556232D01*
X557754Y1026093D01*
X557723Y1025935D01*
X557847Y1025311D01*
X558201Y1024782D01*
X558730Y1024428D01*
X559354Y1024304D01*
X559978Y1024428D01*
X560508Y1024782D01*
X560861Y1025311D01*
X560986Y1025935D01*
X560861Y1026560D01*
X560508Y1027089D01*
X559978Y1027443D01*
X559461Y1028314D01*
X560308Y1030071D01*
X560617Y1030314D01*
X560854D01*
X560854Y1030314D01*
X561283Y1030399D01*
X561647Y1030642D01*
X568419Y1037414D01*
X596454D01*
X596454Y1037414D01*
X596883Y1037499D01*
X597247Y1037742D01*
X609616Y1050112D01*
X609654Y1050104D01*
X610278Y1050228D01*
X610808Y1050582D01*
X611134Y1051070D01*
D01*
X611161Y1051111D01*
Y1051111D01*
X611285Y1051735D01*
X611285Y1051735D01*
X611161Y1052360D01*
X610995Y1052608D01*
X610835Y1052848D01*
X610829Y1052857D01*
X610809Y1052888D01*
X610808Y1052889D01*
X610808Y1052889D01*
X610434Y1053139D01*
X610278Y1053243D01*
X610278Y1053243D01*
X609838Y1053330D01*
X609838Y1053330D01*
X609759Y1053346D01*
X609654Y1053367D01*
X609654Y1053367D01*
X609214Y1053279D01*
X609214D01*
X609213Y1053279D01*
X609213Y1053279D01*
X609129Y1053262D01*
X609030Y1053243D01*
X609030Y1053243D01*
X608874Y1053139D01*
X608874Y1053139D01*
X608501Y1052889D01*
X608501D01*
X608396Y1052733D01*
D01*
X608147Y1052360D01*
X608147Y1052360D01*
X608110Y1052176D01*
X608110Y1052176D01*
X608023Y1051735D01*
X608023Y1051735D01*
X608030Y1051698D01*
X595990Y1039657D01*
X567954D01*
X567954Y1039657D01*
X567525Y1039572D01*
X567161Y1039328D01*
X567161Y1039328D01*
X563976Y1036143D01*
X561976Y1036972D01*
Y1046661D01*
X562008Y1046682D01*
X562361Y1047211D01*
X562486Y1047836D01*
X562361Y1048460D01*
X562008Y1048989D01*
X561478Y1049343D01*
X561393Y1049360D01*
X560673Y1050874D01*
X560605Y1051400D01*
X564819Y1055614D01*
X590751D01*
X592730Y1055563D01*
X592737Y1055557D01*
X593230Y1055228D01*
X593230D01*
X593670Y1055141D01*
X593854Y1055104D01*
D01*
X593854Y1055104D01*
X593854D01*
X594303Y1055193D01*
X594478Y1055228D01*
X594478D01*
X594478Y1055228D01*
Y1055228D01*
X594492Y1055238D01*
X594597Y1055308D01*
X594597D01*
X594602Y1055311D01*
X594634Y1055332D01*
X594634Y1055332D01*
D01*
X594634Y1055332D01*
X594815Y1055453D01*
X594852Y1055478D01*
X594852Y1055478D01*
X595008Y1055582D01*
X595008D01*
X595112Y1055738D01*
X595112D01*
X595361Y1056111D01*
X595361Y1056111D01*
X595361D01*
D01*
X595398Y1056295D01*
X595449Y1056552D01*
X595476Y1056687D01*
D01*
X595485Y1056735D01*
Y1056736D01*
D01*
Y1056736D01*
X595466Y1056834D01*
X595450Y1056914D01*
X595449Y1056919D01*
X595361Y1057360D01*
Y1057360D01*
X595257Y1057516D01*
D01*
X595257Y1057516D01*
X595008Y1057889D01*
Y1057889D01*
X594926Y1057943D01*
D01*
X594815Y1058018D01*
X594634Y1058139D01*
X594608Y1058156D01*
X594478Y1058243D01*
X594478Y1058243D01*
X594478Y1058243D01*
X594467Y1058245D01*
X594397Y1058259D01*
X593716Y1058604D01*
X592661Y1060311D01*
X592661Y1060311D01*
X592749Y1060752D01*
X592776Y1060887D01*
D01*
X592786Y1060935D01*
Y1060935D01*
X592786Y1060935D01*
X592661Y1061560D01*
X592661Y1061560D01*
X592412Y1061933D01*
X592412D01*
X592308Y1062089D01*
Y1062089D01*
X592152Y1062193D01*
Y1062193D01*
X592115Y1062218D01*
X591934Y1062339D01*
X591934Y1062339D01*
D01*
X591934Y1062339D01*
X591913Y1062353D01*
X591909Y1062356D01*
X591909D01*
X591794Y1062432D01*
X591778Y1062443D01*
X591778D01*
X591778Y1062443D01*
X591608Y1062477D01*
X591154Y1062567D01*
X591154D01*
X591154Y1062567D01*
D01*
X590970Y1062530D01*
X590530Y1062443D01*
X590530Y1062443D01*
X590092Y1062150D01*
X590029Y1062108D01*
X588051Y1062057D01*
X564354D01*
X564354Y1062057D01*
X563925Y1061972D01*
X563561Y1061728D01*
X563561Y1061728D01*
X555290Y1053457D01*
X523400D01*
X522491Y1054857D01*
X522310Y1055457D01*
X522386Y1055835D01*
X523846Y1057250D01*
X523975Y1057314D01*
X546224D01*
X546224Y1057314D01*
X546653Y1057399D01*
X547017Y1057642D01*
X547588Y1058214D01*
X548454D01*
X548454Y1058214D01*
X548883Y1058299D01*
X549247Y1058542D01*
X549616Y1058912D01*
X549654Y1058904D01*
X550278Y1059028D01*
X550808Y1059382D01*
X551161Y1059911D01*
X551286Y1060536D01*
X551161Y1061160D01*
X550808Y1061689D01*
X550278Y1062043D01*
X549654Y1062167D01*
X549030Y1062043D01*
X548659Y1061795D01*
X548359Y1061689D01*
X548031D01*
X546134Y1061939D01*
X546134Y1061939D01*
D01*
X546110Y1061955D01*
D01*
X545978Y1062043D01*
X545978Y1062043D01*
X545671Y1062104D01*
X545354Y1062167D01*
X545354D01*
X545042Y1062105D01*
X544730Y1062043D01*
X544730D01*
X544448Y1061854D01*
X544201Y1061689D01*
X544201Y1061689D01*
X544111Y1061555D01*
X544111Y1061555D01*
X544097Y1061533D01*
D01*
X544097Y1061533D01*
X542211Y1061257D01*
X518154D01*
Y1065094D01*
X522152Y1069092D01*
X522373Y1069422D01*
X522451Y1069812D01*
Y1069899D01*
X522631D01*
Y1074998D01*
X522072D01*
X520231Y1074998D01*
Y1074998D01*
X520154D01*
X518154Y1075196D01*
Y1092674D01*
X520072Y1092872D01*
X520231D01*
D01*
Y1092873D01*
X520231Y1092873D01*
X522631D01*
Y1097972D01*
X520249D01*
Y1100817D01*
X520144Y1101344D01*
X519845Y1101791D01*
X518154Y1103482D01*
Y1124021D01*
X518273Y1124308D01*
X518395Y1125235D01*
X518273Y1126163D01*
X518154Y1126450D01*
Y1159135D01*
X518320Y1159536D01*
X608354D01*
X608751Y1157535D01*
D02*
G37*
G36*
X516054Y1159636D02*
X516554Y1159136D01*
Y1129241D01*
X516452Y1129173D01*
X515554Y1128721D01*
X514812Y1128819D01*
X513884Y1128697D01*
X513020Y1128339D01*
X512278Y1127769D01*
X511708Y1127027D01*
X511350Y1126163D01*
X511228Y1125235D01*
X511350Y1124308D01*
X511708Y1123444D01*
X511714Y1123436D01*
X510032Y1121753D01*
X475554D01*
X475261Y1121695D01*
X475203Y1121683D01*
X474905Y1121484D01*
X448232Y1094812D01*
X447954Y1094867D01*
X447330Y1094743D01*
X446801Y1094389D01*
X446447Y1093860D01*
X446323Y1093235D01*
X446447Y1092611D01*
X446801Y1092082D01*
X447330Y1091728D01*
X447680Y1091659D01*
X447978Y1090749D01*
X447981Y1090657D01*
X447712Y1090477D01*
X447270Y1089816D01*
X447214Y1089536D01*
X449154D01*
Y1089036D01*
X449654D01*
Y1087096D01*
X449934Y1087152D01*
X450596Y1087593D01*
X450935Y1088100D01*
X451610Y1088050D01*
X451934Y1087934D01*
Y1085558D01*
X442433Y1076056D01*
X442212Y1075726D01*
X442135Y1075336D01*
Y1049479D01*
X442001Y1049389D01*
X441647Y1048860D01*
X441523Y1048236D01*
X441647Y1047611D01*
X442001Y1047082D01*
X442530Y1046728D01*
X443154Y1046604D01*
X443778Y1046728D01*
X444308Y1047082D01*
X444661Y1047611D01*
X444785Y1048236D01*
X444661Y1048860D01*
X444308Y1049389D01*
X444174Y1049479D01*
Y1074913D01*
X453675Y1084414D01*
X453896Y1084745D01*
X453974Y1085135D01*
Y1091188D01*
X454854Y1092004D01*
X455478Y1092128D01*
X456008Y1092482D01*
X456361Y1093011D01*
X456486Y1093635D01*
X456361Y1094260D01*
X456008Y1094789D01*
X455478Y1095143D01*
X454854Y1095267D01*
X454230Y1095143D01*
X453701Y1094789D01*
X453347Y1094260D01*
X453325Y1094148D01*
X452233Y1093056D01*
X452012Y1092726D01*
X451934Y1092336D01*
Y1090137D01*
X451610Y1090021D01*
X450935Y1089971D01*
X450596Y1090477D01*
X449934Y1090919D01*
X449344Y1091037D01*
X449089Y1091644D01*
X449043Y1092039D01*
X449108Y1092082D01*
X449461Y1092611D01*
X449585Y1093235D01*
X449530Y1093514D01*
X471296Y1115280D01*
X472193Y1114868D01*
X472236Y1114806D01*
X472123Y1114235D01*
X472247Y1113611D01*
X472601Y1113082D01*
X472633Y1113060D01*
Y1109636D01*
X472633Y1109636D01*
X472718Y1109206D01*
X472961Y1108842D01*
X479133Y1102671D01*
Y1101100D01*
X478061Y1100029D01*
X477818Y1099665D01*
X477733Y1099236D01*
X477733Y1099235D01*
Y1073835D01*
X477733Y1073835D01*
X477818Y1073406D01*
X478061Y1073042D01*
X481072Y1070032D01*
X480754Y1069437D01*
Y1067636D01*
X482556D01*
X483150Y1067953D01*
X498423Y1052681D01*
X498040Y1051757D01*
X477919D01*
X458676Y1071000D01*
Y1082635D01*
X458676Y1082635D01*
X458590Y1083065D01*
X458560Y1083109D01*
X458586Y1083235D01*
X458461Y1083860D01*
X458108Y1084389D01*
X457578Y1084743D01*
X456954Y1084867D01*
X456330Y1084743D01*
X455801Y1084389D01*
X455447Y1083860D01*
X455323Y1083235D01*
X455447Y1082611D01*
X455801Y1082082D01*
X456330Y1081728D01*
X456433Y1081708D01*
Y1070535D01*
X456433Y1070535D01*
X456518Y1070106D01*
X456761Y1069742D01*
X476661Y1049842D01*
X477025Y1049599D01*
X477454Y1049514D01*
X477454Y1049514D01*
X516554D01*
Y1047757D01*
X475619D01*
X463678Y1059698D01*
X463686Y1059735D01*
X463561Y1060360D01*
X463208Y1060889D01*
X462678Y1061243D01*
X462054Y1061367D01*
X461430Y1061243D01*
X461376Y1061207D01*
X460376Y1061741D01*
Y1063836D01*
X460290Y1064265D01*
X460047Y1064629D01*
X460047Y1064629D01*
X451778Y1072898D01*
X451786Y1072935D01*
X451661Y1073560D01*
X451308Y1074089D01*
X450778Y1074443D01*
X450154Y1074567D01*
X449530Y1074443D01*
X449001Y1074089D01*
X448647Y1073560D01*
X448523Y1072935D01*
X448647Y1072311D01*
X449001Y1071782D01*
X449530Y1071428D01*
X450154Y1071304D01*
X450192Y1071312D01*
X458133Y1063371D01*
Y1053736D01*
X458133Y1053736D01*
X458218Y1053306D01*
X458461Y1052942D01*
X469461Y1041942D01*
X469825Y1041699D01*
X470254Y1041614D01*
X470254Y1041614D01*
X508163D01*
X508667Y1040614D01*
X508550Y1040457D01*
X467219D01*
X459578Y1048098D01*
X459586Y1048135D01*
X459461Y1048760D01*
X459108Y1049289D01*
X458578Y1049643D01*
X457954Y1049767D01*
X457330Y1049643D01*
X456801Y1049289D01*
X456447Y1048760D01*
X456323Y1048135D01*
X456447Y1047511D01*
X456801Y1046982D01*
X457330Y1046628D01*
X457954Y1046504D01*
X457992Y1046512D01*
X465961Y1038542D01*
X466325Y1038299D01*
X466754Y1038214D01*
X466754Y1038214D01*
X509339D01*
X509361Y1038182D01*
X509890Y1037828D01*
X510514Y1037704D01*
X511138Y1037828D01*
X511668Y1038182D01*
X512021Y1038711D01*
X512146Y1039336D01*
X512021Y1039960D01*
X511668Y1040489D01*
X511481Y1040614D01*
X511784Y1041614D01*
X516554D01*
Y974535D01*
X446554D01*
X445954Y974835D01*
X438554Y980935D01*
Y983936D01*
Y999436D01*
X437454Y1000535D01*
X427954Y1010036D01*
X420668D01*
X420386Y1011036D01*
X421686Y1011832D01*
X423171Y1013101D01*
X424440Y1014586D01*
X425461Y1016252D01*
X426208Y1018057D01*
X426664Y1019956D01*
X426818Y1021904D01*
X426664Y1023851D01*
X426208Y1025751D01*
X425461Y1027556D01*
X424440Y1029222D01*
X423171Y1030707D01*
X421686Y1031976D01*
X420020Y1032996D01*
X418215Y1033744D01*
X416316Y1034200D01*
X414368Y1034353D01*
X412421Y1034200D01*
X410521Y1033744D01*
X408716Y1032996D01*
X407051Y1031976D01*
X405565Y1030707D01*
X405392Y1030505D01*
X404454Y1030851D01*
Y1136973D01*
X405392Y1137319D01*
X405565Y1137117D01*
X407051Y1135848D01*
X408716Y1134827D01*
X410521Y1134080D01*
X412421Y1133624D01*
X414368Y1133470D01*
X416316Y1133624D01*
X418215Y1134080D01*
X420020Y1134827D01*
X421686Y1135848D01*
X423171Y1137117D01*
X424440Y1138602D01*
X425461Y1140268D01*
X426208Y1142073D01*
X426664Y1143972D01*
X426818Y1145920D01*
X426664Y1147867D01*
X426208Y1149767D01*
X425461Y1151572D01*
X424440Y1153237D01*
X423171Y1154723D01*
X421686Y1155991D01*
X420020Y1157012D01*
X418215Y1157760D01*
X416316Y1158216D01*
X414368Y1158369D01*
X412421Y1158216D01*
X410521Y1157760D01*
X408716Y1157012D01*
X407499Y1156266D01*
X406876Y1157057D01*
X409054Y1159235D01*
X409654Y1159836D01*
X414454D01*
X516054Y1159636D01*
D02*
G37*
G36*
X513020Y1122132D02*
X513884Y1121774D01*
X514812Y1121652D01*
X515554Y1121750D01*
X516452Y1121298D01*
X516554Y1121229D01*
Y1107039D01*
X516382Y1106110D01*
X514307D01*
Y1103535D01*
X513307D01*
Y1106110D01*
X511232D01*
Y1103987D01*
X510232Y1103452D01*
X510076Y1103557D01*
Y1105711D01*
X505726D01*
Y1101361D01*
X507667D01*
X507671Y1101355D01*
X507136Y1100355D01*
X501754D01*
X501364Y1100277D01*
X501033Y1100056D01*
X497032Y1096055D01*
X491997D01*
X491908Y1096189D01*
X491378Y1096543D01*
X490754Y1096667D01*
X490130Y1096543D01*
X489601Y1096189D01*
X489247Y1095660D01*
X489123Y1095035D01*
X489247Y1094411D01*
X489601Y1093882D01*
X490130Y1093528D01*
X490754Y1093404D01*
X491378Y1093528D01*
X491908Y1093882D01*
X491997Y1094016D01*
X497454D01*
X497844Y1094094D01*
X498175Y1094314D01*
X502177Y1098316D01*
X504019D01*
X504877Y1097972D01*
X504877Y1097316D01*
Y1092873D01*
X506436D01*
X507277Y1092873D01*
X507357D01*
X507436D01*
X508277Y1092873D01*
X508995D01*
X509836Y1092873D01*
X509916D01*
X509995D01*
X510836Y1092873D01*
X511554D01*
X512395Y1092873D01*
X512475D01*
X512554D01*
X513395Y1092873D01*
X514954D01*
Y1092872D01*
X515113D01*
Y1092873D01*
X516554D01*
Y1080984D01*
X515630Y1080601D01*
X511175Y1085056D01*
X510844Y1085277D01*
X510454Y1085355D01*
X500176D01*
X498175Y1087356D01*
X497844Y1087577D01*
X497454Y1087655D01*
X495842D01*
X495761Y1088060D01*
X495408Y1088589D01*
X494878Y1088943D01*
X494254Y1089067D01*
X493630Y1088943D01*
X493101Y1088589D01*
X492747Y1088060D01*
X492623Y1087436D01*
X492747Y1086811D01*
X493101Y1086282D01*
X493630Y1085928D01*
X494254Y1085804D01*
X494442Y1085841D01*
X494664Y1085693D01*
X495054Y1085616D01*
X497032D01*
X499033Y1083615D01*
X499364Y1083393D01*
X499754Y1083316D01*
X510032D01*
X515294Y1078054D01*
Y1076021D01*
X515002Y1075820D01*
X514293Y1075638D01*
X508475Y1081456D01*
X508144Y1081677D01*
X507754Y1081755D01*
X499197D01*
X499108Y1081889D01*
X498578Y1082243D01*
X497954Y1082367D01*
X497330Y1082243D01*
X496801Y1081889D01*
X496447Y1081360D01*
X496323Y1080735D01*
X496447Y1080111D01*
X496801Y1079582D01*
X497330Y1079228D01*
X497954Y1079104D01*
X498578Y1079228D01*
X499108Y1079582D01*
X499197Y1079716D01*
X507332D01*
X509563Y1077485D01*
X509748Y1076424D01*
X509527Y1076093D01*
X509449Y1075703D01*
X508626Y1074998D01*
X508277D01*
X507436Y1074998D01*
X507357D01*
X507277D01*
X506436Y1074998D01*
X504877D01*
Y1070269D01*
X503908Y1069823D01*
X493174Y1080558D01*
Y1081992D01*
X493308Y1082082D01*
X493661Y1082611D01*
X493785Y1083235D01*
X493661Y1083860D01*
X493308Y1084389D01*
X492778Y1084743D01*
X492154Y1084867D01*
X491530Y1084743D01*
X491001Y1084389D01*
X490776Y1084052D01*
X489790Y1084213D01*
X489776Y1084219D01*
Y1089835D01*
X489776Y1089835D01*
X489690Y1090265D01*
X489447Y1090629D01*
X489447Y1090629D01*
X486176Y1093900D01*
Y1106935D01*
X486176Y1106936D01*
X486090Y1107365D01*
X485847Y1107728D01*
X485847Y1107728D01*
X481778Y1111798D01*
X481785Y1111835D01*
X481661Y1112460D01*
X481308Y1112989D01*
X480778Y1113343D01*
X480154Y1113467D01*
X479530Y1113343D01*
X479001Y1112989D01*
X478647Y1112460D01*
X478523Y1111835D01*
X478647Y1111211D01*
X479001Y1110682D01*
X479530Y1110328D01*
X480154Y1110204D01*
X480192Y1110212D01*
X483933Y1106471D01*
Y1093435D01*
X483933Y1093435D01*
X484018Y1093006D01*
X484261Y1092642D01*
X487533Y1089371D01*
Y1076435D01*
X487533Y1076435D01*
X487618Y1076006D01*
X487861Y1075642D01*
X502123Y1061381D01*
X501740Y1060457D01*
X498519D01*
X483176Y1075800D01*
Y1087560D01*
X483208Y1087582D01*
X483561Y1088111D01*
X483685Y1088735D01*
X483561Y1089360D01*
X483208Y1089889D01*
X482678Y1090243D01*
X482054Y1090367D01*
X481430Y1090243D01*
X480976Y1089939D01*
X480596Y1090026D01*
X479976Y1090305D01*
Y1098771D01*
X481047Y1099842D01*
X481047Y1099842D01*
X481290Y1100206D01*
X481376Y1100636D01*
X481376Y1100636D01*
Y1103135D01*
X481376Y1103135D01*
X481290Y1103565D01*
X481047Y1103928D01*
X481047Y1103928D01*
X474876Y1110100D01*
Y1113060D01*
X474908Y1113082D01*
X475261Y1113611D01*
X475386Y1114235D01*
X475261Y1114860D01*
X474908Y1115389D01*
X474378Y1115743D01*
X473754Y1115867D01*
X473184Y1115753D01*
X473122Y1115796D01*
X472710Y1116693D01*
X475934Y1119918D01*
X510412D01*
X510763Y1119988D01*
X511060Y1120187D01*
X513012Y1122138D01*
X513020Y1122132D01*
D02*
G37*
%LPC*%
G36*
X479754Y1066636D02*
X478314D01*
X478370Y1066355D01*
X478812Y1065693D01*
X479474Y1065252D01*
X479754Y1065196D01*
Y1066636D01*
D02*
G37*
G36*
X450354Y1065175D02*
Y1063735D01*
X451794D01*
X451738Y1064016D01*
X451296Y1064677D01*
X450634Y1065119D01*
X450354Y1065175D01*
D02*
G37*
G36*
X482194Y1066636D02*
X480754D01*
Y1065196D01*
X481035Y1065252D01*
X481696Y1065693D01*
X482138Y1066355D01*
X482194Y1066636D01*
D02*
G37*
G36*
X429954Y1061236D02*
X428514D01*
X428570Y1060955D01*
X429012Y1060293D01*
X429674Y1059851D01*
X429954Y1059796D01*
Y1061236D01*
D02*
G37*
G36*
X479754Y1069075D02*
X479474Y1069019D01*
X478812Y1068577D01*
X478370Y1067916D01*
X478314Y1067636D01*
X479754D01*
Y1069075D01*
D02*
G37*
G36*
X449354Y1065175D02*
X449074Y1065119D01*
X448412Y1064677D01*
X447970Y1064016D01*
X447914Y1063735D01*
X449354D01*
Y1065175D01*
D02*
G37*
G36*
X429954Y1063675D02*
X429674Y1063619D01*
X429012Y1063177D01*
X428570Y1062516D01*
X428514Y1062236D01*
X429954D01*
Y1063675D01*
D02*
G37*
G36*
X451794Y1062735D02*
X450354D01*
Y1061296D01*
X450634Y1061351D01*
X451296Y1061794D01*
X451738Y1062455D01*
X451794Y1062735D01*
D02*
G37*
G36*
X449354D02*
X447914D01*
X447970Y1062455D01*
X448412Y1061794D01*
X449074Y1061351D01*
X449354Y1061296D01*
Y1062735D01*
D02*
G37*
G36*
X430954Y1063675D02*
Y1062236D01*
X432394D01*
X432338Y1062516D01*
X431896Y1063177D01*
X431235Y1063619D01*
X430954Y1063675D01*
D02*
G37*
G36*
X432394Y1061236D02*
X430954D01*
Y1059796D01*
X431235Y1059851D01*
X431896Y1060293D01*
X432338Y1060955D01*
X432394Y1061236D01*
D02*
G37*
G36*
X549654Y1083275D02*
Y1081336D01*
X549154D01*
Y1080836D01*
X547214D01*
X547234Y1080736D01*
X547270Y1080555D01*
X547352Y1079832D01*
X547370Y1079443D01*
X547156Y1079163D01*
X544944Y1079309D01*
X544844Y1079435D01*
X544938Y1080355D01*
Y1080355D01*
D01*
X544942Y1080373D01*
D01*
X544994Y1080636D01*
X541104D01*
X541208Y1080054D01*
X541250Y1079586D01*
X541077Y1077879D01*
X541070Y1077816D01*
Y1077816D01*
D01*
X541067Y1077798D01*
D01*
X541014Y1077536D01*
X542954D01*
Y1076536D01*
X541014D01*
X541051Y1076351D01*
X541051Y1076351D01*
X541070Y1076255D01*
X541070Y1076255D01*
X541070Y1076255D01*
X541157Y1076125D01*
X541172Y1076103D01*
X541276Y1075948D01*
X541309Y1075898D01*
X541087Y1073990D01*
X540970Y1073816D01*
X540914Y1073536D01*
X544794D01*
X544738Y1073816D01*
X544710Y1073858D01*
X544557Y1075407D01*
X545064Y1075708D01*
X545275Y1075744D01*
X546334Y1075695D01*
X546708Y1075554D01*
X547365Y1074717D01*
X547352Y1074439D01*
X547270Y1073716D01*
X547234Y1073534D01*
X547214Y1073435D01*
X549154D01*
Y1072935D01*
X549654D01*
Y1070996D01*
X549934Y1071052D01*
X549934Y1071052D01*
X550596Y1071494D01*
X550781Y1071748D01*
X550979Y1072021D01*
X551614Y1072167D01*
X552325Y1072157D01*
X553076Y1072147D01*
X553312Y1071793D01*
X553974Y1071352D01*
X554254Y1071296D01*
Y1073236D01*
X554754D01*
Y1073736D01*
X556694D01*
X556638Y1074016D01*
X556280Y1074552D01*
X556196Y1074677D01*
X556096Y1075793D01*
X556223Y1075984D01*
X556538Y1076455D01*
X556594Y1076735D01*
X554654D01*
Y1077736D01*
X556594D01*
X556538Y1078016D01*
X556148Y1078599D01*
X556738Y1080355D01*
X556738Y1080355D01*
Y1080355D01*
D01*
X556740Y1080365D01*
Y1080365D01*
X556794Y1080636D01*
X554854D01*
Y1081135D01*
X554354D01*
Y1083075D01*
X554074Y1083019D01*
X554074Y1083019D01*
X553412Y1082577D01*
X553208Y1082272D01*
X553208D01*
D01*
X552237Y1082005D01*
X550856Y1082388D01*
X550738Y1082564D01*
X550596Y1082777D01*
X549934Y1083219D01*
X549934Y1083219D01*
X549654Y1083275D01*
D02*
G37*
G36*
X587554Y1073435D02*
X586114D01*
X586170Y1073155D01*
X586612Y1072493D01*
X587274Y1072052D01*
X587554Y1071996D01*
Y1073435D01*
D02*
G37*
G36*
X543554Y1083075D02*
Y1081635D01*
X544994D01*
X544957Y1081820D01*
X544957Y1081820D01*
X544938Y1081916D01*
X544938Y1081916D01*
X544938Y1081916D01*
X544851Y1082046D01*
X544836Y1082068D01*
X544726Y1082233D01*
X544700Y1082273D01*
X544611Y1082405D01*
X544496Y1082577D01*
X543834Y1083019D01*
X543834Y1083019D01*
X543554Y1083075D01*
D02*
G37*
G36*
X548654Y1083275D02*
X548374Y1083219D01*
X547712Y1082777D01*
X547270Y1082116D01*
X547214Y1081835D01*
X548654D01*
Y1083275D01*
D02*
G37*
G36*
X555354Y1083075D02*
Y1081635D01*
X556794D01*
X556738Y1081916D01*
X556738Y1081916D01*
X556738Y1081916D01*
X556511Y1082255D01*
X556508Y1082260D01*
X556508Y1082260D01*
X556296Y1082577D01*
X555634Y1083019D01*
X555634Y1083019D01*
X555354Y1083075D01*
D02*
G37*
G36*
X601694Y1073335D02*
X600254D01*
Y1071896D01*
X600534Y1071951D01*
X601196Y1072394D01*
X601638Y1073055D01*
X601694Y1073335D01*
D02*
G37*
G36*
X548654Y1072435D02*
X547214D01*
X547270Y1072155D01*
X547712Y1071494D01*
X548374Y1071052D01*
X548654Y1070996D01*
Y1072435D01*
D02*
G37*
G36*
X457554Y1091667D02*
X456930Y1091543D01*
X456401Y1091189D01*
X456047Y1090660D01*
X455923Y1090036D01*
X456047Y1089411D01*
X456401Y1088882D01*
X456930Y1088528D01*
X457554Y1088404D01*
X457712Y1088435D01*
X460635Y1085513D01*
Y1081336D01*
X460712Y1080945D01*
X460933Y1080614D01*
X468954Y1072593D01*
X468923Y1072435D01*
X469047Y1071811D01*
X469401Y1071282D01*
X469930Y1070928D01*
X470554Y1070804D01*
X471178Y1070928D01*
X471708Y1071282D01*
X472061Y1071811D01*
X472186Y1072435D01*
X472061Y1073060D01*
X471708Y1073589D01*
X471178Y1073943D01*
X470554Y1074067D01*
X470396Y1074035D01*
X462674Y1081758D01*
Y1085935D01*
X462596Y1086326D01*
X462375Y1086656D01*
X459154Y1089878D01*
X459186Y1090036D01*
X459061Y1090660D01*
X458708Y1091189D01*
X458178Y1091543D01*
X457554Y1091667D01*
D02*
G37*
G36*
X542354Y1072536D02*
X540914D01*
X540970Y1072255D01*
X541412Y1071593D01*
X542074Y1071152D01*
X542354Y1071096D01*
Y1072536D01*
D02*
G37*
G36*
X556694Y1072736D02*
X555254D01*
Y1071296D01*
X555535Y1071352D01*
X556196Y1071793D01*
X556638Y1072455D01*
X556694Y1072736D01*
D02*
G37*
G36*
X544794Y1072536D02*
X543354D01*
Y1071096D01*
X543635Y1071152D01*
X544296Y1071593D01*
X544738Y1072255D01*
X544794Y1072536D01*
D02*
G37*
G36*
X456654Y1023135D02*
X455214D01*
X455270Y1022855D01*
X455712Y1022194D01*
X456374Y1021751D01*
X456654Y1021696D01*
Y1023135D01*
D02*
G37*
G36*
X454054Y1013075D02*
Y1011635D01*
X455494D01*
X455438Y1011916D01*
X454996Y1012577D01*
X454334Y1013019D01*
X454054Y1013075D01*
D02*
G37*
G36*
X453054D02*
X452774Y1013019D01*
X452112Y1012577D01*
X451670Y1011916D01*
X451614Y1011635D01*
X453054D01*
Y1013075D01*
D02*
G37*
G36*
X529994Y1024835D02*
X528554D01*
Y1023396D01*
X528834Y1023452D01*
X529496Y1023894D01*
X529938Y1024555D01*
X529994Y1024835D01*
D02*
G37*
G36*
X527554D02*
X526114D01*
X526170Y1024555D01*
X526612Y1023894D01*
X527274Y1023452D01*
X527554Y1023396D01*
Y1024835D01*
D02*
G37*
G36*
X459094Y1023135D02*
X457654D01*
Y1021696D01*
X457935Y1021751D01*
X458596Y1022194D01*
X459038Y1022855D01*
X459094Y1023135D01*
D02*
G37*
G36*
X453054Y1010635D02*
X451614D01*
X451670Y1010355D01*
X452112Y1009694D01*
X452774Y1009251D01*
X453054Y1009196D01*
Y1010635D01*
D02*
G37*
G36*
X546818Y1009035D02*
X543854D01*
Y1006071D01*
X544268Y1006126D01*
X545119Y1006478D01*
X545850Y1007039D01*
X546411Y1007770D01*
X546764Y1008622D01*
X546818Y1009035D01*
D02*
G37*
G36*
X542854D02*
X539890D01*
X539944Y1008622D01*
X540297Y1007770D01*
X540858Y1007039D01*
X541589Y1006478D01*
X542440Y1006126D01*
X542854Y1006071D01*
Y1009035D01*
D02*
G37*
G36*
X543854Y1013000D02*
Y1010036D01*
X546818D01*
X546764Y1010449D01*
X546411Y1011301D01*
X545850Y1012032D01*
X545119Y1012593D01*
X544268Y1012945D01*
X543854Y1013000D01*
D02*
G37*
G36*
X542854D02*
X542440Y1012945D01*
X541589Y1012593D01*
X540858Y1012032D01*
X540297Y1011301D01*
X539944Y1010449D01*
X539890Y1010036D01*
X542854D01*
Y1013000D01*
D02*
G37*
G36*
X455494Y1010635D02*
X454054D01*
Y1009196D01*
X454334Y1009251D01*
X454996Y1009694D01*
X455438Y1010355D01*
X455494Y1010635D01*
D02*
G37*
G36*
X420154Y1038535D02*
X418714D01*
X418770Y1038255D01*
X419212Y1037593D01*
X419874Y1037152D01*
X420154Y1037096D01*
Y1038535D01*
D02*
G37*
G36*
X583354Y1030875D02*
Y1029436D01*
X584794D01*
X584738Y1029716D01*
X584296Y1030377D01*
X583635Y1030819D01*
X583354Y1030875D01*
D02*
G37*
G36*
X582354D02*
X582074Y1030819D01*
X581412Y1030377D01*
X580970Y1029716D01*
X580914Y1029436D01*
X582354D01*
Y1030875D01*
D02*
G37*
G36*
X421154Y1040975D02*
Y1039536D01*
X422594D01*
X422538Y1039816D01*
X422096Y1040477D01*
X421434Y1040919D01*
X421154Y1040975D01*
D02*
G37*
G36*
X420154D02*
X419874Y1040919D01*
X419212Y1040477D01*
X418770Y1039816D01*
X418714Y1039536D01*
X420154D01*
Y1040975D01*
D02*
G37*
G36*
X422594Y1038535D02*
X421154D01*
Y1037096D01*
X421434Y1037152D01*
X422096Y1037593D01*
X422538Y1038255D01*
X422594Y1038535D01*
D02*
G37*
G36*
X527554Y1027275D02*
X527274Y1027219D01*
X526612Y1026777D01*
X526170Y1026116D01*
X526114Y1025836D01*
X527554D01*
Y1027275D01*
D02*
G37*
G36*
X457654Y1025575D02*
Y1024135D01*
X459094D01*
X459038Y1024416D01*
X458596Y1025077D01*
X457935Y1025519D01*
X457654Y1025575D01*
D02*
G37*
G36*
X456654D02*
X456374Y1025519D01*
X455712Y1025077D01*
X455270Y1024416D01*
X455214Y1024135D01*
X456654D01*
Y1025575D01*
D02*
G37*
G36*
X584794Y1028436D02*
X583354D01*
Y1026996D01*
X583635Y1027052D01*
X584296Y1027493D01*
X584738Y1028155D01*
X584794Y1028436D01*
D02*
G37*
G36*
X582354D02*
X580914D01*
X580970Y1028155D01*
X581412Y1027493D01*
X582074Y1027052D01*
X582354Y1026996D01*
Y1028436D01*
D02*
G37*
G36*
X528554Y1027275D02*
Y1025836D01*
X529994D01*
X529938Y1026116D01*
X529496Y1026777D01*
X528834Y1027219D01*
X528554Y1027275D01*
D02*
G37*
G36*
X564812Y1128819D02*
X563884Y1128697D01*
X563020Y1128339D01*
X562278Y1127769D01*
X561708Y1127027D01*
X561350Y1126163D01*
X561228Y1125235D01*
X561350Y1124308D01*
X561708Y1123444D01*
X562278Y1122702D01*
X563020Y1122132D01*
X563884Y1121774D01*
X564812Y1121652D01*
X565739Y1121774D01*
X566603Y1122132D01*
X567345Y1122702D01*
X567915Y1123444D01*
X568273Y1124308D01*
X568395Y1125235D01*
X568273Y1126163D01*
X567915Y1127027D01*
X567345Y1127769D01*
X566603Y1128339D01*
X565739Y1128697D01*
X564812Y1128819D01*
D02*
G37*
G36*
X554969D02*
X554042Y1128697D01*
X553177Y1128339D01*
X552435Y1127769D01*
X551866Y1127027D01*
X551508Y1126163D01*
X551386Y1125235D01*
X551508Y1124308D01*
X551866Y1123444D01*
X552435Y1122702D01*
X553177Y1122132D01*
X554042Y1121774D01*
X554969Y1121652D01*
X555897Y1121774D01*
X556761Y1122132D01*
X557503Y1122702D01*
X558072Y1123444D01*
X558430Y1124308D01*
X558553Y1125235D01*
X558430Y1126163D01*
X558072Y1127027D01*
X557503Y1127769D01*
X556761Y1128339D01*
X555897Y1128697D01*
X554969Y1128819D01*
D02*
G37*
G36*
X574654D02*
X573727Y1128697D01*
X572862Y1128339D01*
X572120Y1127769D01*
X571551Y1127027D01*
X571193Y1126163D01*
X571071Y1125235D01*
X571193Y1124308D01*
X571551Y1123444D01*
X572120Y1122702D01*
X572862Y1122132D01*
X573727Y1121774D01*
X574654Y1121652D01*
X575582Y1121774D01*
X576446Y1122132D01*
X577188Y1122702D01*
X577757Y1123444D01*
X578115Y1124308D01*
X578237Y1125235D01*
X578115Y1126163D01*
X577757Y1127027D01*
X577188Y1127769D01*
X576446Y1128339D01*
X575582Y1128697D01*
X574654Y1128819D01*
D02*
G37*
G36*
X588049Y1128788D02*
X580944D01*
Y1121683D01*
X588049D01*
Y1128788D01*
D02*
G37*
G36*
X538049D02*
X530944D01*
Y1121683D01*
X538049D01*
Y1128788D01*
D02*
G37*
G36*
X528575Y1124735D02*
X525154D01*
Y1121314D01*
X525686Y1121384D01*
X526648Y1121783D01*
X527473Y1122416D01*
X528107Y1123242D01*
X528505Y1124204D01*
X528575Y1124735D01*
D02*
G37*
G36*
X499254Y1118475D02*
Y1117035D01*
X500694D01*
X500638Y1117316D01*
X500196Y1117977D01*
X499535Y1118419D01*
X499254Y1118475D01*
D02*
G37*
G36*
X498254D02*
X497974Y1118419D01*
X497312Y1117977D01*
X496870Y1117316D01*
X496814Y1117035D01*
X498254D01*
Y1118475D01*
D02*
G37*
G36*
X418454Y1119475D02*
X418174Y1119419D01*
X417512Y1118977D01*
X417070Y1118316D01*
X417014Y1118036D01*
X418454D01*
Y1119475D01*
D02*
G37*
G36*
X524154Y1124735D02*
X520733D01*
X520803Y1124204D01*
X521201Y1123242D01*
X521835Y1122416D01*
X522661Y1121783D01*
X523622Y1121384D01*
X524154Y1121314D01*
Y1124735D01*
D02*
G37*
G36*
X419454Y1119475D02*
Y1118036D01*
X420894D01*
X420838Y1118316D01*
X420396Y1118977D01*
X419734Y1119419D01*
X419454Y1119475D01*
D02*
G37*
G36*
X498154Y1124936D02*
X496714D01*
X496770Y1124655D01*
X497212Y1123993D01*
X497874Y1123551D01*
X498154Y1123496D01*
Y1124936D01*
D02*
G37*
G36*
X442694Y1149236D02*
X441254D01*
Y1147796D01*
X441535Y1147851D01*
X442196Y1148293D01*
X442638Y1148955D01*
X442694Y1149236D01*
D02*
G37*
G36*
X440254D02*
X438814D01*
X438870Y1148955D01*
X439312Y1148293D01*
X439974Y1147851D01*
X440254Y1147796D01*
Y1149236D01*
D02*
G37*
G36*
X473746Y1157143D02*
X472821Y1156959D01*
X472036Y1156435D01*
X471512Y1155651D01*
X471328Y1154725D01*
Y1151969D01*
X471512Y1151044D01*
X472036Y1150259D01*
X472821Y1149735D01*
X473746Y1149551D01*
X474672Y1149735D01*
X475456Y1150259D01*
X475980Y1151044D01*
X476164Y1151969D01*
Y1154725D01*
X475980Y1155651D01*
X475456Y1156435D01*
X474672Y1156959D01*
X473746Y1157143D01*
D02*
G37*
G36*
X441254Y1151675D02*
Y1150235D01*
X442694D01*
X442638Y1150516D01*
X442196Y1151177D01*
X441535Y1151619D01*
X441254Y1151675D01*
D02*
G37*
G36*
X440254D02*
X439974Y1151619D01*
X439312Y1151177D01*
X438870Y1150516D01*
X438814Y1150235D01*
X440254D01*
Y1151675D01*
D02*
G37*
G36*
X447762Y1157143D02*
X446837Y1156959D01*
X446052Y1156435D01*
X445528Y1155651D01*
X445344Y1154725D01*
Y1151969D01*
X445528Y1151044D01*
X445533Y1151037D01*
Y1136310D01*
X445501Y1136289D01*
X445147Y1135760D01*
X445023Y1135135D01*
X445147Y1134511D01*
X445501Y1133982D01*
X446030Y1133628D01*
X446654Y1133504D01*
X447278Y1133628D01*
X447808Y1133982D01*
X448161Y1134511D01*
X448285Y1135135D01*
X448161Y1135760D01*
X447808Y1136289D01*
X447776Y1136310D01*
Y1149554D01*
X448687Y1149735D01*
X449472Y1150259D01*
X449996Y1151044D01*
X450180Y1151969D01*
Y1154725D01*
X449996Y1155651D01*
X449472Y1156435D01*
X448687Y1156959D01*
X447762Y1157143D01*
D02*
G37*
G36*
X524154Y1129156D02*
X523622Y1129086D01*
X522661Y1128688D01*
X521835Y1128055D01*
X521201Y1127229D01*
X520803Y1126267D01*
X520733Y1125735D01*
X524154D01*
Y1129156D01*
D02*
G37*
G36*
X500594Y1124936D02*
X499154D01*
Y1123496D01*
X499435Y1123551D01*
X500096Y1123993D01*
X500538Y1124655D01*
X500594Y1124936D01*
D02*
G37*
G36*
X525154Y1129156D02*
Y1125735D01*
X528575D01*
X528505Y1126267D01*
X528107Y1127229D01*
X527473Y1128055D01*
X526648Y1128688D01*
X525686Y1129086D01*
X525154Y1129156D01*
D02*
G37*
G36*
X499154Y1127375D02*
Y1125935D01*
X500594D01*
X500538Y1126216D01*
X500096Y1126877D01*
X499435Y1127319D01*
X499154Y1127375D01*
D02*
G37*
G36*
X498154D02*
X497874Y1127319D01*
X497212Y1126877D01*
X496770Y1126216D01*
X496714Y1125935D01*
X498154D01*
Y1127375D01*
D02*
G37*
G36*
X420554Y1108467D02*
X419930Y1108343D01*
X419401Y1107989D01*
X419047Y1107460D01*
X418923Y1106835D01*
X419047Y1106211D01*
X419401Y1105682D01*
X419930Y1105328D01*
X420554Y1105204D01*
X420832Y1105260D01*
X427005Y1099087D01*
X427303Y1098888D01*
X427654Y1098818D01*
X429643D01*
X429801Y1098582D01*
X430330Y1098228D01*
X430954Y1098104D01*
X431578Y1098228D01*
X432108Y1098582D01*
X432461Y1099111D01*
X432585Y1099736D01*
X432461Y1100360D01*
X432108Y1100889D01*
X431578Y1101243D01*
X430954Y1101367D01*
X430330Y1101243D01*
X429801Y1100889D01*
X429643Y1100653D01*
X428034D01*
X422130Y1106557D01*
X422186Y1106835D01*
X422061Y1107460D01*
X421708Y1107989D01*
X421178Y1108343D01*
X420554Y1108467D01*
D02*
G37*
G36*
X413094Y1097336D02*
X411654D01*
Y1095896D01*
X411935Y1095951D01*
X412596Y1096393D01*
X413038Y1097055D01*
X413094Y1097336D01*
D02*
G37*
G36*
X410654Y1099775D02*
X410374Y1099719D01*
X409712Y1099277D01*
X409270Y1098616D01*
X409214Y1098335D01*
X410654D01*
Y1099775D01*
D02*
G37*
G36*
X452854Y1106567D02*
X452230Y1106443D01*
X451701Y1106089D01*
X451347Y1105560D01*
X451223Y1104935D01*
X451278Y1104657D01*
X441774Y1095153D01*
X422565D01*
X422408Y1095389D01*
X421878Y1095743D01*
X421254Y1095867D01*
X420630Y1095743D01*
X420101Y1095389D01*
X419747Y1094860D01*
X419623Y1094236D01*
X419747Y1093611D01*
X420101Y1093082D01*
X420630Y1092728D01*
X421254Y1092604D01*
X421878Y1092728D01*
X422408Y1093082D01*
X422565Y1093318D01*
X442154D01*
X442505Y1093388D01*
X442803Y1093587D01*
X452576Y1103360D01*
X452854Y1103304D01*
X453478Y1103428D01*
X454008Y1103782D01*
X454361Y1104311D01*
X454486Y1104935D01*
X454361Y1105560D01*
X454008Y1106089D01*
X453478Y1106443D01*
X452854Y1106567D01*
D02*
G37*
G36*
X411654Y1099775D02*
Y1098335D01*
X413094D01*
X413038Y1098616D01*
X412596Y1099277D01*
X411935Y1099719D01*
X411654Y1099775D01*
D02*
G37*
G36*
X410654Y1097336D02*
X409214D01*
X409270Y1097055D01*
X409712Y1096393D01*
X410374Y1095951D01*
X410654Y1095896D01*
Y1097336D01*
D02*
G37*
G36*
X587454Y1084075D02*
X587174Y1084019D01*
X587174Y1084019D01*
X586512Y1083577D01*
X586300Y1083260D01*
Y1083260D01*
X586297Y1083255D01*
X586070Y1082916D01*
X586070Y1082916D01*
X586070Y1082916D01*
X586014Y1082635D01*
X587454D01*
Y1084075D01*
D02*
G37*
G36*
X542554Y1083075D02*
X542274Y1083019D01*
X541612Y1082577D01*
X541270Y1082066D01*
Y1082066D01*
X541170Y1081916D01*
Y1081916D01*
X541114Y1081635D01*
X542554D01*
Y1083075D01*
D02*
G37*
G36*
X594354Y1084575D02*
Y1082635D01*
X593354D01*
Y1084575D01*
X593074Y1084519D01*
X592412Y1084077D01*
X592374Y1084020D01*
X591988Y1083443D01*
X591967Y1083413D01*
X591828Y1083288D01*
X589453Y1083511D01*
X589396Y1083577D01*
X589326Y1083624D01*
X589023Y1083827D01*
X588734Y1084019D01*
X588454Y1084075D01*
Y1082135D01*
X587954D01*
Y1081635D01*
X586014D01*
X586070Y1081355D01*
Y1081355D01*
X586070D01*
X586070Y1081355D01*
D01*
X586391Y1080035D01*
X586070Y1078716D01*
D01*
Y1078716D01*
Y1078716D01*
X586014Y1078436D01*
X587954D01*
Y1077435D01*
X586014D01*
X586070Y1077155D01*
X586070Y1077155D01*
X586070Y1077155D01*
X586297Y1076816D01*
X586300Y1076811D01*
X586248Y1074833D01*
X586170Y1074716D01*
X586114Y1074436D01*
X588054D01*
Y1073936D01*
X588554D01*
Y1071996D01*
X588834Y1072052D01*
X588835Y1072052D01*
X589496Y1072493D01*
X589603Y1072653D01*
X589683Y1072773D01*
X589683D01*
X590961Y1072998D01*
X592235Y1072659D01*
X592311Y1072544D01*
X592412Y1072394D01*
X593074Y1071951D01*
X593074Y1071951D01*
X593354Y1071896D01*
Y1073835D01*
X594354D01*
Y1071896D01*
X594634Y1071951D01*
X595296Y1072394D01*
X595396Y1072543D01*
X595657Y1072934D01*
X595718Y1073025D01*
X595738Y1073048D01*
X596804Y1073166D01*
X597875Y1073048D01*
X598018Y1072834D01*
X598212Y1072543D01*
X598312Y1072394D01*
X598974Y1071951D01*
X599254Y1071896D01*
Y1073835D01*
X599754D01*
Y1074335D01*
X601694D01*
X601670Y1074454D01*
X601638Y1074616D01*
X601537Y1075283D01*
X601448Y1076113D01*
X601753Y1077128D01*
X601837Y1077254D01*
X601838Y1077255D01*
X601894Y1077536D01*
X599954D01*
Y1078535D01*
X601894D01*
X601838Y1078816D01*
X601643Y1080165D01*
X601639Y1081134D01*
X601684Y1081369D01*
X601795Y1081936D01*
X599854D01*
Y1082436D01*
X599354D01*
Y1084375D01*
X599074Y1084319D01*
X598785Y1084126D01*
X598483Y1083924D01*
X598412Y1083877D01*
X598298Y1083754D01*
D01*
X597907Y1083330D01*
X597645Y1083106D01*
X597108Y1082924D01*
X597068Y1082911D01*
X596858Y1082840D01*
X596774Y1082812D01*
X596496Y1082974D01*
X596314Y1083080D01*
X595924Y1083308D01*
X595643Y1083599D01*
X595472Y1083834D01*
X595296Y1084077D01*
X595192Y1084147D01*
X594929Y1084323D01*
X594634Y1084519D01*
X594354Y1084575D01*
D02*
G37*
G36*
X448654Y1088535D02*
X447214D01*
X447270Y1088255D01*
X447712Y1087593D01*
X448374Y1087152D01*
X448654Y1087096D01*
Y1088535D01*
D02*
G37*
G36*
X600354Y1084375D02*
Y1082936D01*
X601794D01*
X601738Y1083216D01*
Y1083216D01*
X601532Y1083524D01*
X601529Y1083529D01*
X601529D01*
X601296Y1083877D01*
X600634Y1084319D01*
X600634Y1084319D01*
X600354Y1084375D01*
D02*
G37*
G36*
X582954Y1105735D02*
X581514D01*
X581570Y1105455D01*
X582012Y1104793D01*
X582674Y1104352D01*
X582954Y1104296D01*
Y1105735D01*
D02*
G37*
G36*
X500951Y1116035D02*
X499254D01*
Y1114339D01*
X499654Y1114259D01*
X500181Y1114364D01*
X500627Y1114662D01*
X500926Y1115109D01*
X501031Y1115635D01*
X500951Y1116035D01*
D02*
G37*
G36*
X552056Y1111573D02*
Y1110133D01*
X553496D01*
X553440Y1110414D01*
X552998Y1111075D01*
X552337Y1111517D01*
X552056Y1111573D01*
D02*
G37*
G36*
X498254Y1116035D02*
X496814D01*
X496870Y1115755D01*
X497312Y1115094D01*
X497974Y1114651D01*
X498254Y1114596D01*
Y1116035D01*
D02*
G37*
G36*
X420894Y1117035D02*
X419454D01*
Y1115596D01*
X419734Y1115652D01*
X420396Y1116094D01*
X420838Y1116755D01*
X420894Y1117035D01*
D02*
G37*
G36*
X418454D02*
X417014D01*
X417070Y1116755D01*
X417512Y1116094D01*
X418174Y1115652D01*
X418454Y1115596D01*
Y1117035D01*
D02*
G37*
G36*
X551056Y1111573D02*
X550776Y1111517D01*
X550114Y1111075D01*
X549672Y1110414D01*
X549616Y1110133D01*
X551056D01*
Y1111573D01*
D02*
G37*
G36*
X582954Y1108175D02*
X582674Y1108119D01*
X582012Y1107677D01*
X581570Y1107016D01*
X581514Y1106736D01*
X582954D01*
Y1108175D01*
D02*
G37*
G36*
X585394Y1105735D02*
X583954D01*
Y1104296D01*
X584235Y1104352D01*
X584896Y1104793D01*
X585338Y1105455D01*
X585394Y1105735D01*
D02*
G37*
G36*
X583954Y1108175D02*
Y1106736D01*
X585394D01*
X585338Y1107016D01*
X584896Y1107677D01*
X584235Y1108119D01*
X583954Y1108175D01*
D02*
G37*
G36*
X553496Y1109134D02*
X552056D01*
Y1107694D01*
X552337Y1107749D01*
X552998Y1108191D01*
X553440Y1108853D01*
X553496Y1109134D01*
D02*
G37*
G36*
X551056D02*
X549616D01*
X549672Y1108853D01*
X550114Y1108191D01*
X550776Y1107749D01*
X551056Y1107694D01*
Y1109134D01*
D02*
G37*
%LPD*%
D29*
X507901Y1103535D02*
D03*
X513807D02*
D03*
D35*
X508854Y1076136D02*
X509286Y1075703D01*
X510469D01*
X556654Y1028636D02*
X559354Y1025935D01*
X539554Y1028636D02*
X556654D01*
X528754Y1039435D02*
X539554Y1028636D01*
X508454Y1055836D02*
X520754D01*
X510469Y1075703D02*
X511054Y1075118D01*
Y1072589D02*
Y1075118D01*
Y1072589D02*
X511195Y1072449D01*
X511101Y1099335D02*
X511601Y1099835D01*
X501754Y1099335D02*
X511101D01*
X497454Y1095035D02*
X501754Y1099335D01*
X490754Y1095035D02*
X497454D01*
X454254Y1093635D02*
X454854D01*
X452954Y1092336D02*
X454254Y1093635D01*
X452954Y1085135D02*
Y1092336D01*
X443154Y1075336D02*
X452954Y1085135D01*
X443154Y1048236D02*
Y1075336D01*
X457554Y1090036D02*
X461654Y1085935D01*
Y1081336D02*
Y1085935D01*
Y1081336D02*
X470554Y1072435D01*
X508954Y1063336D02*
X514954D01*
X521431Y1069812D01*
Y1072449D01*
X513754D02*
Y1074736D01*
X507754Y1080735D02*
X513754Y1074736D01*
X497454Y1086635D02*
X499754Y1084336D01*
X495054Y1086635D02*
X497454D01*
X494254Y1087436D02*
X495054Y1086635D01*
X497954Y1080735D02*
X507754D01*
X492154Y1080136D02*
Y1083235D01*
Y1080136D02*
X505254Y1067035D01*
X515654D01*
X518872Y1070253D01*
Y1072449D01*
X499754Y1084336D02*
X510454D01*
X516313Y1078477D01*
Y1072449D02*
Y1078477D01*
X513754Y1095422D02*
X516313D01*
X507901Y1103535D02*
X511601Y1099835D01*
X512754D01*
X513754Y1098835D01*
Y1095422D02*
Y1098835D01*
D38*
X543354Y1009536D02*
X543454D01*
X498754Y1116535D02*
X499654Y1115635D01*
X518872Y1095422D02*
Y1100817D01*
X516154Y1103535D02*
X518872Y1100817D01*
X513807Y1103535D02*
X516154D01*
D40*
X427654Y1099736D02*
X430954D01*
X420554Y1106835D02*
X427654Y1099736D01*
X510412Y1120835D02*
X514812Y1125235D01*
X475554Y1120835D02*
X510412D01*
X447954Y1093235D02*
X475554Y1120835D01*
X421254Y1094236D02*
X442154D01*
X452854Y1104935D01*
D41*
X541917Y1034136D02*
X559154D01*
X531717Y1044335D02*
X541917Y1034136D01*
X529154Y1044335D02*
X531717D01*
X526854Y1046636D02*
X529154Y1044335D01*
X542354Y1031435D02*
X560854D01*
X531054Y1042735D02*
X542354Y1031435D01*
X470254Y1042735D02*
X531054D01*
X475154Y1046636D02*
X526854D01*
X555754Y1052335D02*
X564354Y1060935D01*
X500354Y1052335D02*
X555754D01*
X478854Y1073835D02*
X500354Y1052335D01*
X477454Y1050636D02*
X558254D01*
X457554Y1070535D02*
X477454Y1050636D01*
X558254D02*
X564354Y1056736D01*
X504391Y1058436D02*
X546224D01*
X503491Y1059336D02*
X504391Y1058436D01*
X546224D02*
X547124Y1059336D01*
X548454D01*
X498054D02*
X503491D01*
X548454D02*
X549654Y1060536D01*
X482054Y1075336D02*
X498054Y1059336D01*
X504954Y1060135D02*
X544954D01*
X480154Y1111835D02*
X485054Y1106936D01*
Y1093435D02*
Y1106936D01*
Y1093435D02*
X488654Y1089835D01*
Y1076435D02*
Y1089835D01*
Y1076435D02*
X504954Y1060135D01*
X482054Y1075336D02*
Y1088735D01*
X478854Y1073835D02*
Y1099236D01*
X457954Y1048135D02*
X466754Y1039336D01*
X510514D01*
X544954Y1060135D02*
X545354Y1060536D01*
X450154Y1072935D02*
X459254Y1063836D01*
Y1053736D02*
Y1063836D01*
Y1053736D02*
X470254Y1042735D01*
X560854Y1031435D02*
X567954Y1038535D01*
X596454D01*
X609654Y1051735D01*
X462054Y1059735D02*
X475154Y1046636D01*
X559154Y1034136D02*
X560854Y1035835D01*
Y1047836D01*
X456954Y1083235D02*
X457554Y1082635D01*
Y1070535D02*
Y1082635D01*
X564354Y1056736D02*
X593854D01*
X473754Y1109636D02*
Y1114235D01*
Y1109636D02*
X480254Y1103135D01*
Y1100636D02*
Y1103135D01*
X478854Y1099236D02*
X480254Y1100636D01*
X564354Y1060935D02*
X591154D01*
X446654Y1152239D02*
X447762Y1153347D01*
X446654Y1135135D02*
Y1152239D01*
D43*
X612154Y1021935D02*
D03*
X414368Y1021904D02*
D03*
X613140Y1145920D02*
D03*
X414368D02*
D03*
D44*
X447762Y1153347D02*
D03*
X473746D02*
D03*
D45*
X554969Y1125235D02*
D03*
X574654D02*
D03*
X564812D02*
D03*
X524654D02*
D03*
X514812D02*
D03*
D46*
X584497D02*
D03*
X534497D02*
D03*
D47*
X559354Y1025935D02*
D03*
X528754Y1039435D02*
D03*
X520754Y1055836D02*
D03*
X508454D02*
D03*
X449154Y1089036D02*
D03*
X440754Y1149736D02*
D03*
X498654Y1125436D02*
D03*
X498754Y1116535D02*
D03*
X480254Y1067136D02*
D03*
X457154Y1023635D02*
D03*
X449854Y1063235D02*
D03*
X420654Y1039036D02*
D03*
X430454Y1061736D02*
D03*
X418954Y1117535D02*
D03*
X411154Y1097836D02*
D03*
X453554Y1011135D02*
D03*
X430954Y1099736D02*
D03*
X420554Y1106835D02*
D03*
X447954Y1093235D02*
D03*
X490754Y1095035D02*
D03*
X454854Y1093635D02*
D03*
X443154Y1048236D02*
D03*
X421254Y1094236D02*
D03*
X452854Y1104935D02*
D03*
X480154Y1111835D02*
D03*
X457954Y1048135D02*
D03*
X510514Y1039336D02*
D03*
X528054Y1025336D02*
D03*
X593854Y1082635D02*
D03*
X548854Y1077135D02*
D03*
X549154Y1072935D02*
D03*
Y1081336D02*
D03*
X554654Y1077236D02*
D03*
X542954Y1077036D02*
D03*
X542854Y1073036D02*
D03*
X554754Y1073236D02*
D03*
X554854Y1081135D02*
D03*
X543054D02*
D03*
X587954Y1077936D02*
D03*
X599954Y1078036D02*
D03*
X593754D02*
D03*
X599854Y1082436D02*
D03*
X599754Y1073835D02*
D03*
X593854D02*
D03*
X588054Y1073936D02*
D03*
X587954Y1082135D02*
D03*
X545354Y1060536D02*
D03*
X582854Y1028936D02*
D03*
X583454Y1106236D02*
D03*
X551556Y1109634D02*
D03*
X450154Y1072935D02*
D03*
X609654Y1051735D02*
D03*
X462054Y1059735D02*
D03*
X560854Y1047836D02*
D03*
X457554Y1090036D02*
D03*
X470554Y1072435D02*
D03*
X508954Y1063336D02*
D03*
X482054Y1088735D02*
D03*
X494254Y1087436D02*
D03*
X497954Y1080735D02*
D03*
X492154Y1083235D02*
D03*
X456954D02*
D03*
X593854Y1056736D02*
D03*
X473754Y1114235D02*
D03*
X591154Y1060935D02*
D03*
X549654Y1060536D02*
D03*
X446654Y1135135D02*
D03*
D48*
X543354Y1009536D02*
D03*
D49*
X521431Y1072449D02*
D03*
X518872D02*
D03*
X516313D02*
D03*
X513754D02*
D03*
X511195D02*
D03*
X508636D02*
D03*
X506077D02*
D03*
Y1095422D02*
D03*
X508636D02*
D03*
X511195D02*
D03*
X513754D02*
D03*
X516313D02*
D03*
X518872D02*
D03*
X521431D02*
D03*
M02*
