G04 Layer_Color=13948096*
%FSLAX25Y25*%
%MOIN*%
G70*
G01*
G75*
%ADD40C,0.00600*%
%ADD41C,0.01000*%
%ADD88C,0.00039*%
G36*
X590437Y1144336D02*
X590531Y1144329D01*
X590625Y1144316D01*
X590712Y1144300D01*
X590793Y1144281D01*
X590871Y1144258D01*
X590942Y1144235D01*
X591007Y1144213D01*
X591066Y1144187D01*
X591121Y1144164D01*
X591166Y1144141D01*
X591202Y1144122D01*
X591234Y1144106D01*
X591253Y1144093D01*
X591270Y1144086D01*
X591273Y1144083D01*
X591344Y1144031D01*
X591412Y1143976D01*
X591477Y1143915D01*
X591538Y1143850D01*
X591597Y1143785D01*
X591649Y1143720D01*
X591697Y1143655D01*
X591739Y1143591D01*
X591778Y1143529D01*
X591814Y1143474D01*
X591843Y1143422D01*
X591866Y1143377D01*
X591885Y1143341D01*
X591901Y1143312D01*
X591908Y1143296D01*
X591911Y1143289D01*
X591953Y1143186D01*
X591992Y1143082D01*
X592025Y1142972D01*
X592050Y1142865D01*
X592076Y1142758D01*
X592096Y1142654D01*
X592112Y1142551D01*
X592125Y1142457D01*
X592135Y1142366D01*
X592141Y1142285D01*
X592148Y1142210D01*
X592151Y1142149D01*
Y1142120D01*
Y1142097D01*
X592154Y1142074D01*
Y1142058D01*
Y1142045D01*
Y1142035D01*
Y1142029D01*
Y1142026D01*
X592151Y1141896D01*
X592144Y1141770D01*
X592131Y1141647D01*
X592115Y1141533D01*
X592099Y1141426D01*
X592076Y1141326D01*
X592054Y1141232D01*
X592031Y1141148D01*
X592008Y1141070D01*
X591989Y1141002D01*
X591966Y1140940D01*
X591950Y1140892D01*
X591934Y1140853D01*
X591921Y1140824D01*
X591914Y1140808D01*
X591911Y1140801D01*
X591862Y1140707D01*
X591814Y1140623D01*
X591759Y1140542D01*
X591707Y1140464D01*
X591652Y1140396D01*
X591597Y1140331D01*
X591542Y1140276D01*
X591490Y1140224D01*
X591441Y1140179D01*
X591396Y1140137D01*
X591357Y1140104D01*
X591321Y1140075D01*
X591292Y1140056D01*
X591273Y1140040D01*
X591257Y1140030D01*
X591253Y1140027D01*
X591172Y1139981D01*
X591091Y1139939D01*
X591010Y1139904D01*
X590929Y1139874D01*
X590848Y1139848D01*
X590771Y1139826D01*
X590693Y1139810D01*
X590622Y1139793D01*
X590554Y1139784D01*
X590495Y1139774D01*
X590440Y1139771D01*
X590395Y1139764D01*
X590356D01*
X590327Y1139761D01*
X590304D01*
X590230Y1139764D01*
X590155Y1139767D01*
X590016Y1139787D01*
X589948Y1139800D01*
X589883Y1139816D01*
X589825Y1139832D01*
X589766Y1139848D01*
X589714Y1139861D01*
X589669Y1139878D01*
X589630Y1139894D01*
X589595Y1139907D01*
X589565Y1139917D01*
X589546Y1139926D01*
X589533Y1139929D01*
X589530Y1139933D01*
X589458Y1139968D01*
X589390Y1140004D01*
X589254Y1140088D01*
X589193Y1140130D01*
X589131Y1140172D01*
X589073Y1140218D01*
X589021Y1140257D01*
X588972Y1140296D01*
X588930Y1140334D01*
X588891Y1140367D01*
X588859Y1140396D01*
X588833Y1140419D01*
X588814Y1140435D01*
X588801Y1140448D01*
X588798Y1140451D01*
Y1142097D01*
X590333Y1142094D01*
Y1141572D01*
X589267D01*
Y1140746D01*
X589339Y1140678D01*
X589416Y1140616D01*
X589497Y1140561D01*
X589572Y1140513D01*
X589607Y1140493D01*
X589640Y1140474D01*
X589669Y1140461D01*
X589695Y1140448D01*
X589714Y1140435D01*
X589731Y1140428D01*
X589740Y1140425D01*
X589744Y1140422D01*
X589854Y1140376D01*
X589957Y1140344D01*
X590058Y1140322D01*
X590103Y1140312D01*
X590145Y1140305D01*
X590184Y1140299D01*
X590217Y1140296D01*
X590249Y1140292D01*
X590275D01*
X590294Y1140289D01*
X590323D01*
X590430Y1140296D01*
X590534Y1140308D01*
X590631Y1140331D01*
X590725Y1140357D01*
X590809Y1140393D01*
X590891Y1140428D01*
X590962Y1140467D01*
X591030Y1140509D01*
X591088Y1140551D01*
X591140Y1140590D01*
X591185Y1140626D01*
X591221Y1140662D01*
X591250Y1140688D01*
X591273Y1140710D01*
X591286Y1140726D01*
X591289Y1140730D01*
X591354Y1140817D01*
X591412Y1140914D01*
X591461Y1141018D01*
X591503Y1141125D01*
X591538Y1141235D01*
X591568Y1141345D01*
X591594Y1141455D01*
X591613Y1141562D01*
X591626Y1141663D01*
X591639Y1141757D01*
X591645Y1141841D01*
X591649Y1141880D01*
X591652Y1141916D01*
X591655Y1141948D01*
Y1141977D01*
X591658Y1142003D01*
Y1142023D01*
Y1142039D01*
Y1142052D01*
Y1142058D01*
Y1142061D01*
X591655Y1142168D01*
X591652Y1142269D01*
X591642Y1142369D01*
X591633Y1142460D01*
X591619Y1142547D01*
X591603Y1142628D01*
X591587Y1142703D01*
X591571Y1142771D01*
X591558Y1142832D01*
X591542Y1142887D01*
X591526Y1142936D01*
X591513Y1142975D01*
X591503Y1143004D01*
X591493Y1143027D01*
X591490Y1143043D01*
X591487Y1143046D01*
X591451Y1143121D01*
X591415Y1143189D01*
X591380Y1143250D01*
X591341Y1143312D01*
X591302Y1143364D01*
X591263Y1143412D01*
X591227Y1143458D01*
X591192Y1143497D01*
X591156Y1143532D01*
X591127Y1143561D01*
X591098Y1143587D01*
X591075Y1143607D01*
X591052Y1143623D01*
X591040Y1143633D01*
X591030Y1143639D01*
X591027Y1143643D01*
X590972Y1143678D01*
X590916Y1143707D01*
X590858Y1143733D01*
X590800Y1143756D01*
X590741Y1143775D01*
X590686Y1143788D01*
X590631Y1143801D01*
X590580Y1143814D01*
X590531Y1143821D01*
X590485Y1143827D01*
X590447Y1143830D01*
X590411Y1143834D01*
X590385Y1143837D01*
X590346D01*
X590249Y1143834D01*
X590158Y1143821D01*
X590074Y1143804D01*
X590003Y1143785D01*
X589970Y1143772D01*
X589944Y1143762D01*
X589919Y1143756D01*
X589899Y1143746D01*
X589883Y1143740D01*
X589870Y1143733D01*
X589863Y1143730D01*
X589860D01*
X589782Y1143688D01*
X589711Y1143639D01*
X589653Y1143591D01*
X589601Y1143545D01*
X589562Y1143503D01*
X589530Y1143468D01*
X589520Y1143458D01*
X589513Y1143448D01*
X589507Y1143442D01*
Y1143438D01*
X589481Y1143403D01*
X589458Y1143361D01*
X589416Y1143273D01*
X589377Y1143182D01*
X589348Y1143092D01*
X589332Y1143050D01*
X589322Y1143007D01*
X589309Y1142972D01*
X589303Y1142943D01*
X589296Y1142917D01*
X589290Y1142897D01*
X589287Y1142884D01*
Y1142881D01*
X588856Y1143027D01*
X588875Y1143114D01*
X588895Y1143195D01*
X588917Y1143270D01*
X588943Y1143341D01*
X588966Y1143409D01*
X588992Y1143471D01*
X589015Y1143526D01*
X589037Y1143574D01*
X589060Y1143620D01*
X589079Y1143659D01*
X589099Y1143691D01*
X589115Y1143720D01*
X589128Y1143740D01*
X589138Y1143756D01*
X589144Y1143766D01*
X589147Y1143769D01*
X589225Y1143866D01*
X589306Y1143950D01*
X589387Y1144022D01*
X589465Y1144083D01*
X589504Y1144106D01*
X589536Y1144129D01*
X589565Y1144148D01*
X589591Y1144164D01*
X589611Y1144174D01*
X589627Y1144184D01*
X589637Y1144187D01*
X589640Y1144190D01*
X589698Y1144216D01*
X589756Y1144239D01*
X589873Y1144277D01*
X589990Y1144303D01*
X590048Y1144313D01*
X590100Y1144320D01*
X590149Y1144326D01*
X590194Y1144333D01*
X590236Y1144336D01*
X590268D01*
X590298Y1144339D01*
X590337D01*
X590437Y1144336D01*
D02*
G37*
G36*
X530753Y1139835D02*
X530257D01*
X528844Y1144261D01*
X529330D01*
X530312Y1141044D01*
X530351Y1140911D01*
X530390Y1140778D01*
X530422Y1140658D01*
X530435Y1140600D01*
X530452Y1140548D01*
X530465Y1140500D01*
X530474Y1140454D01*
X530484Y1140415D01*
X530490Y1140383D01*
X530497Y1140357D01*
X530503Y1140338D01*
X530507Y1140325D01*
Y1140322D01*
X530539Y1140454D01*
X530571Y1140581D01*
X530604Y1140704D01*
X530617Y1140762D01*
X530633Y1140814D01*
X530646Y1140862D01*
X530659Y1140908D01*
X530669Y1140947D01*
X530678Y1140979D01*
X530688Y1141008D01*
X530691Y1141028D01*
X530698Y1141041D01*
Y1141044D01*
X531641Y1144261D01*
X532162D01*
X530753Y1139835D01*
D02*
G37*
G36*
X545877Y1141702D02*
Y1141601D01*
X545874Y1141507D01*
X545867Y1141413D01*
X545861Y1141326D01*
X545855Y1141242D01*
X545845Y1141161D01*
X545832Y1141083D01*
X545822Y1141008D01*
X545809Y1140937D01*
X545793Y1140869D01*
X545780Y1140808D01*
X545764Y1140746D01*
X545748Y1140688D01*
X545731Y1140636D01*
X545715Y1140584D01*
X545699Y1140539D01*
X545667Y1140454D01*
X545634Y1140380D01*
X545602Y1140322D01*
X545576Y1140273D01*
X545553Y1140234D01*
X545537Y1140208D01*
X545524Y1140195D01*
X545521Y1140189D01*
X545449Y1140114D01*
X545372Y1140046D01*
X545291Y1139991D01*
X545203Y1139942D01*
X545113Y1139900D01*
X545025Y1139865D01*
X544938Y1139839D01*
X544850Y1139816D01*
X544769Y1139797D01*
X544695Y1139784D01*
X544627Y1139774D01*
X544565Y1139767D01*
X544516Y1139764D01*
X544497D01*
X544481Y1139761D01*
X544448D01*
X544354Y1139764D01*
X544264Y1139771D01*
X544179Y1139784D01*
X544102Y1139797D01*
X544027Y1139816D01*
X543959Y1139835D01*
X543894Y1139858D01*
X543836Y1139881D01*
X543784Y1139900D01*
X543739Y1139923D01*
X543700Y1139942D01*
X543668Y1139962D01*
X543642Y1139975D01*
X543625Y1139988D01*
X543612Y1139994D01*
X543609Y1139997D01*
X543551Y1140043D01*
X543496Y1140095D01*
X543444Y1140147D01*
X543399Y1140202D01*
X543357Y1140253D01*
X543321Y1140308D01*
X543285Y1140364D01*
X543256Y1140412D01*
X543230Y1140461D01*
X543211Y1140506D01*
X543191Y1140545D01*
X543178Y1140581D01*
X543165Y1140610D01*
X543159Y1140629D01*
X543152Y1140646D01*
Y1140649D01*
X543130Y1140730D01*
X543110Y1140811D01*
X543078Y1140986D01*
X543055Y1141164D01*
X543049Y1141248D01*
X543042Y1141329D01*
X543036Y1141407D01*
X543033Y1141478D01*
X543029Y1141540D01*
Y1141595D01*
X543026Y1141640D01*
Y1141673D01*
Y1141685D01*
Y1141695D01*
Y1141698D01*
Y1141702D01*
Y1144261D01*
X543505D01*
Y1141705D01*
X543509Y1141553D01*
X543515Y1141417D01*
X543528Y1141290D01*
X543541Y1141174D01*
X543561Y1141073D01*
X543580Y1140979D01*
X543600Y1140898D01*
X543622Y1140827D01*
X543645Y1140765D01*
X543664Y1140714D01*
X543684Y1140671D01*
X543703Y1140636D01*
X543716Y1140610D01*
X543729Y1140590D01*
X543736Y1140581D01*
X543739Y1140577D01*
X543784Y1140526D01*
X543836Y1140483D01*
X543891Y1140445D01*
X543953Y1140412D01*
X544014Y1140383D01*
X544076Y1140360D01*
X544137Y1140341D01*
X544196Y1140325D01*
X544254Y1140312D01*
X544306Y1140305D01*
X544354Y1140299D01*
X544396Y1140292D01*
X544432D01*
X544458Y1140289D01*
X544481D01*
X544536Y1140292D01*
X544591Y1140296D01*
X544691Y1140312D01*
X544779Y1140334D01*
X544818Y1140347D01*
X544853Y1140360D01*
X544886Y1140373D01*
X544915Y1140383D01*
X544941Y1140396D01*
X544960Y1140406D01*
X544977Y1140415D01*
X544989Y1140422D01*
X544996Y1140428D01*
X544999D01*
X545074Y1140487D01*
X545139Y1140551D01*
X545190Y1140619D01*
X545232Y1140684D01*
X545265Y1140746D01*
X545278Y1140769D01*
X545288Y1140791D01*
X545297Y1140811D01*
X545304Y1140824D01*
X545307Y1140833D01*
Y1140837D01*
X545323Y1140892D01*
X545336Y1140950D01*
X545349Y1141018D01*
X545359Y1141086D01*
X545375Y1141229D01*
X545385Y1141371D01*
X545391Y1141439D01*
Y1141501D01*
X545394Y1141559D01*
X545398Y1141608D01*
Y1141647D01*
Y1141679D01*
Y1141698D01*
Y1141702D01*
Y1141705D01*
Y1144261D01*
X545877D01*
Y1141702D01*
D02*
G37*
G36*
X588101D02*
Y1141601D01*
X588098Y1141507D01*
X588091Y1141413D01*
X588085Y1141326D01*
X588078Y1141242D01*
X588068Y1141161D01*
X588056Y1141083D01*
X588046Y1141008D01*
X588033Y1140937D01*
X588017Y1140869D01*
X588004Y1140808D01*
X587988Y1140746D01*
X587971Y1140688D01*
X587955Y1140636D01*
X587939Y1140584D01*
X587923Y1140539D01*
X587890Y1140454D01*
X587858Y1140380D01*
X587825Y1140322D01*
X587800Y1140273D01*
X587777Y1140234D01*
X587761Y1140208D01*
X587748Y1140195D01*
X587745Y1140189D01*
X587673Y1140114D01*
X587595Y1140046D01*
X587514Y1139991D01*
X587427Y1139942D01*
X587336Y1139900D01*
X587249Y1139865D01*
X587161Y1139839D01*
X587074Y1139816D01*
X586993Y1139797D01*
X586918Y1139784D01*
X586850Y1139774D01*
X586789Y1139767D01*
X586740Y1139764D01*
X586721D01*
X586704Y1139761D01*
X586672D01*
X586578Y1139764D01*
X586487Y1139771D01*
X586403Y1139784D01*
X586325Y1139797D01*
X586251Y1139816D01*
X586183Y1139835D01*
X586118Y1139858D01*
X586060Y1139881D01*
X586008Y1139900D01*
X585962Y1139923D01*
X585924Y1139942D01*
X585891Y1139962D01*
X585865Y1139975D01*
X585849Y1139988D01*
X585836Y1139994D01*
X585833Y1139997D01*
X585775Y1140043D01*
X585719Y1140095D01*
X585668Y1140147D01*
X585622Y1140202D01*
X585580Y1140253D01*
X585544Y1140308D01*
X585509Y1140364D01*
X585480Y1140412D01*
X585454Y1140461D01*
X585434Y1140506D01*
X585415Y1140545D01*
X585402Y1140581D01*
X585389Y1140610D01*
X585383Y1140629D01*
X585376Y1140646D01*
Y1140649D01*
X585353Y1140730D01*
X585334Y1140811D01*
X585301Y1140986D01*
X585279Y1141164D01*
X585272Y1141248D01*
X585266Y1141329D01*
X585259Y1141407D01*
X585256Y1141478D01*
X585253Y1141540D01*
Y1141595D01*
X585250Y1141640D01*
Y1141673D01*
Y1141685D01*
Y1141695D01*
Y1141698D01*
Y1141702D01*
Y1144261D01*
X585729D01*
Y1141705D01*
X585732Y1141553D01*
X585739Y1141417D01*
X585752Y1141290D01*
X585765Y1141174D01*
X585784Y1141073D01*
X585804Y1140979D01*
X585823Y1140898D01*
X585846Y1140827D01*
X585869Y1140765D01*
X585888Y1140714D01*
X585907Y1140671D01*
X585927Y1140636D01*
X585940Y1140610D01*
X585953Y1140590D01*
X585959Y1140581D01*
X585962Y1140577D01*
X586008Y1140526D01*
X586060Y1140483D01*
X586115Y1140445D01*
X586176Y1140412D01*
X586238Y1140383D01*
X586299Y1140360D01*
X586361Y1140341D01*
X586419Y1140325D01*
X586478Y1140312D01*
X586529Y1140305D01*
X586578Y1140299D01*
X586620Y1140292D01*
X586656D01*
X586682Y1140289D01*
X586704D01*
X586760Y1140292D01*
X586815Y1140296D01*
X586915Y1140312D01*
X587003Y1140334D01*
X587041Y1140347D01*
X587077Y1140360D01*
X587109Y1140373D01*
X587139Y1140383D01*
X587164Y1140396D01*
X587184Y1140406D01*
X587200Y1140415D01*
X587213Y1140422D01*
X587220Y1140428D01*
X587223D01*
X587297Y1140487D01*
X587362Y1140551D01*
X587414Y1140619D01*
X587456Y1140684D01*
X587489Y1140746D01*
X587501Y1140769D01*
X587511Y1140791D01*
X587521Y1140811D01*
X587527Y1140824D01*
X587531Y1140833D01*
Y1140837D01*
X587547Y1140892D01*
X587560Y1140950D01*
X587573Y1141018D01*
X587582Y1141086D01*
X587599Y1141229D01*
X587608Y1141371D01*
X587615Y1141439D01*
Y1141501D01*
X587618Y1141559D01*
X587621Y1141608D01*
Y1141647D01*
Y1141679D01*
Y1141698D01*
Y1141702D01*
Y1141705D01*
Y1144261D01*
X588101D01*
Y1141702D01*
D02*
G37*
G36*
X567844Y1139835D02*
X567381D01*
Y1143600D01*
X566335Y1139835D01*
X565900D01*
X564844Y1143539D01*
Y1139835D01*
X564381D01*
Y1144261D01*
X565029D01*
X565897Y1141180D01*
X565920Y1141096D01*
X565942Y1141018D01*
X565962Y1140944D01*
X565981Y1140872D01*
X566001Y1140811D01*
X566017Y1140752D01*
X566030Y1140701D01*
X566043Y1140652D01*
X566053Y1140610D01*
X566066Y1140574D01*
X566072Y1140542D01*
X566079Y1140516D01*
X566085Y1140496D01*
X566088Y1140483D01*
X566092Y1140474D01*
Y1140471D01*
X566263Y1141125D01*
X567122Y1144261D01*
X567844D01*
Y1139835D01*
D02*
G37*
G36*
X581346D02*
X580866D01*
Y1141922D01*
X578980D01*
Y1139835D01*
X578501D01*
Y1144261D01*
X578980D01*
Y1142444D01*
X580866D01*
Y1144261D01*
X581346D01*
Y1139835D01*
D02*
G37*
G36*
X527241Y1144222D02*
X527267Y1144167D01*
X527328Y1144060D01*
X527393Y1143960D01*
X527429Y1143915D01*
X527461Y1143869D01*
X527490Y1143830D01*
X527519Y1143795D01*
X527545Y1143762D01*
X527571Y1143733D01*
X527591Y1143711D01*
X527604Y1143694D01*
X527613Y1143685D01*
X527617Y1143681D01*
X527727Y1143571D01*
X527837Y1143474D01*
X527944Y1143383D01*
X527996Y1143344D01*
X528048Y1143309D01*
X528093Y1143276D01*
X528135Y1143250D01*
X528171Y1143225D01*
X528203Y1143205D01*
X528229Y1143189D01*
X528248Y1143176D01*
X528261Y1143169D01*
X528265Y1143166D01*
Y1142641D01*
X528180Y1142680D01*
X528099Y1142725D01*
X528018Y1142771D01*
X527944Y1142816D01*
X527911Y1142839D01*
X527882Y1142858D01*
X527856Y1142878D01*
X527834Y1142894D01*
X527814Y1142904D01*
X527801Y1142914D01*
X527792Y1142920D01*
X527788Y1142923D01*
X527694Y1142994D01*
X527613Y1143062D01*
X527542Y1143124D01*
X527484Y1143182D01*
X527435Y1143228D01*
X527419Y1143247D01*
X527403Y1143263D01*
X527390Y1143276D01*
X527380Y1143289D01*
X527377Y1143293D01*
X527374Y1143296D01*
Y1139835D01*
X526926D01*
Y1144277D01*
X527218D01*
X527241Y1144222D01*
D02*
G37*
G36*
X540823Y1139835D02*
X540359D01*
Y1143302D01*
X538458Y1139835D01*
X537962D01*
Y1144261D01*
X538422D01*
Y1140785D01*
X540330Y1144261D01*
X540823D01*
Y1139835D01*
D02*
G37*
G36*
X556572D02*
X556093D01*
Y1141922D01*
X554207D01*
Y1139835D01*
X553728D01*
Y1144261D01*
X554207D01*
Y1142444D01*
X556093D01*
Y1144261D01*
X556572D01*
Y1139835D01*
D02*
G37*
G36*
X558750Y1144336D02*
X558837Y1144329D01*
X558921Y1144316D01*
X558999Y1144300D01*
X559077Y1144277D01*
X559148Y1144258D01*
X559216Y1144232D01*
X559278Y1144209D01*
X559333Y1144187D01*
X559385Y1144161D01*
X559427Y1144141D01*
X559466Y1144122D01*
X559495Y1144102D01*
X559514Y1144090D01*
X559531Y1144083D01*
X559534Y1144080D01*
X559605Y1144028D01*
X559673Y1143973D01*
X559735Y1143915D01*
X559793Y1143850D01*
X559848Y1143788D01*
X559900Y1143723D01*
X559945Y1143662D01*
X559987Y1143600D01*
X560023Y1143542D01*
X560055Y1143490D01*
X560085Y1143442D01*
X560107Y1143400D01*
X560127Y1143364D01*
X560140Y1143338D01*
X560146Y1143322D01*
X560149Y1143315D01*
X560188Y1143218D01*
X560224Y1143118D01*
X560253Y1143014D01*
X560279Y1142910D01*
X560302Y1142803D01*
X560321Y1142703D01*
X560337Y1142602D01*
X560347Y1142509D01*
X560357Y1142418D01*
X560363Y1142337D01*
X560370Y1142262D01*
X560373Y1142201D01*
X560376Y1142149D01*
Y1142126D01*
Y1142110D01*
Y1142097D01*
Y1142087D01*
Y1142081D01*
Y1142078D01*
X560373Y1141942D01*
X560366Y1141812D01*
X560357Y1141685D01*
X560341Y1141566D01*
X560324Y1141452D01*
X560305Y1141348D01*
X560282Y1141248D01*
X560263Y1141161D01*
X560240Y1141076D01*
X560221Y1141005D01*
X560201Y1140944D01*
X560185Y1140892D01*
X560169Y1140850D01*
X560159Y1140820D01*
X560153Y1140801D01*
X560149Y1140794D01*
X560104Y1140697D01*
X560059Y1140603D01*
X560010Y1140519D01*
X559962Y1140441D01*
X559913Y1140370D01*
X559864Y1140305D01*
X559819Y1140247D01*
X559774Y1140195D01*
X559731Y1140150D01*
X559689Y1140111D01*
X559657Y1140079D01*
X559624Y1140053D01*
X559602Y1140030D01*
X559582Y1140017D01*
X559569Y1140007D01*
X559566Y1140004D01*
X559498Y1139962D01*
X559427Y1139923D01*
X559352Y1139890D01*
X559281Y1139865D01*
X559207Y1139839D01*
X559135Y1139819D01*
X559067Y1139803D01*
X558999Y1139790D01*
X558938Y1139780D01*
X558883Y1139774D01*
X558831Y1139767D01*
X558789Y1139764D01*
X558753D01*
X558727Y1139761D01*
X558704D01*
X558597Y1139764D01*
X558497Y1139777D01*
X558403Y1139793D01*
X558309Y1139819D01*
X558225Y1139845D01*
X558144Y1139878D01*
X558069Y1139910D01*
X558005Y1139946D01*
X557943Y1139978D01*
X557888Y1140010D01*
X557842Y1140043D01*
X557804Y1140069D01*
X557771Y1140095D01*
X557752Y1140111D01*
X557736Y1140124D01*
X557732Y1140127D01*
X557661Y1140202D01*
X557593Y1140279D01*
X557531Y1140367D01*
X557473Y1140454D01*
X557425Y1140548D01*
X557376Y1140639D01*
X557337Y1140730D01*
X557298Y1140820D01*
X557269Y1140905D01*
X557240Y1140982D01*
X557217Y1141054D01*
X557201Y1141115D01*
X557185Y1141167D01*
X557182Y1141190D01*
X557175Y1141206D01*
X557172Y1141219D01*
Y1141229D01*
X557169Y1141235D01*
Y1141238D01*
X557651Y1141387D01*
X557671Y1141284D01*
X557697Y1141190D01*
X557723Y1141099D01*
X557752Y1141015D01*
X557784Y1140940D01*
X557813Y1140872D01*
X557846Y1140808D01*
X557878Y1140752D01*
X557911Y1140704D01*
X557940Y1140658D01*
X557966Y1140623D01*
X557988Y1140594D01*
X558008Y1140571D01*
X558021Y1140555D01*
X558030Y1140545D01*
X558034Y1140542D01*
X558089Y1140493D01*
X558144Y1140451D01*
X558202Y1140412D01*
X558260Y1140380D01*
X558316Y1140354D01*
X558374Y1140331D01*
X558429Y1140312D01*
X558478Y1140299D01*
X558526Y1140286D01*
X558571Y1140279D01*
X558610Y1140273D01*
X558646Y1140266D01*
X558672D01*
X558695Y1140263D01*
X558711D01*
X558808Y1140270D01*
X558899Y1140283D01*
X558986Y1140305D01*
X559067Y1140334D01*
X559145Y1140370D01*
X559213Y1140406D01*
X559278Y1140448D01*
X559336Y1140490D01*
X559388Y1140532D01*
X559433Y1140574D01*
X559472Y1140613D01*
X559505Y1140646D01*
X559531Y1140675D01*
X559547Y1140697D01*
X559560Y1140710D01*
X559563Y1140717D01*
X559618Y1140808D01*
X559667Y1140905D01*
X559709Y1141012D01*
X559748Y1141122D01*
X559777Y1141232D01*
X559803Y1141345D01*
X559825Y1141459D01*
X559842Y1141569D01*
X559855Y1141669D01*
X559864Y1141766D01*
X559871Y1141854D01*
X559874Y1141893D01*
Y1141928D01*
X559877Y1141961D01*
Y1141990D01*
X559880Y1142016D01*
Y1142039D01*
Y1142055D01*
Y1142068D01*
Y1142074D01*
Y1142078D01*
X559877Y1142188D01*
X559874Y1142295D01*
X559867Y1142392D01*
X559855Y1142486D01*
X559845Y1142577D01*
X559832Y1142657D01*
X559816Y1142732D01*
X559803Y1142800D01*
X559787Y1142862D01*
X559774Y1142917D01*
X559761Y1142962D01*
X559748Y1143001D01*
X559738Y1143033D01*
X559731Y1143053D01*
X559728Y1143069D01*
X559725Y1143072D01*
X559693Y1143143D01*
X559660Y1143208D01*
X559628Y1143270D01*
X559592Y1143328D01*
X559556Y1143380D01*
X559521Y1143429D01*
X559485Y1143471D01*
X559453Y1143506D01*
X559420Y1143542D01*
X559391Y1143571D01*
X559365Y1143594D01*
X559346Y1143613D01*
X559326Y1143629D01*
X559313Y1143639D01*
X559304Y1143646D01*
X559301Y1143649D01*
X559249Y1143681D01*
X559197Y1143711D01*
X559145Y1143736D01*
X559090Y1143759D01*
X559038Y1143775D01*
X558986Y1143791D01*
X558886Y1143814D01*
X558840Y1143821D01*
X558802Y1143827D01*
X558763Y1143830D01*
X558734Y1143834D01*
X558708Y1143837D01*
X558672D01*
X558604Y1143834D01*
X558542Y1143827D01*
X558481Y1143814D01*
X558419Y1143798D01*
X558364Y1143775D01*
X558312Y1143753D01*
X558260Y1143723D01*
X558212Y1143694D01*
X558124Y1143623D01*
X558043Y1143545D01*
X557975Y1143464D01*
X557914Y1143377D01*
X557859Y1143293D01*
X557817Y1143208D01*
X557778Y1143130D01*
X557749Y1143059D01*
X557739Y1143030D01*
X557726Y1143001D01*
X557719Y1142978D01*
X557713Y1142956D01*
X557706Y1142939D01*
X557703Y1142926D01*
X557700Y1142920D01*
Y1142917D01*
X557230Y1143053D01*
X557263Y1143166D01*
X557298Y1143276D01*
X557337Y1143377D01*
X557376Y1143471D01*
X557421Y1143555D01*
X557467Y1143633D01*
X557509Y1143704D01*
X557554Y1143769D01*
X557593Y1143827D01*
X557632Y1143876D01*
X557668Y1143918D01*
X557700Y1143950D01*
X557726Y1143976D01*
X557745Y1143996D01*
X557758Y1144009D01*
X557761Y1144012D01*
X557833Y1144070D01*
X557907Y1144119D01*
X557985Y1144164D01*
X558060Y1144200D01*
X558137Y1144232D01*
X558212Y1144258D01*
X558283Y1144281D01*
X558351Y1144297D01*
X558416Y1144313D01*
X558478Y1144323D01*
X558529Y1144329D01*
X558575Y1144333D01*
X558610Y1144336D01*
X558640Y1144339D01*
X558662D01*
X558750Y1144336D01*
D02*
G37*
G36*
X549545Y1139835D02*
X548236D01*
X548136Y1139839D01*
X548038Y1139845D01*
X547944Y1139855D01*
X547860Y1139871D01*
X547779Y1139887D01*
X547705Y1139904D01*
X547637Y1139923D01*
X547575Y1139946D01*
X547520Y1139965D01*
X547474Y1139985D01*
X547432Y1140001D01*
X547397Y1140020D01*
X547371Y1140033D01*
X547351Y1140043D01*
X547338Y1140049D01*
X547335Y1140053D01*
X547270Y1140098D01*
X547212Y1140147D01*
X547154Y1140202D01*
X547099Y1140263D01*
X547050Y1140322D01*
X547005Y1140383D01*
X546959Y1140445D01*
X546920Y1140506D01*
X546888Y1140565D01*
X546856Y1140619D01*
X546830Y1140668D01*
X546807Y1140710D01*
X546791Y1140746D01*
X546778Y1140772D01*
X546771Y1140788D01*
X546768Y1140794D01*
X546729Y1140895D01*
X546694Y1140999D01*
X546664Y1141109D01*
X546639Y1141216D01*
X546616Y1141323D01*
X546600Y1141430D01*
X546584Y1141533D01*
X546574Y1141630D01*
X546564Y1141721D01*
X546558Y1141805D01*
X546551Y1141880D01*
X546548Y1141945D01*
Y1141974D01*
X546545Y1142000D01*
Y1142019D01*
Y1142039D01*
Y1142052D01*
Y1142061D01*
Y1142068D01*
Y1142071D01*
Y1142178D01*
X546551Y1142282D01*
X546558Y1142382D01*
X546564Y1142476D01*
X546574Y1142567D01*
X546587Y1142648D01*
X546600Y1142725D01*
X546609Y1142797D01*
X546622Y1142862D01*
X546635Y1142917D01*
X546645Y1142965D01*
X546658Y1143007D01*
X546664Y1143040D01*
X546671Y1143062D01*
X546677Y1143079D01*
Y1143082D01*
X546703Y1143160D01*
X546729Y1143234D01*
X546759Y1143305D01*
X546788Y1143373D01*
X546820Y1143435D01*
X546849Y1143493D01*
X546878Y1143548D01*
X546908Y1143597D01*
X546933Y1143643D01*
X546959Y1143681D01*
X546982Y1143714D01*
X547002Y1143740D01*
X547018Y1143762D01*
X547031Y1143779D01*
X547037Y1143788D01*
X547040Y1143791D01*
X547086Y1143843D01*
X547131Y1143889D01*
X547176Y1143931D01*
X547222Y1143970D01*
X547270Y1144005D01*
X547316Y1144038D01*
X547358Y1144067D01*
X547400Y1144090D01*
X547439Y1144112D01*
X547474Y1144129D01*
X547507Y1144145D01*
X547536Y1144158D01*
X547555Y1144167D01*
X547575Y1144171D01*
X547585Y1144177D01*
X547588D01*
X547637Y1144193D01*
X547688Y1144206D01*
X547743Y1144216D01*
X547798Y1144226D01*
X547915Y1144242D01*
X548032Y1144252D01*
X548084Y1144255D01*
X548136Y1144258D01*
X548178D01*
X548216Y1144261D01*
X549545D01*
Y1139835D01*
D02*
G37*
G36*
X553310D02*
X552801D01*
X552409Y1141177D01*
X550886D01*
X550465Y1139835D01*
X549914D01*
X551401Y1144261D01*
X551920D01*
X553310Y1139835D01*
D02*
G37*
G36*
X535616Y1144336D02*
X535684Y1144333D01*
X535814Y1144313D01*
X535937Y1144284D01*
X536054Y1144245D01*
X536164Y1144197D01*
X536267Y1144148D01*
X536361Y1144093D01*
X536446Y1144034D01*
X536523Y1143976D01*
X536591Y1143924D01*
X536650Y1143873D01*
X536698Y1143824D01*
X536737Y1143785D01*
X536766Y1143756D01*
X536783Y1143736D01*
X536789Y1143733D01*
Y1143730D01*
X536876Y1143610D01*
X536951Y1143480D01*
X537019Y1143344D01*
X537074Y1143202D01*
X537123Y1143056D01*
X537165Y1142914D01*
X537197Y1142771D01*
X537223Y1142632D01*
X537243Y1142502D01*
X537259Y1142379D01*
X537265Y1142324D01*
X537268Y1142272D01*
X537275Y1142223D01*
X537278Y1142178D01*
Y1142136D01*
X537282Y1142097D01*
Y1142068D01*
X537285Y1142039D01*
Y1142019D01*
Y1142003D01*
Y1141993D01*
Y1141990D01*
X537278Y1141825D01*
X537265Y1141666D01*
X537243Y1141517D01*
X537217Y1141371D01*
X537181Y1141238D01*
X537145Y1141112D01*
X537107Y1140995D01*
X537064Y1140889D01*
X537022Y1140794D01*
X536983Y1140707D01*
X536948Y1140636D01*
X536912Y1140574D01*
X536899Y1140548D01*
X536886Y1140526D01*
X536873Y1140506D01*
X536864Y1140490D01*
X536854Y1140477D01*
X536847Y1140467D01*
X536844Y1140464D01*
Y1140461D01*
X536799Y1140396D01*
X536750Y1140338D01*
X536698Y1140283D01*
X536646Y1140231D01*
X536595Y1140182D01*
X536543Y1140137D01*
X536491Y1140095D01*
X536436Y1140056D01*
X536329Y1139988D01*
X536219Y1139933D01*
X536115Y1139884D01*
X536015Y1139848D01*
X535917Y1139819D01*
X535830Y1139797D01*
X535752Y1139784D01*
X535684Y1139771D01*
X535655Y1139767D01*
X535629Y1139764D01*
X535606D01*
X535587Y1139761D01*
X535551D01*
X535477Y1139764D01*
X535405Y1139767D01*
X535334Y1139777D01*
X535266Y1139790D01*
X535137Y1139822D01*
X535013Y1139868D01*
X534900Y1139920D01*
X534793Y1139975D01*
X534696Y1140036D01*
X534609Y1140101D01*
X534527Y1140166D01*
X534459Y1140228D01*
X534401Y1140283D01*
X534352Y1140334D01*
X534314Y1140380D01*
X534284Y1140412D01*
X534275Y1140425D01*
X534268Y1140435D01*
X534262Y1140438D01*
Y1140441D01*
X534184Y1140561D01*
X534113Y1140688D01*
X534054Y1140820D01*
X534003Y1140953D01*
X533960Y1141086D01*
X533925Y1141222D01*
X533896Y1141352D01*
X533870Y1141475D01*
X533854Y1141591D01*
X533837Y1141702D01*
X533834Y1141750D01*
X533828Y1141799D01*
X533824Y1141841D01*
X533821Y1141883D01*
X533818Y1141919D01*
Y1141951D01*
X533815Y1141977D01*
Y1142003D01*
Y1142019D01*
Y1142035D01*
Y1142042D01*
Y1142045D01*
X533818Y1142178D01*
X533824Y1142304D01*
X533837Y1142424D01*
X533850Y1142538D01*
X533870Y1142648D01*
X533889Y1142748D01*
X533909Y1142842D01*
X533931Y1142930D01*
X533954Y1143007D01*
X533973Y1143075D01*
X533993Y1143134D01*
X534012Y1143186D01*
X534025Y1143225D01*
X534038Y1143254D01*
X534045Y1143270D01*
X534048Y1143276D01*
X534093Y1143370D01*
X534142Y1143458D01*
X534191Y1143542D01*
X534242Y1143620D01*
X534294Y1143691D01*
X534346Y1143756D01*
X534398Y1143814D01*
X534446Y1143866D01*
X534492Y1143911D01*
X534537Y1143954D01*
X534576Y1143989D01*
X534609Y1144015D01*
X534634Y1144038D01*
X534657Y1144054D01*
X534670Y1144064D01*
X534673Y1144067D01*
X534748Y1144116D01*
X534826Y1144158D01*
X534900Y1144193D01*
X534978Y1144226D01*
X535052Y1144252D01*
X535124Y1144274D01*
X535192Y1144291D01*
X535260Y1144307D01*
X535321Y1144316D01*
X535376Y1144326D01*
X535425Y1144329D01*
X535467Y1144336D01*
X535503D01*
X535525Y1144339D01*
X535548D01*
X535616Y1144336D01*
D02*
G37*
G36*
X542125Y1139835D02*
X541646D01*
Y1144261D01*
X542125D01*
Y1139835D01*
D02*
G37*
G36*
X563597D02*
X560888D01*
Y1140357D01*
X563117D01*
Y1141864D01*
X561108D01*
Y1142385D01*
X563117D01*
Y1143740D01*
X560972D01*
Y1144261D01*
X563597D01*
Y1139835D01*
D02*
G37*
G36*
X577688D02*
X577208D01*
Y1141802D01*
X576654D01*
X576570Y1141799D01*
X576495Y1141792D01*
X576430Y1141780D01*
X576379Y1141770D01*
X576336Y1141757D01*
X576307Y1141744D01*
X576288Y1141737D01*
X576281Y1141734D01*
X576229Y1141705D01*
X576181Y1141666D01*
X576132Y1141627D01*
X576090Y1141585D01*
X576055Y1141543D01*
X576025Y1141510D01*
X576016Y1141501D01*
X576009Y1141491D01*
X576003Y1141485D01*
Y1141481D01*
X575974Y1141442D01*
X575944Y1141397D01*
X575912Y1141345D01*
X575876Y1141287D01*
X575805Y1141167D01*
X575737Y1141047D01*
X575705Y1140989D01*
X575675Y1140934D01*
X575646Y1140885D01*
X575624Y1140840D01*
X575604Y1140804D01*
X575591Y1140775D01*
X575582Y1140759D01*
X575578Y1140752D01*
X575096Y1139835D01*
X574490D01*
X575125Y1141037D01*
X575186Y1141151D01*
X575251Y1141258D01*
X575316Y1141352D01*
X575345Y1141397D01*
X575374Y1141436D01*
X575400Y1141472D01*
X575423Y1141504D01*
X575445Y1141533D01*
X575465Y1141556D01*
X575481Y1141575D01*
X575491Y1141588D01*
X575497Y1141598D01*
X575500Y1141601D01*
X575546Y1141647D01*
X575595Y1141692D01*
X575646Y1141734D01*
X575695Y1141773D01*
X575740Y1141802D01*
X575776Y1141828D01*
X575789Y1141835D01*
X575799Y1141841D01*
X575805Y1141848D01*
X575808D01*
X575718Y1141867D01*
X575633Y1141890D01*
X575556Y1141916D01*
X575481Y1141945D01*
X575413Y1141977D01*
X575351Y1142010D01*
X575293Y1142042D01*
X575245Y1142078D01*
X575199Y1142110D01*
X575160Y1142139D01*
X575125Y1142168D01*
X575099Y1142194D01*
X575076Y1142214D01*
X575063Y1142230D01*
X575053Y1142239D01*
X575050Y1142243D01*
X575005Y1142304D01*
X574963Y1142366D01*
X574927Y1142434D01*
X574898Y1142502D01*
X574872Y1142570D01*
X574853Y1142638D01*
X574833Y1142703D01*
X574820Y1142768D01*
X574810Y1142826D01*
X574801Y1142881D01*
X574794Y1142930D01*
X574791Y1142972D01*
Y1143007D01*
X574788Y1143033D01*
Y1143050D01*
Y1143056D01*
X574791Y1143127D01*
X574794Y1143192D01*
X574801Y1143257D01*
X574810Y1143322D01*
X574823Y1143380D01*
X574836Y1143435D01*
X574849Y1143484D01*
X574865Y1143532D01*
X574878Y1143574D01*
X574895Y1143613D01*
X574908Y1143646D01*
X574917Y1143672D01*
X574930Y1143694D01*
X574937Y1143711D01*
X574940Y1143720D01*
X574943Y1143723D01*
X574972Y1143775D01*
X575005Y1143824D01*
X575037Y1143869D01*
X575070Y1143908D01*
X575102Y1143947D01*
X575134Y1143979D01*
X575167Y1144012D01*
X575199Y1144038D01*
X575228Y1144060D01*
X575254Y1144080D01*
X575277Y1144099D01*
X575300Y1144112D01*
X575316Y1144122D01*
X575329Y1144129D01*
X575335Y1144135D01*
X575339D01*
X575387Y1144158D01*
X575439Y1144177D01*
X575497Y1144193D01*
X575556Y1144209D01*
X575679Y1144232D01*
X575799Y1144245D01*
X575857Y1144252D01*
X575909Y1144255D01*
X575957Y1144258D01*
X575999D01*
X576032Y1144261D01*
X577688D01*
Y1139835D01*
D02*
G37*
G36*
X584705Y1143740D02*
X583510D01*
Y1139835D01*
X583030D01*
Y1143740D01*
X581828D01*
Y1144261D01*
X584705D01*
Y1143740D01*
D02*
G37*
G36*
X572607Y1139835D02*
X569899D01*
Y1140357D01*
X572128D01*
Y1141864D01*
X570119D01*
Y1142385D01*
X572128D01*
Y1143740D01*
X569983D01*
Y1144261D01*
X572607D01*
Y1139835D01*
D02*
G37*
G36*
X573936D02*
X573456D01*
Y1144261D01*
X573936D01*
Y1139835D01*
D02*
G37*
G36*
X585271Y1153809D02*
X591948D01*
X592133Y1153757D01*
X592313Y1153641D01*
X592342Y1153610D01*
X592343Y1153610D01*
X592343Y1153610D01*
X592372Y1153579D01*
X592482Y1153390D01*
X592531Y1153195D01*
Y1153131D01*
Y1153065D01*
X592481Y1152867D01*
X592342Y1152651D01*
X592137Y1152506D01*
X591949Y1152453D01*
X585271D01*
X585264Y1152450D01*
X585261Y1152451D01*
X585134D01*
X584946Y1152504D01*
X584741Y1152650D01*
X584603Y1152866D01*
X584552Y1153065D01*
Y1153130D01*
Y1153195D01*
X584603Y1153394D01*
X584741Y1153610D01*
X584946Y1153756D01*
X585134Y1153809D01*
X585260D01*
X585265Y1153811D01*
X585271Y1153809D01*
D02*
G37*
G36*
Y1151798D02*
X590554D01*
X590738Y1151746D01*
X590918Y1151631D01*
X590948Y1151600D01*
X590948Y1151600D01*
X590948Y1151600D01*
X590977Y1151569D01*
X591087Y1151379D01*
X591137Y1151184D01*
Y1151120D01*
Y1151055D01*
X591086Y1150856D01*
X590947Y1150640D01*
X590742Y1150496D01*
X590554Y1150442D01*
X585271D01*
X585264Y1150439D01*
X585261Y1150441D01*
X585134D01*
X584946Y1150494D01*
X584741Y1150640D01*
X584603Y1150856D01*
X584552Y1151054D01*
Y1151119D01*
Y1151185D01*
X584603Y1151383D01*
X584741Y1151600D01*
X584946Y1151745D01*
X585134Y1151798D01*
X585260D01*
X585265Y1151800D01*
X585271Y1151798D01*
D02*
G37*
G36*
X581289Y1156043D02*
X581421Y1155966D01*
X581439Y1155951D01*
X581461Y1155930D01*
X581542Y1155794D01*
X581575Y1155634D01*
X581574Y1155602D01*
X581574Y1155601D01*
X581574Y1155601D01*
Y1148850D01*
Y1148801D01*
X581545Y1148654D01*
X581465Y1148523D01*
X581441Y1148504D01*
X581440Y1148503D01*
X581439Y1148503D01*
X581416Y1148480D01*
X581293Y1148400D01*
X581143Y1148365D01*
X581044D01*
X580898Y1148396D01*
X580767Y1148477D01*
X580745Y1148502D01*
X580745Y1148502D01*
X580745Y1148502D01*
X580723Y1148524D01*
X580649Y1148649D01*
X580615Y1148811D01*
X580612Y1148850D01*
Y1151649D01*
Y1151733D01*
X580611Y1151735D01*
X580612Y1151737D01*
X580565Y1151991D01*
X580563Y1151993D01*
X580563Y1151995D01*
X580451Y1152253D01*
X580450Y1152254D01*
X580450Y1152256D01*
X580417Y1152305D01*
Y1152305D01*
X580386Y1152352D01*
X580384Y1152353D01*
X580384Y1152355D01*
X580199Y1152561D01*
X580197Y1152562D01*
X580195Y1152564D01*
X579945Y1152736D01*
X579943Y1152736D01*
X579942Y1152738D01*
X579878Y1152768D01*
X579878Y1152768D01*
X579821Y1152796D01*
X579819Y1152796D01*
X579818Y1152798D01*
X579527Y1152885D01*
X579525Y1152885D01*
X579524Y1152886D01*
X579193Y1152932D01*
X579193Y1152932D01*
X579192Y1152932D01*
X579116Y1152940D01*
X579115Y1152939D01*
X579114Y1152940D01*
X578956D01*
X578954Y1152939D01*
X578951Y1152939D01*
X578476Y1152835D01*
X578473Y1152833D01*
X578470Y1152833D01*
X578044Y1152593D01*
X578042Y1152591D01*
X578040Y1152590D01*
X577967Y1152522D01*
X577967Y1152522D01*
X577967Y1152522D01*
X577913Y1152471D01*
X577913Y1152469D01*
X577911Y1152468D01*
X577777Y1152284D01*
X577777Y1152282D01*
X577775Y1152281D01*
X577642Y1151993D01*
X577642Y1151991D01*
X577640Y1151989D01*
X577560Y1151659D01*
X577560Y1151658D01*
X577560Y1151656D01*
X577532Y1151385D01*
X577532Y1151384D01*
X577532Y1151383D01*
X577531Y1151292D01*
X577531Y1151292D01*
X577531Y1151291D01*
Y1148850D01*
Y1148801D01*
X577502Y1148653D01*
X577422Y1148523D01*
X577398Y1148504D01*
X577397Y1148503D01*
X577396Y1148503D01*
X577373Y1148480D01*
X577250Y1148400D01*
X577100Y1148365D01*
X577006D01*
X576873Y1148396D01*
X576736Y1148478D01*
X576706Y1148503D01*
X576684Y1148525D01*
X576608Y1148649D01*
X576572Y1148810D01*
X576569Y1148849D01*
Y1151281D01*
Y1151464D01*
X576651Y1152012D01*
X576827Y1152542D01*
X576873Y1152639D01*
X576923Y1152731D01*
X577243Y1153130D01*
X577628Y1153444D01*
X577710Y1153494D01*
X577799Y1153543D01*
X578288Y1153702D01*
X578814Y1153780D01*
X578921Y1153789D01*
X579038D01*
X579394Y1153741D01*
X579767Y1153644D01*
X579837Y1153619D01*
X579907Y1153592D01*
X580240Y1153415D01*
X580512Y1153205D01*
X580512Y1153205D01*
X580512Y1153205D01*
X580512D01*
X580514Y1153203D01*
X580517Y1153200D01*
X580521Y1153196D01*
X580528Y1153189D01*
X580529Y1153188D01*
X580530Y1153187D01*
X580553Y1153165D01*
X580564Y1153154D01*
X580576Y1153142D01*
X580576D01*
Y1153142D01*
X580576D01*
X580576Y1153142D01*
X580576Y1153142D01*
X580576D01*
X580576Y1153142D01*
X580576D01*
X580578Y1153141D01*
X580580Y1153141D01*
X580581Y1153140D01*
X580582Y1153140D01*
X580583Y1153140D01*
X580583Y1153139D01*
X580583Y1153139D01*
X580583D01*
X580583Y1153139D01*
X580583Y1153139D01*
X580583Y1153139D01*
X580583Y1153139D01*
X580583Y1153139D01*
X580583Y1153139D01*
X580583Y1153139D01*
X580583D01*
X580583Y1153139D01*
Y1153139D01*
X580583Y1153139D01*
X580583Y1153139D01*
X580583Y1153139D01*
X580583Y1153139D01*
X580583Y1153139D01*
X580584Y1153139D01*
X580584Y1153139D01*
X580584Y1153139D01*
X580584Y1153139D01*
X580585Y1153139D01*
X580586Y1153138D01*
X580587Y1153138D01*
X580587Y1153138D01*
X580587Y1153137D01*
X580588Y1153137D01*
X580588Y1153137D01*
X580588Y1153137D01*
X580588Y1153137D01*
X580588Y1153137D01*
X580589Y1153137D01*
X580589Y1153137D01*
X580589Y1153137D01*
X580589Y1153137D01*
X580589Y1153137D01*
X580589D01*
X580589Y1153137D01*
X580589Y1153137D01*
X580589Y1153137D01*
X580589Y1153137D01*
X580589Y1153137D01*
X580589Y1153137D01*
X580589Y1153137D01*
X580590Y1153137D01*
X580590Y1153136D01*
X580590Y1153136D01*
X580590Y1153136D01*
X580590Y1153136D01*
X580590D01*
X580590Y1153136D01*
X580590Y1153136D01*
X580590Y1153136D01*
X580590D01*
X580590Y1153136D01*
X580590Y1153136D01*
Y1153136D01*
X580590D01*
X580590Y1153136D01*
X580590D01*
X580590Y1153136D01*
X580590Y1153136D01*
X580590D01*
X580590Y1153136D01*
X580590D01*
Y1153136D01*
X580590D01*
Y1153136D01*
X580591Y1153136D01*
X580591D01*
X580591Y1153136D01*
X580591Y1153136D01*
X580591Y1153136D01*
X580591Y1153136D01*
X580591Y1153136D01*
X580591D01*
X580602Y1153141D01*
X580606Y1153142D01*
X580606Y1153142D01*
X580606Y1153142D01*
Y1153142D01*
X580606Y1153142D01*
Y1153142D01*
X580606Y1153142D01*
Y1153142D01*
X580606Y1153142D01*
X580606Y1153142D01*
X580609Y1153149D01*
X580612Y1153157D01*
X580612Y1153157D01*
Y1153157D01*
Y1153157D01*
X580612D01*
Y1153157D01*
X580612Y1153157D01*
Y1153157D01*
X580612Y1153157D01*
X580612Y1153157D01*
Y1153157D01*
X580612Y1153157D01*
X580612Y1153157D01*
X580612Y1153157D01*
X580612Y1153157D01*
Y1153157D01*
Y1153157D01*
X580612Y1153157D01*
X580612Y1153157D01*
Y1153157D01*
X580612Y1153157D01*
X580612Y1153158D01*
X580612Y1153158D01*
Y1153158D01*
X580612Y1153158D01*
Y1153158D01*
Y1153158D01*
Y1153158D01*
Y1153158D01*
Y1153158D01*
Y1153158D01*
Y1153158D01*
Y1153160D01*
Y1153160D01*
Y1153160D01*
Y1153161D01*
Y1153161D01*
Y1153161D01*
X580612Y1153163D01*
X580612Y1153163D01*
X580612Y1153164D01*
Y1153171D01*
X580612D01*
X580612Y1153171D01*
Y1153172D01*
X580612Y1153172D01*
X580612Y1153172D01*
Y1153177D01*
X580612Y1153177D01*
Y1153178D01*
X580612Y1153181D01*
Y1153181D01*
Y1153183D01*
Y1153207D01*
Y1153207D01*
Y1153207D01*
Y1153208D01*
Y1153216D01*
Y1153216D01*
Y1153216D01*
Y1153216D01*
Y1153217D01*
X580612Y1153217D01*
Y1153217D01*
X580612Y1153218D01*
Y1153218D01*
X580612Y1153218D01*
X580612Y1153218D01*
Y1153228D01*
Y1153228D01*
Y1153230D01*
Y1153231D01*
Y1153231D01*
Y1153231D01*
Y1153231D01*
Y1153231D01*
X580612Y1153247D01*
Y1153249D01*
X580612Y1153249D01*
Y1155599D01*
Y1155646D01*
X580646Y1155788D01*
X580724Y1155925D01*
X580745Y1155953D01*
X580765Y1155973D01*
X580906Y1156038D01*
X581067Y1156077D01*
X581067Y1156077D01*
X581068Y1156077D01*
X581096Y1156086D01*
X581142D01*
X581289Y1156043D01*
D02*
G37*
G36*
X541439Y1156077D02*
X541605Y1156039D01*
X541727Y1155974D01*
X541748Y1155954D01*
X541772Y1155927D01*
X541851Y1155790D01*
X541879Y1155650D01*
Y1155603D01*
Y1151093D01*
X541879Y1151093D01*
X541879Y1151093D01*
X541880Y1150965D01*
X541791Y1150362D01*
X541582Y1149808D01*
X541523Y1149704D01*
X541523Y1149704D01*
X541522Y1149704D01*
X541467Y1149598D01*
X541109Y1149143D01*
X540658Y1148783D01*
X540556Y1148723D01*
X540556Y1148722D01*
X540556Y1148722D01*
X540458Y1148661D01*
X539916Y1148451D01*
X539376Y1148365D01*
X539020D01*
X538489Y1148454D01*
X537928Y1148662D01*
X537825Y1148721D01*
X537825D01*
X537726Y1148778D01*
X537278Y1149141D01*
X536912Y1149597D01*
X536854Y1149699D01*
X536799Y1149799D01*
X536595Y1150352D01*
X536501Y1150901D01*
Y1151083D01*
X536507Y1151209D01*
X536592Y1151810D01*
X536774Y1152363D01*
X536828Y1152465D01*
X536888Y1152561D01*
X537226Y1153008D01*
X537632Y1153379D01*
X537726Y1153436D01*
X537824Y1153488D01*
X538336Y1153691D01*
X538833Y1153789D01*
X538998D01*
X539097Y1153780D01*
X539552Y1153715D01*
X539970Y1153587D01*
X540050Y1153547D01*
X540139Y1153500D01*
X540515Y1153248D01*
X540818Y1152951D01*
X540818Y1152951D01*
X540818D01*
X540818Y1152951D01*
X540824Y1152944D01*
X540826Y1152942D01*
X540849Y1152913D01*
X540863Y1152895D01*
X540864Y1152894D01*
X540877Y1152878D01*
X540877Y1152878D01*
X540877Y1152878D01*
X540877Y1152878D01*
X540878Y1152878D01*
X540878Y1152877D01*
X540878Y1152877D01*
X540878Y1152877D01*
X540878Y1152876D01*
X540878Y1152876D01*
X540879Y1152876D01*
X540879Y1152876D01*
X540879Y1152876D01*
X540880Y1152875D01*
X540880Y1152875D01*
X540880Y1152874D01*
X540880Y1152874D01*
X540880D01*
X540880Y1152874D01*
X540880Y1152874D01*
X540880Y1152874D01*
X540880Y1152874D01*
X540880D01*
X540880Y1152874D01*
X540880Y1152874D01*
X540881Y1152874D01*
X540881Y1152874D01*
X540881Y1152874D01*
Y1152874D01*
X540881Y1152874D01*
X540881Y1152874D01*
X540881D01*
X540881Y1152874D01*
X540881Y1152874D01*
X540881Y1152874D01*
X540881Y1152874D01*
X540881Y1152874D01*
X540881Y1152874D01*
X540881Y1152874D01*
X540881Y1152874D01*
X540881Y1152874D01*
X540881D01*
Y1152874D01*
X540881D01*
X540881Y1152874D01*
X540881Y1152874D01*
X540881D01*
X540881Y1152874D01*
X540881Y1152874D01*
X540881Y1152874D01*
X540881Y1152873D01*
X540881Y1152873D01*
X540881Y1152873D01*
X540881Y1152873D01*
Y1152873D01*
X540881Y1152873D01*
X540881Y1152873D01*
X540881Y1152873D01*
Y1152873D01*
X540881Y1152873D01*
X540882Y1152873D01*
X540882Y1152873D01*
X540882Y1152873D01*
Y1152873D01*
X540882Y1152873D01*
Y1152873D01*
X540882Y1152873D01*
X540882Y1152873D01*
X540882Y1152873D01*
Y1152873D01*
X540882Y1152873D01*
Y1152873D01*
X540882Y1152872D01*
X540882Y1152872D01*
Y1152872D01*
X540882Y1152872D01*
X540882Y1152872D01*
X540882D01*
X540882Y1152872D01*
X540883Y1152872D01*
X540883D01*
X540883Y1152872D01*
X540886Y1152871D01*
X540886Y1152871D01*
X540886Y1152871D01*
X540886Y1152870D01*
X540887Y1152870D01*
X540887Y1152870D01*
X540887Y1152870D01*
X540887Y1152870D01*
X540888Y1152870D01*
X540888Y1152870D01*
X540888Y1152870D01*
Y1152870D01*
X540888Y1152870D01*
X540888D01*
X540888Y1152870D01*
X540888Y1152870D01*
X540888D01*
X540888Y1152870D01*
X540888Y1152870D01*
X540888D01*
X540888Y1152870D01*
X540888Y1152870D01*
X540889Y1152870D01*
X540889Y1152869D01*
X540889Y1152869D01*
X540889Y1152869D01*
X540889Y1152869D01*
X540891Y1152868D01*
X540891Y1152868D01*
X540891Y1152868D01*
X540891Y1152868D01*
X540891Y1152868D01*
X540892Y1152868D01*
X540892Y1152868D01*
Y1152868D01*
X540892Y1152868D01*
X540892Y1152868D01*
X540892Y1152868D01*
X540892Y1152868D01*
X540892Y1152867D01*
X540893Y1152867D01*
X540893Y1152867D01*
X540893Y1152867D01*
X540893Y1152867D01*
X540893Y1152867D01*
X540893Y1152867D01*
X540893Y1152867D01*
X540893Y1152867D01*
X540893Y1152867D01*
X540893Y1152867D01*
X540893Y1152867D01*
X540893Y1152867D01*
X540893Y1152867D01*
X540894Y1152867D01*
X540894Y1152867D01*
X540894Y1152867D01*
X540894Y1152867D01*
X540894Y1152867D01*
X540894Y1152867D01*
X540894Y1152867D01*
X540894D01*
X540894Y1152867D01*
X540894D01*
X540894Y1152867D01*
X540894Y1152867D01*
X540894Y1152867D01*
X540894Y1152867D01*
X540894Y1152867D01*
X540894Y1152866D01*
X540894Y1152866D01*
X540894D01*
X540894Y1152866D01*
X540894Y1152866D01*
X540894Y1152866D01*
X540894Y1152866D01*
X540894Y1152866D01*
X540894D01*
X540894Y1152866D01*
X540894Y1152866D01*
X540894Y1152866D01*
X540896Y1152867D01*
X540896Y1152867D01*
X540897Y1152866D01*
X540897Y1152866D01*
X540899Y1152867D01*
X540900Y1152867D01*
X540903Y1152869D01*
X540910Y1152871D01*
X540910Y1152871D01*
X540910Y1152872D01*
X540910Y1152872D01*
X540911Y1152872D01*
X540911Y1152872D01*
X540911Y1152872D01*
X540911Y1152872D01*
X540911Y1152872D01*
X540911D01*
X540911Y1152872D01*
X540912Y1152872D01*
X540912Y1152872D01*
X540912Y1152872D01*
X540912Y1152872D01*
X540912Y1152873D01*
X540912Y1152873D01*
X540912Y1152873D01*
X540912Y1152873D01*
Y1152873D01*
X540912Y1152873D01*
X540912Y1152873D01*
Y1152873D01*
X540912Y1152873D01*
X540912Y1152873D01*
X540912Y1152873D01*
X540912Y1152874D01*
X540912Y1152874D01*
X540913Y1152874D01*
X540913Y1152874D01*
X540913Y1152874D01*
X540913Y1152875D01*
X540913Y1152875D01*
X540913Y1152875D01*
X540913Y1152876D01*
X540914Y1152879D01*
X540918Y1152885D01*
Y1152885D01*
X540918D01*
Y1152885D01*
Y1152885D01*
X540918Y1152885D01*
X540918Y1152885D01*
Y1152885D01*
X540918Y1152885D01*
X540918Y1152885D01*
Y1152885D01*
X540918Y1152886D01*
X540918Y1152886D01*
Y1152886D01*
X540918Y1152886D01*
X540918Y1152886D01*
X540918Y1152886D01*
X540918Y1152886D01*
Y1152886D01*
X540918Y1152886D01*
X540918Y1152886D01*
X540918Y1152886D01*
X540918Y1152886D01*
X540918Y1152886D01*
X540918Y1152887D01*
X540918Y1152887D01*
X540918Y1152887D01*
X540918Y1152888D01*
Y1152888D01*
X540918Y1152888D01*
Y1152888D01*
X540918D01*
Y1152888D01*
Y1152888D01*
Y1152888D01*
Y1152890D01*
X540918Y1152890D01*
Y1152890D01*
Y1152891D01*
Y1152893D01*
Y1152898D01*
X540918Y1152899D01*
Y1152900D01*
Y1152900D01*
Y1152936D01*
Y1152939D01*
Y1152943D01*
Y1152944D01*
Y1152957D01*
Y1152958D01*
Y1152960D01*
Y1152960D01*
X540918Y1152984D01*
Y1152988D01*
Y1152988D01*
X540918Y1153083D01*
Y1155595D01*
X540921Y1155629D01*
X540957Y1155792D01*
X541034Y1155931D01*
X541053Y1155949D01*
X541083Y1155965D01*
X541083Y1155965D01*
X541083Y1155965D01*
X541223Y1156043D01*
X541357Y1156086D01*
X541397D01*
X541439Y1156077D01*
D02*
G37*
G36*
X553041Y1153747D02*
X553170Y1153677D01*
X553186Y1153664D01*
X553204Y1153646D01*
X553278Y1153510D01*
X553308Y1153345D01*
X553307Y1153310D01*
X553307Y1153310D01*
X553307Y1153310D01*
Y1148845D01*
Y1148791D01*
X553280Y1148631D01*
X553208Y1148502D01*
X553187Y1148485D01*
X553187Y1148484D01*
X553186Y1148484D01*
X553166Y1148465D01*
X553046Y1148395D01*
X552889Y1148365D01*
X552788D01*
X552642Y1148394D01*
X552509Y1148467D01*
X552482Y1148488D01*
X552464Y1148506D01*
X552397Y1148628D01*
X552367Y1148796D01*
X552366Y1148838D01*
Y1151717D01*
Y1151838D01*
X552364Y1151841D01*
X552365Y1151844D01*
X552257Y1152205D01*
X552255Y1152208D01*
X552254Y1152212D01*
X552002Y1152543D01*
X552000Y1152544D01*
X551999Y1152547D01*
X551926Y1152608D01*
X551925Y1152608D01*
X551925Y1152609D01*
X551853Y1152664D01*
X551850Y1152664D01*
X551848Y1152666D01*
X551425Y1152845D01*
X551422Y1152845D01*
X551420Y1152847D01*
X550895Y1152932D01*
X550894Y1152932D01*
X550893Y1152932D01*
X550770Y1152940D01*
X550770Y1152939D01*
X550769Y1152940D01*
X550700D01*
X550699Y1152939D01*
X550698Y1152940D01*
X550490Y1152920D01*
X550490Y1152920D01*
X550489Y1152920D01*
X550197Y1152881D01*
X550197Y1152881D01*
X550197Y1152881D01*
X550129Y1152871D01*
X550128Y1152871D01*
X550128Y1152871D01*
X550112Y1152868D01*
X549997Y1152852D01*
X549928D01*
X549752Y1152931D01*
X549627Y1153120D01*
X549610Y1153173D01*
X549610Y1153176D01*
X549606Y1153260D01*
X549605Y1153262D01*
X549605Y1153265D01*
X549603Y1153275D01*
Y1153318D01*
X549682Y1153462D01*
X549847Y1153609D01*
X549888Y1153638D01*
X549934Y1153662D01*
X550235Y1153738D01*
X550609Y1153780D01*
X550693Y1153789D01*
X550812D01*
X551174Y1153738D01*
X551543Y1153624D01*
X551607Y1153593D01*
X551608Y1153593D01*
X551608Y1153593D01*
X551679Y1153561D01*
X552003Y1153358D01*
X552266Y1153123D01*
Y1153123D01*
X552266D01*
X552326Y1153057D01*
X552328Y1153055D01*
X552328Y1153055D01*
X552328D01*
X552328Y1153055D01*
X552328Y1153055D01*
X552328Y1153055D01*
X552328Y1153055D01*
X552328Y1153055D01*
X552329Y1153055D01*
X552329Y1153055D01*
X552329Y1153055D01*
X552329Y1153055D01*
X552329Y1153055D01*
X552329Y1153055D01*
X552329Y1153054D01*
X552329D01*
X552329Y1153054D01*
X552329Y1153054D01*
X552329Y1153054D01*
X552329D01*
Y1153054D01*
X552329Y1153054D01*
X552329D01*
X552329Y1153054D01*
X552329Y1153054D01*
X552329Y1153054D01*
X552329D01*
X552329Y1153054D01*
X552329Y1153054D01*
Y1153054D01*
X552329Y1153054D01*
X552329Y1153054D01*
Y1153054D01*
X552329Y1153054D01*
X552329Y1153054D01*
X552329Y1153054D01*
X552329Y1153054D01*
X552329Y1153054D01*
X552329Y1153054D01*
Y1153054D01*
X552329Y1153054D01*
X552329Y1153054D01*
Y1153054D01*
Y1153054D01*
X552329D01*
Y1153054D01*
X552329Y1153054D01*
X552329Y1153054D01*
X552329Y1153054D01*
Y1153054D01*
X552329Y1153054D01*
X552329Y1153054D01*
Y1153054D01*
X552329Y1153054D01*
X552329Y1153054D01*
Y1153054D01*
Y1153054D01*
X552329Y1153054D01*
Y1153054D01*
X552329Y1153054D01*
Y1153054D01*
X552329D01*
Y1153054D01*
X552329D01*
X552329Y1153053D01*
X552343Y1153047D01*
X552343Y1153047D01*
X552344Y1153048D01*
X552344Y1153048D01*
X552344Y1153048D01*
X552344Y1153048D01*
X552344D01*
X552344Y1153048D01*
X552344Y1153048D01*
X552344Y1153047D01*
X552344Y1153047D01*
X552344Y1153047D01*
X552344D01*
X552345Y1153048D01*
X552346Y1153048D01*
X552346Y1153048D01*
X552347Y1153048D01*
X552352Y1153050D01*
X552356Y1153052D01*
X552358Y1153053D01*
X552358Y1153053D01*
X552359Y1153053D01*
X552359Y1153053D01*
Y1153053D01*
X552359Y1153053D01*
X552359D01*
Y1153053D01*
X552359Y1153053D01*
X552359D01*
X552359Y1153053D01*
X552359Y1153053D01*
X552359D01*
X552359Y1153053D01*
X552359Y1153053D01*
X552359Y1153054D01*
X552359Y1153054D01*
X552359Y1153054D01*
X552359Y1153054D01*
X552360Y1153054D01*
X552360Y1153054D01*
X552360Y1153054D01*
X552360Y1153054D01*
X552360Y1153054D01*
X552360Y1153054D01*
Y1153054D01*
X552360Y1153054D01*
X552360Y1153054D01*
X552360Y1153055D01*
X552360Y1153055D01*
X552360Y1153055D01*
X552360Y1153055D01*
X552360Y1153056D01*
Y1153056D01*
X552360Y1153056D01*
X552360Y1153056D01*
X552361Y1153057D01*
X552361Y1153057D01*
X552362Y1153060D01*
Y1153060D01*
X552362D01*
X552362Y1153061D01*
X552362Y1153061D01*
X552362Y1153061D01*
X552362Y1153061D01*
X552363Y1153061D01*
X552363Y1153061D01*
X552363Y1153061D01*
X552363Y1153062D01*
X552363Y1153063D01*
X552363Y1153063D01*
X552366Y1153067D01*
X552366D01*
Y1153067D01*
X552366Y1153067D01*
X552366Y1153067D01*
Y1153067D01*
X552366Y1153067D01*
Y1153067D01*
X552366Y1153067D01*
X552366Y1153067D01*
X552366Y1153067D01*
X552366Y1153067D01*
Y1153067D01*
X552366Y1153067D01*
X552366Y1153067D01*
X552366D01*
X552366Y1153067D01*
X552365Y1153068D01*
X552365Y1153068D01*
X552365Y1153068D01*
Y1153068D01*
Y1153068D01*
X552365Y1153068D01*
Y1153068D01*
Y1153068D01*
X552365Y1153068D01*
Y1153068D01*
X552365Y1153068D01*
X552365D01*
Y1153068D01*
X552365Y1153068D01*
X552366Y1153068D01*
X552366Y1153069D01*
X552366Y1153069D01*
Y1153069D01*
Y1153069D01*
X552366D01*
Y1153069D01*
Y1153069D01*
Y1153070D01*
Y1153070D01*
Y1153070D01*
Y1153070D01*
Y1153070D01*
X552366Y1153071D01*
X552366Y1153071D01*
X552366Y1153072D01*
Y1153077D01*
Y1153077D01*
Y1153077D01*
X552366Y1153077D01*
Y1153077D01*
Y1153078D01*
Y1153078D01*
Y1153078D01*
Y1153078D01*
Y1153078D01*
X552366Y1153079D01*
X552366Y1153079D01*
X552366Y1153079D01*
Y1153082D01*
Y1153082D01*
Y1153082D01*
X552366Y1153082D01*
X552366Y1153083D01*
Y1153090D01*
X552366Y1153090D01*
X552366Y1153090D01*
Y1153090D01*
X552366Y1153090D01*
X552366Y1153090D01*
Y1153092D01*
Y1153092D01*
Y1153095D01*
Y1153120D01*
Y1153120D01*
Y1153120D01*
Y1153120D01*
Y1153129D01*
Y1153129D01*
X552366Y1153129D01*
X552366Y1153129D01*
X552366D01*
Y1153129D01*
X552366Y1153129D01*
Y1153129D01*
X552366Y1153129D01*
X552366Y1153129D01*
X552366Y1153129D01*
Y1153129D01*
X552366Y1153130D01*
Y1153130D01*
Y1153131D01*
Y1153142D01*
Y1153146D01*
Y1153146D01*
X552366Y1153146D01*
X552366Y1153162D01*
X552366Y1153164D01*
X552366Y1153164D01*
Y1153274D01*
Y1153329D01*
X552399Y1153496D01*
X552492Y1153648D01*
X552639Y1153742D01*
X552788Y1153783D01*
X552838Y1153789D01*
X552887D01*
X553041Y1153747D01*
D02*
G37*
G36*
X527814Y1155448D02*
X527942Y1155372D01*
X527959Y1155353D01*
X527959Y1155352D01*
X527960Y1155352D01*
X527981Y1155331D01*
X528060Y1155188D01*
X528092Y1155037D01*
X528090Y1155013D01*
X528090Y1155012D01*
X528090Y1155011D01*
Y1153592D01*
X528096Y1153576D01*
X528111Y1153570D01*
X528612D01*
X528757Y1153529D01*
X528873Y1153463D01*
X528884Y1153452D01*
X528884Y1153452D01*
X528884Y1153451D01*
X528904Y1153433D01*
X528986Y1153302D01*
X529013Y1153163D01*
X529007Y1153141D01*
X529007Y1153138D01*
X529006Y1153135D01*
Y1153091D01*
X528989Y1152959D01*
X528916Y1152854D01*
X528891Y1152844D01*
X528888Y1152841D01*
X528884Y1152840D01*
X528864Y1152820D01*
X528744Y1152740D01*
X528600Y1152714D01*
X528569Y1152720D01*
X528566Y1152720D01*
X528564Y1152721D01*
X528111D01*
X528096Y1152715D01*
X528090Y1152700D01*
Y1150261D01*
Y1150132D01*
X528038Y1149742D01*
X527906Y1149358D01*
X527868Y1149293D01*
X527868Y1149292D01*
X527867Y1149292D01*
X527830Y1149221D01*
X527613Y1148904D01*
X527323Y1148652D01*
X527250Y1148614D01*
X527250Y1148613D01*
X527249Y1148613D01*
X527184Y1148572D01*
X526836Y1148427D01*
X526494Y1148365D01*
X526148D01*
X525983Y1148395D01*
X525828Y1148474D01*
X525800Y1148497D01*
X525775Y1148518D01*
X525697Y1148641D01*
X525653Y1148800D01*
X525645Y1148838D01*
Y1148880D01*
X525685Y1149015D01*
X525752Y1149151D01*
X525752Y1149151D01*
X525753Y1149152D01*
X525765Y1149178D01*
X525781Y1149196D01*
X525976Y1149307D01*
X526453D01*
X526456Y1149308D01*
X526459Y1149308D01*
X526678Y1149368D01*
X526682Y1149371D01*
X526686Y1149372D01*
X526890Y1149530D01*
X526892Y1149532D01*
X526895Y1149534D01*
X526929Y1149582D01*
X526964Y1149626D01*
X526965Y1149628D01*
X526967Y1149630D01*
X527095Y1149878D01*
X527095Y1149881D01*
X527097Y1149884D01*
X527150Y1150184D01*
X527149Y1150186D01*
X527150Y1150188D01*
X527148Y1150258D01*
Y1152700D01*
X527142Y1152715D01*
X527127Y1152721D01*
X526250D01*
X526124Y1152738D01*
X525999Y1152812D01*
X525972Y1152839D01*
X525972Y1152839D01*
X525972Y1152839D01*
X525952Y1152859D01*
X525881Y1152962D01*
X525850Y1153099D01*
X525850Y1153136D01*
Y1153176D01*
X525892Y1153301D01*
X525962Y1153428D01*
X525962Y1153429D01*
X525963Y1153430D01*
X525974Y1153454D01*
X525990Y1153470D01*
X526123Y1153527D01*
X526270Y1153562D01*
X526270Y1153562D01*
X526271Y1153562D01*
X526295Y1153570D01*
X527127D01*
X527142Y1153576D01*
X527148Y1153592D01*
Y1155011D01*
Y1155057D01*
X527194Y1155197D01*
X527270Y1155332D01*
X527283Y1155354D01*
X527302Y1155373D01*
X527440Y1155444D01*
X527594Y1155480D01*
X527621Y1155484D01*
X527668D01*
X527814Y1155448D01*
D02*
G37*
G36*
X585271Y1155819D02*
X590554D01*
X590738Y1155768D01*
X590918Y1155652D01*
X590948Y1155621D01*
X590948Y1155621D01*
X590948Y1155621D01*
X590977Y1155590D01*
X591087Y1155401D01*
X591137Y1155205D01*
Y1155141D01*
Y1155076D01*
X591086Y1154877D01*
X590947Y1154662D01*
X590742Y1154516D01*
X590554Y1154463D01*
X585271D01*
X585264Y1154460D01*
X585261Y1154461D01*
X585134D01*
X584946Y1154515D01*
X584741Y1154660D01*
X584603Y1154877D01*
X584552Y1155075D01*
Y1155140D01*
Y1155206D01*
X584603Y1155404D01*
X584741Y1155620D01*
X584946Y1155766D01*
X585134Y1155819D01*
X585260D01*
X585265Y1155821D01*
X585271Y1155819D01*
D02*
G37*
G36*
X561162Y1153691D02*
X561715Y1153492D01*
X561812Y1153441D01*
X561913Y1153384D01*
X562369Y1153016D01*
X562719Y1152573D01*
X562769Y1152479D01*
X562769Y1152479D01*
X562769Y1152479D01*
X562825Y1152377D01*
X563032Y1151807D01*
X563115Y1151196D01*
X563110Y1151074D01*
X563110Y1151073D01*
X563110Y1151073D01*
Y1150888D01*
X563035Y1150331D01*
X562832Y1149776D01*
X562769Y1149674D01*
X562769Y1149674D01*
X562769Y1149673D01*
X562712Y1149571D01*
X562366Y1149123D01*
X561919Y1148767D01*
X561812Y1148711D01*
X561812Y1148711D01*
X561812Y1148711D01*
X561710Y1148654D01*
X561161Y1148452D01*
X560600Y1148365D01*
X560231D01*
X559681Y1148449D01*
X559128Y1148652D01*
X559025Y1148711D01*
X559025Y1148711D01*
X558924Y1148769D01*
X558496Y1149124D01*
X558140Y1149572D01*
X558074Y1149674D01*
X558018Y1149776D01*
X557820Y1150319D01*
X557733Y1150935D01*
X557732Y1151073D01*
Y1151256D01*
X557832Y1151807D01*
X558031Y1152370D01*
X558080Y1152480D01*
X558137Y1152581D01*
X558494Y1153017D01*
X558936Y1153378D01*
X559036Y1153442D01*
X559136Y1153499D01*
X559690Y1153689D01*
X560291Y1153780D01*
X560415Y1153789D01*
X560601D01*
X561162Y1153691D01*
D02*
G37*
G36*
X546852D02*
X547405Y1153492D01*
X547502Y1153441D01*
X547603Y1153384D01*
X548058Y1153016D01*
X548408Y1152573D01*
X548458Y1152479D01*
X548458Y1152479D01*
X548458Y1152479D01*
X548515Y1152377D01*
X548722Y1151807D01*
X548805Y1151196D01*
X548799Y1151074D01*
X548799Y1151073D01*
X548799Y1151073D01*
Y1150888D01*
X548724Y1150331D01*
X548522Y1149776D01*
X548459Y1149674D01*
X548459Y1149674D01*
X548458Y1149673D01*
X548402Y1149572D01*
X548056Y1149123D01*
X547608Y1148767D01*
X547502Y1148711D01*
X547502Y1148711D01*
X547501Y1148711D01*
X547399Y1148654D01*
X546850Y1148452D01*
X546290Y1148365D01*
X545921D01*
X545370Y1148449D01*
X544818Y1148652D01*
X544715Y1148711D01*
X544715D01*
X544715Y1148711D01*
X544614Y1148769D01*
X544186Y1149124D01*
X543829Y1149572D01*
X543764Y1149674D01*
X543708Y1149776D01*
X543509Y1150319D01*
X543423Y1150935D01*
X543422Y1151073D01*
Y1151256D01*
X543522Y1151807D01*
X543721Y1152370D01*
X543770Y1152480D01*
X543826Y1152581D01*
X544183Y1153017D01*
X544626Y1153378D01*
X544725Y1153442D01*
X544826Y1153499D01*
X545379Y1153689D01*
X545981Y1153780D01*
X546104Y1153789D01*
X546290D01*
X546852Y1153691D01*
D02*
G37*
G36*
X533289D02*
X533842Y1153492D01*
X533939Y1153441D01*
X534040Y1153384D01*
X534495Y1153016D01*
X534845Y1152573D01*
X534895Y1152479D01*
X534895Y1152479D01*
X534895Y1152479D01*
X534952Y1152377D01*
X535159Y1151807D01*
X535242Y1151196D01*
X535236Y1151074D01*
X535237Y1151073D01*
X535236Y1151073D01*
Y1150888D01*
X535161Y1150331D01*
X534959Y1149776D01*
X534896Y1149674D01*
X534896Y1149674D01*
X534895Y1149673D01*
X534839Y1149571D01*
X534492Y1149123D01*
X534045Y1148767D01*
X533939Y1148711D01*
X533939Y1148711D01*
X533938Y1148711D01*
X533836Y1148654D01*
X533287Y1148452D01*
X532727Y1148365D01*
X532358D01*
X531807Y1148449D01*
X531255Y1148652D01*
X531152Y1148711D01*
X531152Y1148711D01*
X531051Y1148769D01*
X530623Y1149124D01*
X530266Y1149572D01*
X530201Y1149674D01*
X530145Y1149776D01*
X529947Y1150319D01*
X529860Y1150935D01*
X529859Y1151073D01*
Y1151256D01*
X529959Y1151807D01*
X530158Y1152370D01*
X530207Y1152480D01*
X530263Y1152581D01*
X530620Y1153017D01*
X531063Y1153378D01*
X531162Y1153442D01*
X531263Y1153499D01*
X531816Y1153689D01*
X532418Y1153780D01*
X532541Y1153789D01*
X532727D01*
X533289Y1153691D01*
D02*
G37*
G36*
X568662Y1156043D02*
X568790Y1155967D01*
X568806Y1155951D01*
X568827Y1155931D01*
X568908Y1155794D01*
X568939Y1155641D01*
X568937Y1155612D01*
X568937Y1155611D01*
X568937Y1155610D01*
Y1150183D01*
Y1150058D01*
X568891Y1149685D01*
X568783Y1149309D01*
X568752Y1149241D01*
Y1149241D01*
X568752Y1149241D01*
X568722Y1149172D01*
X568541Y1148869D01*
X568296Y1148631D01*
X568234Y1148595D01*
X568234Y1148594D01*
X568233Y1148594D01*
X568178Y1148556D01*
X567889Y1148423D01*
X567583Y1148365D01*
X567399D01*
X567206Y1148395D01*
X567026Y1148475D01*
X566994Y1148498D01*
X566994Y1148498D01*
X566964Y1148519D01*
X566861Y1148642D01*
X566815Y1148799D01*
X566814Y1148836D01*
Y1148880D01*
X566857Y1149015D01*
X566924Y1149151D01*
X566924Y1149152D01*
X566924Y1149152D01*
X566934Y1149178D01*
X566950Y1149196D01*
X567161Y1149307D01*
X567533D01*
X567536Y1149308D01*
X567540Y1149308D01*
X567694Y1149365D01*
X567698Y1149369D01*
X567702Y1149371D01*
X567835Y1149511D01*
X567836Y1149515D01*
X567839Y1149518D01*
X567856Y1149558D01*
X567878Y1149597D01*
X567879Y1149599D01*
X567880Y1149600D01*
X567964Y1149821D01*
X567964Y1149824D01*
X567965Y1149826D01*
X567998Y1150103D01*
X567997Y1150105D01*
X567998Y1150107D01*
X567995Y1150175D01*
Y1155610D01*
Y1155654D01*
X568029Y1155791D01*
X568107Y1155925D01*
X568128Y1155953D01*
X568148Y1155973D01*
X568287Y1156038D01*
X568442Y1156077D01*
X568443Y1156078D01*
X568443Y1156078D01*
X568469Y1156086D01*
X568514D01*
X568662Y1156043D01*
D02*
G37*
G36*
X573217Y1153691D02*
X573758Y1153492D01*
X573855Y1153441D01*
X573954Y1153384D01*
X574398Y1153015D01*
X574742Y1152570D01*
X574791Y1152474D01*
X574791Y1152474D01*
X574791Y1152474D01*
X574847Y1152371D01*
X575051Y1151801D01*
X575133Y1151194D01*
X575127Y1151074D01*
X575127Y1151073D01*
X575127Y1151073D01*
Y1150888D01*
X575050Y1150331D01*
X574838Y1149776D01*
X574772Y1149675D01*
X574772Y1149674D01*
X574771Y1149674D01*
X574712Y1149572D01*
X574359Y1149123D01*
X573896Y1148767D01*
X573782Y1148712D01*
X573782Y1148711D01*
X573781Y1148711D01*
X573676Y1148654D01*
X573108Y1148452D01*
X572535Y1148365D01*
X572233D01*
X571898Y1148400D01*
X571493Y1148502D01*
X571403Y1148535D01*
X571403Y1148535D01*
X571403Y1148535D01*
X571321Y1148564D01*
X570957Y1148723D01*
X570637Y1148927D01*
X570578Y1148977D01*
X570577Y1148977D01*
X570577Y1148977D01*
X570553Y1148996D01*
X570478Y1149102D01*
X570435Y1149237D01*
X570428Y1149267D01*
Y1149305D01*
X570474Y1149430D01*
X570574Y1149566D01*
X570600Y1149595D01*
X570614Y1149609D01*
X570727Y1149658D01*
X570858Y1149686D01*
X570882Y1149690D01*
X570923D01*
X571056Y1149657D01*
X571176Y1149599D01*
X571192Y1149588D01*
X571192Y1149588D01*
X571192Y1149588D01*
X571226Y1149562D01*
X571228Y1149562D01*
X571229Y1149561D01*
X571441Y1149441D01*
X571442Y1149441D01*
X571443Y1149440D01*
X571677Y1149339D01*
X571677Y1149339D01*
X571678Y1149339D01*
X571723Y1149322D01*
X571724Y1149322D01*
X571724Y1149322D01*
X571778Y1149304D01*
X571779Y1149304D01*
X571781Y1149303D01*
X572294Y1149214D01*
X572296Y1149214D01*
X572298Y1149213D01*
X572344Y1149215D01*
X572435D01*
X572436Y1149215D01*
X572437Y1149215D01*
X572709Y1149236D01*
X572710Y1149237D01*
X572711Y1149236D01*
X573047Y1149306D01*
X573049Y1149307D01*
X573051Y1149307D01*
X573354Y1149436D01*
X573356Y1149437D01*
X573358Y1149438D01*
X573563Y1149578D01*
X573564Y1149580D01*
X573565Y1149581D01*
X573623Y1149637D01*
X573686Y1149687D01*
X573686Y1149689D01*
X573687Y1149689D01*
X573862Y1149863D01*
X573862Y1149864D01*
X573864Y1149865D01*
X574053Y1150123D01*
X574054Y1150125D01*
X574055Y1150127D01*
X574187Y1150418D01*
X574187Y1150420D01*
X574189Y1150422D01*
X574228Y1150587D01*
X574247Y1150663D01*
X574247Y1150666D01*
X574247Y1150667D01*
X574248Y1150673D01*
X574248Y1150678D01*
X574248D01*
X574248Y1150678D01*
Y1150678D01*
X574248Y1150678D01*
X574248Y1150678D01*
X574248Y1150679D01*
X574250Y1150698D01*
X574253Y1150743D01*
X574253Y1150743D01*
X574254Y1150746D01*
X574254Y1150747D01*
X574254Y1150748D01*
X574254Y1150748D01*
X574254Y1150748D01*
X574254Y1150748D01*
X574254Y1150750D01*
Y1150750D01*
X574249Y1150764D01*
X574248Y1150764D01*
X574248Y1150764D01*
X574248Y1150765D01*
X574247Y1150765D01*
X574247Y1150765D01*
X574247Y1150765D01*
X574246Y1150765D01*
X574246Y1150766D01*
X574241Y1150768D01*
X574234Y1150771D01*
X574234Y1150771D01*
X574234D01*
X574234Y1150771D01*
X574234D01*
X574234Y1150771D01*
X574234Y1150771D01*
X574234Y1150771D01*
X574233Y1150771D01*
X574233Y1150771D01*
X574233Y1150771D01*
X574233Y1150771D01*
X574232Y1150771D01*
X574232Y1150771D01*
X574232Y1150771D01*
X574232D01*
X574232Y1150771D01*
X574232Y1150771D01*
X574232Y1150771D01*
X574232D01*
X574230Y1150771D01*
X574227D01*
X574225Y1150771D01*
X574221D01*
X574164Y1150771D01*
X574162D01*
X574161Y1150771D01*
X570453D01*
X570326Y1150799D01*
X570206Y1150867D01*
X570186Y1150887D01*
X570166Y1150905D01*
X570098Y1151006D01*
X570066Y1151144D01*
X570064Y1151181D01*
Y1151359D01*
X570145Y1151897D01*
X570314Y1152437D01*
X570358Y1152538D01*
X570406Y1152636D01*
X570725Y1153051D01*
X571115Y1153397D01*
X571198Y1153459D01*
X571287Y1153513D01*
X571805Y1153693D01*
X572376Y1153780D01*
X572492Y1153789D01*
X572673D01*
X573217Y1153691D01*
D02*
G37*
G36*
X585271Y1149787D02*
X589202D01*
X589368Y1149736D01*
X589530Y1149621D01*
X589556Y1149590D01*
X589556Y1149590D01*
X589557Y1149590D01*
X589583Y1149559D01*
X589683Y1149370D01*
X589727Y1149174D01*
Y1149109D01*
Y1149044D01*
X589681Y1148845D01*
X589556Y1148629D01*
X589371Y1148484D01*
X589203Y1148431D01*
X585271D01*
X585264Y1148429D01*
X585261Y1148430D01*
X585134D01*
X584946Y1148483D01*
X584741Y1148629D01*
X584603Y1148845D01*
X584552Y1149044D01*
Y1149109D01*
Y1149175D01*
X584603Y1149373D01*
X584741Y1149589D01*
X584946Y1149735D01*
X585134Y1149788D01*
X585260D01*
X585265Y1149790D01*
X585271Y1149787D01*
D02*
G37*
G36*
X565709Y1156043D02*
X565838Y1155967D01*
X565854Y1155951D01*
X565875Y1155931D01*
X565955Y1155794D01*
X565987Y1155641D01*
X565984Y1155612D01*
X565984Y1155611D01*
X565984Y1155610D01*
Y1150183D01*
Y1150058D01*
X565938Y1149685D01*
X565830Y1149309D01*
X565800Y1149241D01*
Y1149241D01*
X565800Y1149241D01*
X565769Y1149172D01*
X565588Y1148869D01*
X565344Y1148631D01*
X565282Y1148595D01*
X565281Y1148594D01*
X565280Y1148594D01*
X565226Y1148556D01*
X564936Y1148423D01*
X564631Y1148365D01*
X564446D01*
X564253Y1148395D01*
X564073Y1148475D01*
X564041Y1148498D01*
X564041Y1148498D01*
X564012Y1148519D01*
X563908Y1148642D01*
X563862Y1148799D01*
X563861Y1148836D01*
Y1148880D01*
X563904Y1149015D01*
X563971Y1149151D01*
X563971Y1149152D01*
X563972Y1149152D01*
X563982Y1149178D01*
X563997Y1149196D01*
X564208Y1149307D01*
X564580D01*
X564584Y1149308D01*
X564587Y1149308D01*
X564741Y1149365D01*
X564745Y1149369D01*
X564749Y1149371D01*
X564882Y1149511D01*
X564883Y1149515D01*
X564886Y1149518D01*
X564903Y1149558D01*
X564926Y1149597D01*
X564926Y1149599D01*
X564927Y1149600D01*
X565011Y1149821D01*
X565011Y1149824D01*
X565012Y1149826D01*
X565045Y1150104D01*
X565044Y1150105D01*
X565045Y1150107D01*
X565042Y1150175D01*
Y1155610D01*
Y1155654D01*
X565076Y1155791D01*
X565155Y1155925D01*
X565175Y1155953D01*
X565195Y1155973D01*
X565335Y1156038D01*
X565489Y1156077D01*
X565490Y1156078D01*
X565491Y1156078D01*
X565516Y1156086D01*
X565561D01*
X565709Y1156043D01*
D02*
G37*
%LPC*%
G36*
X539316Y1152940D02*
X539197D01*
X539196Y1152939D01*
X539194Y1152940D01*
X539120Y1152932D01*
X539120Y1152932D01*
X539119Y1152932D01*
X538736Y1152868D01*
X538734Y1152867D01*
X538732Y1152867D01*
X538366Y1152738D01*
X538364Y1152736D01*
X538362Y1152736D01*
X538296Y1152696D01*
X538295Y1152694D01*
X538293Y1152694D01*
X538236Y1152648D01*
X538235Y1152648D01*
X538235Y1152648D01*
X537949Y1152400D01*
X537948Y1152398D01*
X537946Y1152398D01*
X537698Y1152103D01*
X537697Y1152101D01*
X537696Y1152099D01*
X537657Y1152030D01*
X537657Y1152029D01*
X537656Y1152028D01*
X537624Y1151953D01*
X537624Y1151952D01*
X537624Y1151952D01*
X537492Y1151577D01*
X537492Y1151575D01*
X537491Y1151573D01*
X537423Y1151209D01*
X537423Y1151207D01*
X537422Y1151205D01*
Y1151083D01*
X537423Y1151082D01*
X537422Y1151081D01*
X537430Y1150994D01*
X537431Y1150993D01*
X537430Y1150993D01*
X537493Y1150583D01*
X537494Y1150581D01*
X537493Y1150579D01*
X537617Y1150204D01*
X537618Y1150202D01*
X537619Y1150200D01*
X537657Y1150130D01*
X537658Y1150129D01*
X537658Y1150129D01*
X537703Y1150055D01*
X537704Y1150054D01*
X537704Y1150053D01*
X537942Y1149745D01*
X537944Y1149743D01*
X537945Y1149741D01*
X538226Y1149501D01*
X538228Y1149500D01*
X538229Y1149499D01*
X538296Y1149459D01*
X538296Y1149459D01*
X538296Y1149458D01*
X538371Y1149415D01*
X538373Y1149415D01*
X538374Y1149414D01*
X538733Y1149272D01*
X538736Y1149272D01*
X538738Y1149270D01*
X539080Y1149215D01*
X539081Y1149215D01*
X539083Y1149215D01*
X539196D01*
X539286Y1149213D01*
X539287Y1149214D01*
X539289Y1149214D01*
X539678Y1149273D01*
X539680Y1149274D01*
X539683D01*
X540027Y1149417D01*
X540028Y1149418D01*
X540030Y1149418D01*
X540096Y1149458D01*
X540168Y1149495D01*
X540170Y1149497D01*
X540172Y1149498D01*
X540464Y1149742D01*
X540465Y1149745D01*
X540468Y1149746D01*
X540690Y1150057D01*
X540691Y1150059D01*
X540692Y1150060D01*
X540729Y1150129D01*
X540775Y1150194D01*
X540775Y1150197D01*
X540777Y1150199D01*
X540913Y1150573D01*
X540913Y1150576D01*
X540915Y1150578D01*
X540957Y1150955D01*
X540957Y1150956D01*
X540957Y1150957D01*
Y1151082D01*
X540966Y1151168D01*
X540965Y1151170D01*
X540966Y1151173D01*
X540914Y1151580D01*
X540912Y1151582D01*
X540912Y1151585D01*
X540768Y1151958D01*
X540767Y1151959D01*
X540767Y1151960D01*
X540730Y1152029D01*
X540701Y1152092D01*
X540700Y1152094D01*
X540699Y1152096D01*
X540471Y1152397D01*
X540469Y1152398D01*
X540468Y1152401D01*
X540166Y1152654D01*
X540164Y1152654D01*
X540163Y1152655D01*
X540096Y1152696D01*
X540096Y1152696D01*
X540096Y1152696D01*
X540036Y1152730D01*
X540034Y1152731D01*
X540033Y1152732D01*
X539681Y1152869D01*
X539679Y1152869D01*
X539677Y1152870D01*
X539320Y1152939D01*
X539318Y1152939D01*
X539316Y1152940D01*
D02*
G37*
G36*
X560414D02*
X560298D01*
X560296Y1152939D01*
X560294Y1152939D01*
X559945Y1152871D01*
X559944Y1152870D01*
X559942Y1152870D01*
X559582Y1152736D01*
X559581Y1152735D01*
X559580Y1152735D01*
X559508Y1152702D01*
X559507Y1152701D01*
X559506Y1152701D01*
X559440Y1152662D01*
X559438Y1152660D01*
X559436Y1152659D01*
X559152Y1152407D01*
X559151Y1152405D01*
X559149Y1152404D01*
X558919Y1152102D01*
X558919Y1152101D01*
X558918Y1152100D01*
X558879Y1152036D01*
X558878Y1152035D01*
X558878Y1152034D01*
X558841Y1151964D01*
X558841Y1151962D01*
X558840Y1151961D01*
X558714Y1151570D01*
X558715Y1151568D01*
X558714Y1151567D01*
X558656Y1151156D01*
X558657Y1151155D01*
X558656Y1151153D01*
X558653Y1151074D01*
X558653Y1151073D01*
X558653Y1151073D01*
Y1150946D01*
X558654Y1150945D01*
X558653Y1150943D01*
X558713Y1150564D01*
X558714Y1150562D01*
X558714Y1150560D01*
X558842Y1150185D01*
X558843Y1150184D01*
X558844Y1150182D01*
X558878Y1150115D01*
X558878Y1150115D01*
X558878Y1150114D01*
X558915Y1150045D01*
X558916Y1150044D01*
X558917Y1150042D01*
X559154Y1149736D01*
X559156Y1149734D01*
X559157Y1149732D01*
X559443Y1149492D01*
X559444Y1149492D01*
X559445Y1149490D01*
X559506Y1149454D01*
X559506Y1149453D01*
X559506Y1149453D01*
X559573Y1149414D01*
X559575Y1149414D01*
X559576Y1149413D01*
X559939Y1149273D01*
X559941Y1149273D01*
X559943Y1149272D01*
X560332Y1149214D01*
X560334Y1149214D01*
X560335Y1149213D01*
X560414Y1149215D01*
X560534D01*
X560536Y1149215D01*
X560537Y1149215D01*
X560897Y1149269D01*
X560899Y1149271D01*
X560901Y1149271D01*
X561259Y1149410D01*
X561261Y1149411D01*
X561263Y1149412D01*
X561328Y1149454D01*
X561394Y1149493D01*
X561395Y1149494D01*
X561396Y1149494D01*
X561692Y1149732D01*
X561693Y1149735D01*
X561695Y1149736D01*
X561925Y1150040D01*
X561926Y1150042D01*
X561927Y1150044D01*
X561961Y1150115D01*
X561998Y1150184D01*
X561998Y1150186D01*
X561999Y1150187D01*
X562136Y1150550D01*
X562136Y1150553D01*
X562138Y1150555D01*
X562192Y1150973D01*
X562192Y1150975D01*
X562192Y1150977D01*
X562189Y1151073D01*
Y1151197D01*
X562188Y1151198D01*
X562188Y1151200D01*
X562138Y1151570D01*
X562137Y1151572D01*
X562137Y1151575D01*
X562004Y1151956D01*
X562003Y1151957D01*
X562002Y1151959D01*
X561961Y1152035D01*
D01*
X561923Y1152105D01*
X561921Y1152106D01*
X561921Y1152108D01*
X561691Y1152404D01*
X561689Y1152405D01*
X561688Y1152407D01*
X561398Y1152653D01*
X561397Y1152654D01*
X561396Y1152655D01*
X561328Y1152700D01*
X561328Y1152700D01*
X561327Y1152701D01*
X561261Y1152740D01*
X561258Y1152740D01*
X561257Y1152742D01*
X560904Y1152868D01*
X560902Y1152868D01*
X560900Y1152869D01*
X560505Y1152932D01*
X560504Y1152932D01*
X560503Y1152932D01*
X560416Y1152940D01*
X560415Y1152939D01*
X560414Y1152940D01*
D02*
G37*
G36*
X549065Y1143740D02*
X548229D01*
X548161Y1143736D01*
X548093Y1143730D01*
X548035Y1143727D01*
X547980Y1143720D01*
X547928Y1143711D01*
X547883Y1143704D01*
X547844Y1143694D01*
X547808Y1143685D01*
X547776Y1143678D01*
X547753Y1143672D01*
X547730Y1143662D01*
X547714Y1143659D01*
X547705Y1143652D01*
X547698Y1143649D01*
X547695D01*
X547643Y1143623D01*
X547591Y1143591D01*
X547546Y1143555D01*
X547500Y1143513D01*
X547419Y1143429D01*
X547384Y1143386D01*
X547351Y1143344D01*
X547322Y1143302D01*
X547296Y1143263D01*
X547277Y1143228D01*
X547257Y1143195D01*
X547245Y1143169D01*
X547235Y1143150D01*
X547228Y1143137D01*
X547225Y1143134D01*
X547193Y1143059D01*
X547163Y1142978D01*
X547141Y1142894D01*
X547118Y1142807D01*
X547099Y1142719D01*
X547086Y1142632D01*
X547073Y1142544D01*
X547063Y1142463D01*
X547057Y1142385D01*
X547050Y1142311D01*
X547047Y1142246D01*
X547044Y1142188D01*
X547040Y1142142D01*
Y1142123D01*
Y1142107D01*
Y1142094D01*
Y1142084D01*
Y1142081D01*
Y1142078D01*
X547044Y1141961D01*
X547047Y1141851D01*
X547057Y1141744D01*
X547066Y1141643D01*
X547079Y1141549D01*
X547095Y1141459D01*
X547112Y1141378D01*
X547128Y1141303D01*
X547144Y1141235D01*
X547160Y1141174D01*
X547173Y1141122D01*
X547189Y1141080D01*
X547199Y1141044D01*
X547209Y1141018D01*
X547212Y1141005D01*
X547215Y1140999D01*
X547241Y1140937D01*
X547267Y1140882D01*
X547296Y1140827D01*
X547329Y1140781D01*
X547358Y1140736D01*
X547390Y1140697D01*
X547419Y1140658D01*
X547449Y1140629D01*
X547478Y1140600D01*
X547504Y1140574D01*
X547526Y1140555D01*
X547549Y1140539D01*
X547565Y1140526D01*
X547578Y1140516D01*
X547585Y1140513D01*
X547588Y1140509D01*
X547637Y1140483D01*
X547688Y1140461D01*
X547743Y1140438D01*
X547798Y1140422D01*
X547915Y1140396D01*
X548032Y1140376D01*
X548084Y1140370D01*
X548136Y1140367D01*
X548178Y1140360D01*
X548216D01*
X548249Y1140357D01*
X549065D01*
Y1143740D01*
D02*
G37*
G36*
X551670Y1143795D02*
X551654Y1143727D01*
X551635Y1143655D01*
X551596Y1143503D01*
X551554Y1143351D01*
X551531Y1143276D01*
X551512Y1143205D01*
X551492Y1143137D01*
X551473Y1143075D01*
X551456Y1143020D01*
X551443Y1142972D01*
X551431Y1142933D01*
X551421Y1142904D01*
X551418Y1142884D01*
X551414Y1142881D01*
Y1142878D01*
X551035Y1141653D01*
X552273D01*
X551868Y1142949D01*
X551823Y1143108D01*
X551784Y1143260D01*
X551767Y1143331D01*
X551751Y1143403D01*
X551735Y1143468D01*
X551722Y1143529D01*
X551709Y1143587D01*
X551699Y1143639D01*
X551690Y1143685D01*
X551683Y1143723D01*
X551677Y1143753D01*
X551674Y1143775D01*
X551670Y1143791D01*
Y1143795D01*
D02*
G37*
G36*
X577208Y1143772D02*
X576064D01*
X575993Y1143769D01*
X575928Y1143762D01*
X575867Y1143753D01*
X575812Y1143743D01*
X575757Y1143727D01*
X575711Y1143711D01*
X575666Y1143694D01*
X575627Y1143675D01*
X575595Y1143655D01*
X575565Y1143639D01*
X575539Y1143623D01*
X575517Y1143607D01*
X575500Y1143597D01*
X575491Y1143587D01*
X575484Y1143581D01*
X575481Y1143578D01*
X575445Y1143539D01*
X575416Y1143500D01*
X575390Y1143458D01*
X575368Y1143416D01*
X575348Y1143370D01*
X575332Y1143328D01*
X575309Y1143244D01*
X575300Y1143205D01*
X575293Y1143169D01*
X575290Y1143137D01*
X575287Y1143108D01*
X575283Y1143085D01*
Y1143069D01*
Y1143056D01*
Y1143053D01*
X575287Y1142968D01*
X575300Y1142894D01*
X575316Y1142823D01*
X575335Y1142764D01*
X575355Y1142716D01*
X575364Y1142696D01*
X575371Y1142680D01*
X575377Y1142664D01*
X575384Y1142654D01*
X575387Y1142651D01*
Y1142648D01*
X575429Y1142586D01*
X575475Y1142534D01*
X575520Y1142489D01*
X575565Y1142453D01*
X575604Y1142428D01*
X575637Y1142408D01*
X575650Y1142402D01*
X575659Y1142395D01*
X575663Y1142392D01*
X575666D01*
X575701Y1142379D01*
X575737Y1142366D01*
X575818Y1142346D01*
X575906Y1142330D01*
X575986Y1142321D01*
X576025Y1142317D01*
X576061Y1142314D01*
X576093D01*
X576123Y1142311D01*
X577208D01*
Y1143772D01*
D02*
G37*
G36*
X572491Y1152940D02*
X572346D01*
X572344Y1152939D01*
X572342Y1152939D01*
X571907Y1152839D01*
X571904Y1152837D01*
X571901Y1152837D01*
X571502Y1152615D01*
X571500Y1152614D01*
X571498Y1152613D01*
X571426Y1152552D01*
X571426Y1152551D01*
X571426Y1152551D01*
X571359Y1152488D01*
X571357Y1152485D01*
X571355Y1152484D01*
X571111Y1152101D01*
X571111Y1152099D01*
X571109Y1152097D01*
X570969Y1151681D01*
X570952Y1151629D01*
X570952Y1151627D01*
X570951Y1151627D01*
X570947Y1151607D01*
X570944Y1151592D01*
X570943Y1151592D01*
X570943Y1151590D01*
X570939Y1151574D01*
X570930Y1151532D01*
X570930Y1151532D01*
X570928Y1151525D01*
X570928Y1151524D01*
X570927Y1151521D01*
X570927Y1151520D01*
X570927Y1151520D01*
X570928Y1151519D01*
X570928Y1151519D01*
X570927Y1151515D01*
X570927Y1151515D01*
X570929Y1151510D01*
X570930Y1151507D01*
X570930Y1151505D01*
X570930Y1151504D01*
X570930Y1151504D01*
X570930Y1151504D01*
X570932Y1151503D01*
X570932Y1151502D01*
X570933Y1151500D01*
X570933Y1151500D01*
X570933Y1151500D01*
X570934Y1151500D01*
X570935Y1151500D01*
X570935Y1151500D01*
X570935Y1151499D01*
X570939Y1151498D01*
X570943Y1151495D01*
X570943Y1151495D01*
X570944D01*
X570944D01*
X570944Y1151495D01*
X570944D01*
X570944D01*
X570944Y1151495D01*
X570944Y1151495D01*
X570944Y1151495D01*
X570945Y1151495D01*
X570945Y1151495D01*
X570946Y1151495D01*
X570946Y1151495D01*
X570946Y1151495D01*
X570946Y1151495D01*
X570946Y1151495D01*
X570946Y1151495D01*
X570948Y1151494D01*
X570948Y1151494D01*
X570948D01*
X570948D01*
X570948D01*
X570949D01*
X570949D01*
X570949D01*
X570949D01*
X570950D01*
X570950D01*
X570953D01*
X570954D01*
X570954D01*
X570960D01*
X570960Y1151494D01*
X570965D01*
X570970Y1151494D01*
X571016Y1151494D01*
X571020D01*
X571020D01*
X571022D01*
X571022Y1151494D01*
X571022Y1151494D01*
X574151D01*
X574151D01*
X574153D01*
X574153D01*
X574156D01*
X574204Y1151494D01*
X574205D01*
X574213Y1151494D01*
X574215D01*
X574215D01*
X574215D01*
X574216D01*
X574216D01*
X574219D01*
X574219D01*
X574219D01*
X574220D01*
X574220D01*
X574223D01*
X574223D01*
X574223D01*
X574223D01*
X574223D01*
X574224D01*
X574224D01*
D01*
X574224D01*
X574224D01*
X574224D01*
X574224D01*
X574224D01*
D01*
X574224D01*
X574224D01*
X574224Y1151494D01*
X574226Y1151495D01*
X574226Y1151495D01*
X574226Y1151495D01*
X574227Y1151495D01*
X574227Y1151495D01*
X574227Y1151495D01*
X574228Y1151494D01*
X574228D01*
X574228Y1151494D01*
X574228D01*
D01*
X574228D01*
X574228D01*
X574228Y1151494D01*
X574228Y1151494D01*
X574228D01*
X574233Y1151498D01*
X574237Y1151500D01*
X574238Y1151500D01*
X574238Y1151500D01*
X574239Y1151500D01*
X574240Y1151502D01*
X574241Y1151503D01*
X574241Y1151503D01*
X574241Y1151503D01*
X574241Y1151504D01*
X574242Y1151504D01*
X574242Y1151505D01*
X574242Y1151507D01*
X574243Y1151509D01*
X574245Y1151515D01*
X574245Y1151515D01*
X574245Y1151518D01*
X574245Y1151519D01*
X574245Y1151519D01*
X574245Y1151519D01*
Y1151519D01*
X574244Y1151526D01*
X574243Y1151527D01*
X574243Y1151530D01*
X574243Y1151530D01*
X574236Y1151566D01*
X574232Y1151589D01*
X574232Y1151591D01*
X574232Y1151591D01*
D01*
X574229Y1151605D01*
X574225Y1151626D01*
X574225Y1151627D01*
X574224Y1151630D01*
X574205Y1151679D01*
X574046Y1152093D01*
X574043Y1152096D01*
X574043Y1152099D01*
X573750Y1152482D01*
X573748Y1152483D01*
X573747Y1152485D01*
X573670Y1152552D01*
X573670D01*
X573617Y1152598D01*
X573615Y1152599D01*
X573614Y1152600D01*
X573432Y1152717D01*
X573430Y1152717D01*
X573429Y1152718D01*
X573162Y1152831D01*
X573160Y1152831D01*
X573159Y1152832D01*
X572852Y1152902D01*
X572851Y1152902D01*
X572850Y1152903D01*
X572583Y1152934D01*
X572582Y1152934D01*
X572582Y1152934D01*
X572493Y1152940D01*
X572492Y1152939D01*
X572491Y1152940D01*
D02*
G37*
G36*
X546104D02*
X545987D01*
X545985Y1152939D01*
X545983Y1152939D01*
X545635Y1152871D01*
X545633Y1152870D01*
X545631Y1152870D01*
X545271Y1152736D01*
X545271Y1152735D01*
X545270Y1152735D01*
X545197Y1152702D01*
X545197Y1152701D01*
X545196Y1152701D01*
X545129Y1152662D01*
X545128Y1152660D01*
X545126Y1152659D01*
X544842Y1152407D01*
X544841Y1152405D01*
X544839Y1152404D01*
X544609Y1152102D01*
X544609Y1152101D01*
X544608Y1152100D01*
X544568Y1152036D01*
X544568Y1152035D01*
X544567Y1152034D01*
X544531Y1151964D01*
X544530Y1151962D01*
X544529Y1151961D01*
X544404Y1151570D01*
X544404Y1151568D01*
X544403Y1151567D01*
X544346Y1151156D01*
X544346Y1151155D01*
X544346Y1151153D01*
X544343Y1151074D01*
X544343Y1151073D01*
X544343Y1151073D01*
Y1150946D01*
X544343Y1150945D01*
X544343Y1150943D01*
X544403Y1150564D01*
X544404Y1150562D01*
X544404Y1150560D01*
X544532Y1150185D01*
X544533Y1150184D01*
X544533Y1150182D01*
X544567Y1150115D01*
X544567Y1150115D01*
X544567Y1150115D01*
X544604Y1150045D01*
X544605Y1150044D01*
X544606Y1150042D01*
X544843Y1149736D01*
X544845Y1149734D01*
X544847Y1149732D01*
X545132Y1149492D01*
X545134Y1149492D01*
X545135Y1149490D01*
X545195Y1149454D01*
X545195Y1149453D01*
X545196Y1149453D01*
X545262Y1149414D01*
X545264Y1149414D01*
X545265Y1149413D01*
X545628Y1149273D01*
X545631Y1149273D01*
X545633Y1149272D01*
X546021Y1149214D01*
X546023Y1149214D01*
X546025Y1149213D01*
X546104Y1149215D01*
X546224D01*
X546225Y1149215D01*
X546227Y1149215D01*
X546586Y1149269D01*
X546588Y1149271D01*
X546591Y1149271D01*
X546949Y1149410D01*
X546950Y1149411D01*
X546952Y1149412D01*
X547017Y1149454D01*
X547083Y1149493D01*
X547084Y1149494D01*
X547086Y1149494D01*
X547381Y1149732D01*
X547382Y1149735D01*
X547385Y1149736D01*
X547614Y1150040D01*
X547615Y1150042D01*
X547617Y1150044D01*
X547650Y1150115D01*
X547687Y1150184D01*
X547688Y1150186D01*
X547689Y1150187D01*
X547826Y1150550D01*
X547826Y1150553D01*
X547827Y1150555D01*
X547882Y1150973D01*
X547881Y1150975D01*
X547882Y1150977D01*
X547878Y1151073D01*
Y1151197D01*
X547878Y1151198D01*
X547878Y1151200D01*
X547828Y1151570D01*
X547827Y1151572D01*
X547827Y1151575D01*
X547693Y1151956D01*
X547692Y1151957D01*
X547692Y1151959D01*
X547650Y1152035D01*
Y1152035D01*
X547612Y1152105D01*
X547611Y1152106D01*
X547611Y1152108D01*
X547380Y1152404D01*
X547378Y1152405D01*
X547377Y1152407D01*
X547087Y1152653D01*
X547086Y1152654D01*
X547086Y1152655D01*
X547018Y1152700D01*
X547017Y1152700D01*
X547017Y1152701D01*
X546950Y1152740D01*
X546948Y1152740D01*
X546946Y1152742D01*
X546594Y1152868D01*
X546591Y1152868D01*
X546590Y1152869D01*
X546194Y1152932D01*
X546194Y1152932D01*
X546193Y1152932D01*
X546105Y1152940D01*
X546104Y1152939D01*
X546104Y1152940D01*
D02*
G37*
G36*
X535568Y1143837D02*
X535545D01*
X535483Y1143834D01*
X535422Y1143827D01*
X535363Y1143817D01*
X535305Y1143804D01*
X535250Y1143788D01*
X535201Y1143772D01*
X535153Y1143753D01*
X535107Y1143733D01*
X535065Y1143714D01*
X535030Y1143694D01*
X535001Y1143678D01*
X534971Y1143662D01*
X534952Y1143649D01*
X534936Y1143639D01*
X534926Y1143633D01*
X534923Y1143629D01*
X534871Y1143591D01*
X534822Y1143545D01*
X534777Y1143503D01*
X534735Y1143454D01*
X534696Y1143409D01*
X534664Y1143364D01*
X534631Y1143318D01*
X534602Y1143276D01*
X534576Y1143237D01*
X534557Y1143199D01*
X534537Y1143166D01*
X534521Y1143137D01*
X534511Y1143111D01*
X534502Y1143095D01*
X534495Y1143082D01*
Y1143079D01*
X534463Y1142994D01*
X534434Y1142907D01*
X534411Y1142816D01*
X534388Y1142729D01*
X534369Y1142641D01*
X534356Y1142557D01*
X534343Y1142476D01*
X534333Y1142398D01*
X534327Y1142327D01*
X534320Y1142262D01*
X534317Y1142204D01*
X534314Y1142155D01*
X534310Y1142113D01*
Y1142084D01*
Y1142065D01*
Y1142061D01*
Y1142058D01*
X534314Y1141896D01*
X534327Y1141747D01*
X534343Y1141605D01*
X534366Y1141475D01*
X534395Y1141355D01*
X534424Y1141245D01*
X534456Y1141144D01*
X534489Y1141057D01*
X534524Y1140976D01*
X534557Y1140908D01*
X534586Y1140850D01*
X534615Y1140801D01*
X534638Y1140765D01*
X534654Y1140739D01*
X534667Y1140723D01*
X534670Y1140717D01*
X534738Y1140636D01*
X534809Y1140568D01*
X534884Y1140506D01*
X534958Y1140454D01*
X535033Y1140412D01*
X535107Y1140373D01*
X535179Y1140344D01*
X535247Y1140322D01*
X535308Y1140302D01*
X535370Y1140286D01*
X535422Y1140276D01*
X535467Y1140270D01*
X535503Y1140266D01*
X535532Y1140263D01*
X535555D01*
X535648Y1140270D01*
X535739Y1140283D01*
X535827Y1140305D01*
X535908Y1140334D01*
X535986Y1140367D01*
X536057Y1140406D01*
X536125Y1140448D01*
X536186Y1140490D01*
X536241Y1140529D01*
X536287Y1140571D01*
X536329Y1140610D01*
X536365Y1140642D01*
X536394Y1140671D01*
X536413Y1140694D01*
X536426Y1140707D01*
X536429Y1140714D01*
X536494Y1140801D01*
X536549Y1140898D01*
X536595Y1140999D01*
X536637Y1141102D01*
X536672Y1141209D01*
X536701Y1141313D01*
X536724Y1141417D01*
X536744Y1141517D01*
X536760Y1141611D01*
X536770Y1141702D01*
X536779Y1141780D01*
X536783Y1141848D01*
X536786Y1141880D01*
Y1141906D01*
X536789Y1141928D01*
Y1141948D01*
Y1141964D01*
Y1141974D01*
Y1141980D01*
Y1141984D01*
X536786Y1142155D01*
X536773Y1142314D01*
X536757Y1142463D01*
X536734Y1142602D01*
X536708Y1142729D01*
X536679Y1142842D01*
X536646Y1142946D01*
X536614Y1143040D01*
X536582Y1143121D01*
X536549Y1143189D01*
X536520Y1143250D01*
X536494Y1143299D01*
X536472Y1143335D01*
X536455Y1143361D01*
X536442Y1143377D01*
X536439Y1143383D01*
X536371Y1143464D01*
X536300Y1143532D01*
X536225Y1143594D01*
X536151Y1143646D01*
X536076Y1143691D01*
X536002Y1143727D01*
X535930Y1143756D01*
X535859Y1143782D01*
X535794Y1143798D01*
X535736Y1143814D01*
X535681Y1143824D01*
X535636Y1143830D01*
X535597Y1143834D01*
X535568Y1143837D01*
D02*
G37*
G36*
X532541Y1152940D02*
X532424D01*
X532422Y1152939D01*
X532420Y1152939D01*
X532072Y1152871D01*
X532070Y1152870D01*
X532068Y1152870D01*
X531708Y1152736D01*
X531708Y1152735D01*
X531707Y1152735D01*
X531635Y1152702D01*
X531634Y1152701D01*
X531633Y1152701D01*
X531566Y1152662D01*
X531565Y1152660D01*
X531563Y1152659D01*
X531279Y1152407D01*
X531278Y1152405D01*
X531276Y1152404D01*
X531046Y1152102D01*
X531046Y1152101D01*
X531045Y1152100D01*
X531005Y1152036D01*
X531005Y1152035D01*
X531004Y1152034D01*
X530968Y1151964D01*
X530967Y1151962D01*
X530966Y1151961D01*
X530841Y1151570D01*
X530841Y1151568D01*
X530840Y1151567D01*
X530783Y1151156D01*
X530783Y1151155D01*
X530783Y1151153D01*
X530780Y1151074D01*
X530780Y1151073D01*
X530780Y1151073D01*
Y1150946D01*
X530781Y1150945D01*
X530780Y1150943D01*
X530840Y1150564D01*
X530841Y1150562D01*
X530841Y1150560D01*
X530969Y1150185D01*
X530970Y1150184D01*
X530970Y1150182D01*
X531004Y1150115D01*
X531004Y1150115D01*
X531004Y1150114D01*
X531041Y1150045D01*
X531043Y1150044D01*
X531043Y1150042D01*
X531281Y1149736D01*
X531283Y1149734D01*
X531284Y1149732D01*
X531569Y1149492D01*
X531571Y1149492D01*
X531572Y1149490D01*
X531632Y1149454D01*
X531633Y1149453D01*
X531633Y1149453D01*
X531699Y1149414D01*
X531701Y1149414D01*
X531702Y1149413D01*
X532065Y1149273D01*
X532068Y1149273D01*
X532070Y1149272D01*
X532458Y1149214D01*
X532460Y1149214D01*
X532462Y1149213D01*
X532541Y1149215D01*
X532661D01*
X532662Y1149215D01*
X532664Y1149215D01*
X533023Y1149269D01*
X533025Y1149271D01*
X533028Y1149271D01*
X533386Y1149410D01*
X533387Y1149411D01*
X533389Y1149412D01*
X533454Y1149454D01*
X533520Y1149493D01*
X533521Y1149494D01*
X533523Y1149494D01*
X533818Y1149732D01*
X533819Y1149735D01*
X533822Y1149736D01*
X534052Y1150040D01*
X534052Y1150042D01*
X534054Y1150044D01*
X534087Y1150115D01*
X534125Y1150184D01*
X534125Y1150186D01*
X534126Y1150187D01*
X534263Y1150550D01*
X534263Y1150553D01*
X534264Y1150555D01*
X534319Y1150973D01*
X534318Y1150975D01*
X534319Y1150977D01*
X534315Y1151073D01*
Y1151197D01*
X534314Y1151198D01*
X534315Y1151200D01*
X534265Y1151570D01*
X534264Y1151572D01*
X534264Y1151575D01*
X534130Y1151956D01*
X534129Y1151957D01*
X534129Y1151959D01*
X534087Y1152035D01*
D01*
X534049Y1152105D01*
X534048Y1152106D01*
X534048Y1152108D01*
X533817Y1152404D01*
X533815Y1152405D01*
X533814Y1152407D01*
X533525Y1152653D01*
X533523Y1152654D01*
X533523Y1152655D01*
X533455Y1152700D01*
X533454Y1152700D01*
X533454Y1152701D01*
X533387Y1152740D01*
X533385Y1152740D01*
X533383Y1152742D01*
X533031Y1152868D01*
X533028Y1152868D01*
X533027Y1152869D01*
X532631Y1152932D01*
X532631Y1152932D01*
X532630Y1152932D01*
X532542Y1152940D01*
X532541Y1152939D01*
X532541Y1152940D01*
D02*
G37*
%LPD*%
D40*
X522435Y1079436D02*
G03*
X522435Y1079436I-1181J0D01*
G01*
X503954Y1076435D02*
X523754D01*
X503954Y1091436D02*
X523754D01*
D41*
X500488Y1104668D02*
X501155Y1105334D01*
X502488D01*
X503154Y1104668D01*
Y1102002D01*
X502488Y1101336D01*
X501155D01*
X500488Y1102002D01*
X499155Y1101336D02*
X497823D01*
X498489D01*
Y1105334D01*
X499155Y1104668D01*
X495823D02*
X495157Y1105334D01*
X493824D01*
X493157Y1104668D01*
Y1102002D01*
X493824Y1101336D01*
X495157D01*
X495823Y1102002D01*
Y1104668D01*
X523104Y1104784D02*
Y1101452D01*
X522438Y1100786D01*
X521105D01*
X520438Y1101452D01*
Y1104784D01*
X519105Y1100786D02*
X517772D01*
X518439D01*
Y1104784D01*
X519105Y1104118D01*
D88*
X584530Y1149041D02*
Y1149109D01*
Y1149041D02*
X584583Y1148837D01*
X584726Y1148614D01*
X584937Y1148464D01*
X585132Y1148408D01*
X585196D01*
X585261D01*
X585196Y1149809D02*
X585260D01*
X585132D02*
X585196D01*
X584937Y1149755D02*
X585132Y1149809D01*
X584726Y1149604D02*
X584937Y1149755D01*
X584583Y1149382D02*
X584726Y1149604D01*
X584530Y1149177D02*
X584583Y1149382D01*
X584530Y1149109D02*
Y1149177D01*
Y1151051D02*
Y1151119D01*
Y1151051D02*
X584583Y1150847D01*
X584726Y1150625D01*
X584937Y1150474D01*
X585132Y1150419D01*
X585196D01*
X585261D01*
X585196Y1151820D02*
X585260D01*
X585132D02*
X585196D01*
X584937Y1151765D02*
X585132Y1151820D01*
X584726Y1151614D02*
X584937Y1151765D01*
X584583Y1151392D02*
X584726Y1151614D01*
X584530Y1151188D02*
X584583Y1151392D01*
X584530Y1151119D02*
Y1151188D01*
Y1153062D02*
Y1153130D01*
Y1153062D02*
X584583Y1152858D01*
X584726Y1152635D01*
X584937Y1152485D01*
X585132Y1152430D01*
X585196D01*
X585261D01*
X585196Y1153830D02*
X585260D01*
X585132D02*
X585196D01*
X584937Y1153776D02*
X585132Y1153830D01*
X584726Y1153625D02*
X584937Y1153776D01*
X584583Y1153403D02*
X584726Y1153625D01*
X584530Y1153198D02*
X584583Y1153403D01*
X584530Y1153130D02*
Y1153198D01*
Y1155072D02*
Y1155140D01*
Y1155072D02*
X584583Y1154868D01*
X584726Y1154645D01*
X584937Y1154495D01*
X585132Y1154440D01*
X585196D01*
X585261D01*
X585196Y1155840D02*
X585260D01*
X585132D02*
X585196D01*
X584937Y1155786D02*
X585132Y1155840D01*
X584726Y1155635D02*
X584937Y1155786D01*
X584583Y1155413D02*
X584726Y1155635D01*
X584530Y1155208D02*
X584583Y1155413D01*
X584530Y1155140D02*
Y1155208D01*
X589090Y1148410D02*
X589148D01*
X589207D01*
X589382Y1148465D01*
X589572Y1148615D01*
X589701Y1148837D01*
X589748Y1149041D01*
Y1149109D01*
Y1149177D01*
X589703Y1149377D02*
X589748Y1149177D01*
X589601Y1149571D02*
X589703Y1149377D01*
X589572Y1149604D02*
X589601Y1149571D01*
X589544Y1149637D02*
X589572Y1149604D01*
X589378Y1149756D02*
X589544Y1149637D01*
X589206Y1149809D02*
X589378Y1149756D01*
X589148Y1149809D02*
X589206D01*
X589090D02*
X589148D01*
X585271Y1148410D02*
X589158D01*
X585271Y1149809D02*
X589158D01*
X590752Y1150476D02*
X590963Y1150626D01*
X591106Y1150848D01*
X591158Y1151052D01*
Y1151120D01*
Y1151187D01*
X591107Y1151388D02*
X591158Y1151187D01*
X590994Y1151582D02*
X591107Y1151388D01*
X590963Y1151614D02*
X590994Y1151582D01*
X590932Y1151647D02*
X590963Y1151614D01*
X590747Y1151766D02*
X590932Y1151647D01*
X585271Y1150421D02*
X590503D01*
X585271Y1151819D02*
X590503D01*
X591823Y1152431D02*
X591887D01*
X591952D01*
X592146Y1152486D01*
X592358Y1152636D01*
X592500Y1152859D01*
X592553Y1153063D01*
Y1153131D01*
Y1153198D01*
X592502Y1153398D02*
X592553Y1153198D01*
X592389Y1153592D02*
X592502Y1153398D01*
X592358Y1153625D02*
X592389Y1153592D01*
X592327Y1153658D02*
X592358Y1153625D01*
X592142Y1153777D02*
X592327Y1153658D01*
X591951Y1153830D02*
X592142Y1153777D01*
X591887Y1153830D02*
X591951D01*
X591823D02*
X591887D01*
X585271Y1152431D02*
X591900D01*
X585271Y1153830D02*
X591900D01*
X590428Y1154442D02*
X590492D01*
X590557D01*
X590752Y1154497D01*
X590963Y1154647D01*
X591106Y1154869D01*
X591158Y1155073D01*
Y1155141D01*
Y1155208D01*
X591107Y1155409D02*
X591158Y1155208D01*
X590994Y1155603D02*
X591107Y1155409D01*
X590963Y1155636D02*
X590994Y1155603D01*
X590932Y1155669D02*
X590963Y1155636D01*
X590747Y1155787D02*
X590932Y1155669D01*
X590556Y1155840D02*
X590747Y1155787D01*
X590492Y1155840D02*
X590556D01*
X590428D02*
X590492D01*
X585271Y1154442D02*
X590503D01*
X585271Y1155840D02*
X590503D01*
X526046Y1149328D02*
X526380D01*
X526453D01*
X526673Y1149389D01*
X526877Y1149546D01*
X526912Y1149595D01*
X526948Y1149640D01*
X527076Y1149888D01*
X527129Y1150188D01*
X527127Y1150258D02*
X527129Y1150188D01*
X527127Y1150258D02*
Y1152700D01*
X526292D02*
X527127D01*
X526248D02*
X526292D01*
X526117Y1152717D02*
X526248Y1152700D01*
X525986Y1152795D02*
X526117Y1152717D01*
X525957Y1152824D02*
X525986Y1152795D01*
X525935Y1152845D02*
X525957Y1152824D01*
X525861Y1152953D02*
X525935Y1152845D01*
X525829Y1153097D02*
X525861Y1152953D01*
X525829Y1153135D02*
X525829Y1153097D01*
X525829Y1153135D02*
Y1153179D01*
X525873Y1153310D01*
X525944Y1153439D01*
X525957Y1153467D01*
X525978Y1153488D01*
X526116Y1153547D01*
X526265Y1153582D01*
X526292Y1153592D01*
X527127D01*
Y1155011D01*
Y1155060D01*
X527175Y1155206D01*
X527251Y1155342D01*
X527266Y1155367D01*
X527289Y1155390D01*
X527433Y1155464D01*
X527590Y1155501D01*
X527619Y1155505D01*
X527670D01*
X527823Y1155468D01*
X527955Y1155388D01*
X527975Y1155367D01*
X527998Y1155344D01*
X528080Y1155196D01*
X528113Y1155039D01*
X528111Y1155011D02*
X528113Y1155039D01*
X528111Y1153592D02*
Y1155011D01*
Y1153592D02*
X528564D01*
X528615D01*
X528765Y1153549D01*
X528887Y1153480D01*
X528899Y1153467D01*
X528921Y1153446D01*
X529006Y1153310D01*
X529035Y1153163D01*
X529027Y1153135D02*
X529035Y1153163D01*
X529027Y1153090D02*
Y1153135D01*
X529009Y1152951D02*
X529027Y1153090D01*
X528929Y1152836D02*
X529009Y1152951D01*
X528899Y1152824D02*
X528929Y1152836D01*
X528878Y1152804D02*
X528899Y1152824D01*
X528752Y1152720D02*
X528878Y1152804D01*
X528599Y1152692D02*
X528752Y1152720D01*
X528564Y1152700D02*
X528599Y1152692D01*
X528111Y1152700D02*
X528564D01*
X528111Y1150261D02*
Y1152700D01*
Y1150130D02*
Y1150261D01*
X528058Y1149737D02*
X528111Y1150130D01*
X527926Y1149349D02*
X528058Y1149737D01*
X527886Y1149282D02*
X527926Y1149349D01*
X527848Y1149210D02*
X527886Y1149282D01*
X527629Y1148889D02*
X527848Y1149210D01*
X527336Y1148635D02*
X527629Y1148889D01*
X527260Y1148595D02*
X527336Y1148635D01*
X527194Y1148553D02*
X527260Y1148595D01*
X526842Y1148407D02*
X527194Y1148553D01*
X526496Y1148344D02*
X526842Y1148407D01*
X526380Y1148344D02*
X526496D01*
X526203D02*
X526380D01*
X526146D02*
X526203D01*
X525976Y1148375D02*
X526146Y1148344D01*
X525817Y1148456D02*
X525976Y1148375D01*
X525786Y1148481D02*
X525817Y1148456D01*
X525759Y1148504D02*
X525786Y1148481D01*
X525677Y1148632D02*
X525759Y1148504D01*
X525632Y1148795D02*
X525677Y1148632D01*
X525624Y1148836D02*
X525632Y1148795D01*
X525624Y1148836D02*
Y1148883D01*
X525665Y1149023D01*
X525733Y1149160D01*
X525746Y1149190D01*
X525767Y1149213D01*
X525971Y1149328D01*
X526046D01*
X532424Y1152918D02*
X532541D01*
X532076Y1152850D02*
X532424Y1152918D01*
X531716Y1152716D02*
X532076Y1152850D01*
X531643Y1152682D02*
X531716Y1152716D01*
X531577Y1152643D02*
X531643Y1152682D01*
X531293Y1152391D02*
X531577Y1152643D01*
X531063Y1152089D02*
X531293Y1152391D01*
X531023Y1152025D02*
X531063Y1152089D01*
X530986Y1151954D02*
X531023Y1152025D01*
X530861Y1151564D02*
X530986Y1151954D01*
X530804Y1151153D02*
X530861Y1151564D01*
X530801Y1151073D02*
X530804Y1151153D01*
X530801Y1150946D02*
Y1151073D01*
Y1150946D02*
X530861Y1150567D01*
X530989Y1150192D01*
X531023Y1150124D01*
X531060Y1150055D01*
X531297Y1149749D01*
X531583Y1149508D01*
X531643Y1149472D01*
X531710Y1149432D01*
X532073Y1149293D01*
X532462Y1149235D01*
X532541Y1149236D01*
X532661D01*
X533020Y1149291D01*
X533378Y1149430D01*
X533443Y1149472D01*
X533509Y1149511D01*
X533805Y1149749D01*
X534034Y1150053D01*
X534068Y1150124D01*
X534106Y1150194D01*
X534243Y1150558D01*
X534298Y1150976D01*
X534294Y1151073D02*
X534298Y1150976D01*
X534294Y1151073D02*
Y1151197D01*
X534244Y1151567D02*
X534294Y1151197D01*
X534110Y1151949D02*
X534244Y1151567D01*
X534068Y1152025D02*
X534110Y1151949D01*
X534031Y1152095D02*
X534068Y1152025D01*
X533801Y1152391D02*
X534031Y1152095D01*
X533511Y1152637D02*
X533801Y1152391D01*
X533443Y1152682D02*
X533511Y1152637D01*
X533376Y1152722D02*
X533443Y1152682D01*
X533023Y1152848D02*
X533376Y1152722D01*
X532628Y1152911D02*
X533023Y1152848D01*
X532541Y1152918D02*
X532628Y1152911D01*
X532541Y1153810D02*
X532729D01*
X533294Y1153712D01*
X533850Y1153511D01*
X533949Y1153460D01*
X534052Y1153402D01*
X534510Y1153031D01*
X534863Y1152585D01*
X534914Y1152489D01*
X534971Y1152386D01*
X535180Y1151812D01*
X535263Y1151197D01*
X535258Y1151073D02*
X535263Y1151197D01*
X535258Y1150886D02*
Y1151073D01*
X535182Y1150326D02*
X535258Y1150886D01*
X534978Y1149767D02*
X535182Y1150326D01*
X534914Y1149663D02*
X534978Y1149767D01*
X534857Y1149560D02*
X534914Y1149663D01*
X534508Y1149108D02*
X534857Y1149560D01*
X534057Y1148749D02*
X534508Y1149108D01*
X533949Y1148693D02*
X534057Y1148749D01*
X533845Y1148634D02*
X533949Y1148693D01*
X533292Y1148431D02*
X533845Y1148634D01*
X532729Y1148344D02*
X533292Y1148431D01*
X532541Y1148344D02*
X532729D01*
X532356D02*
X532541D01*
X531802Y1148429D02*
X532356Y1148344D01*
X531246Y1148633D02*
X531802Y1148429D01*
X531141Y1148693D02*
X531246Y1148633D01*
X531039Y1148751D02*
X531141Y1148693D01*
X530608Y1149109D02*
X531039Y1148751D01*
X530249Y1149559D02*
X530608Y1149109D01*
X530183Y1149663D02*
X530249Y1149559D01*
X530125Y1149767D02*
X530183Y1149663D01*
X529926Y1150314D02*
X530125Y1149767D01*
X529839Y1150933D02*
X529926Y1150314D01*
X529837Y1151073D02*
X529839Y1150933D01*
X529837Y1151073D02*
Y1151258D01*
X529938Y1151813D01*
X530138Y1152378D01*
X530188Y1152489D01*
X530246Y1152593D01*
X530605Y1153032D01*
X531050Y1153395D01*
X531151Y1153460D01*
X531254Y1153518D01*
X531811Y1153710D01*
X532415Y1153801D01*
X532541Y1153810D01*
X539083Y1149236D02*
X539197D01*
X538741Y1149291D02*
X539083Y1149236D01*
X538382Y1149434D02*
X538741Y1149291D01*
X538307Y1149477D02*
X538382Y1149434D01*
X538240Y1149517D02*
X538307Y1149477D01*
X537959Y1149757D02*
X538240Y1149517D01*
X537721Y1150066D02*
X537959Y1149757D01*
X537676Y1150140D02*
X537721Y1150066D01*
X537637Y1150210D02*
X537676Y1150140D01*
X537514Y1150586D02*
X537637Y1150210D01*
X537452Y1150996D02*
X537514Y1150586D01*
X537443Y1151083D02*
X537452Y1150996D01*
X537443Y1151083D02*
Y1151205D01*
X537512Y1151570D01*
X537644Y1151945D01*
X537676Y1152020D01*
X537714Y1152089D01*
X537962Y1152384D01*
X538249Y1152632D01*
X538307Y1152677D01*
X538373Y1152717D01*
X538740Y1152847D01*
X539122Y1152911D01*
X539197Y1152918D01*
X539316D01*
X539673Y1152849D01*
X540025Y1152712D01*
X540085Y1152677D01*
X540152Y1152637D01*
X540454Y1152384D01*
X540682Y1152083D01*
X540711Y1152020D01*
X540748Y1151950D01*
X540893Y1151577D01*
X540945Y1151170D01*
X540936Y1151083D02*
X540945Y1151170D01*
X540936Y1150957D02*
Y1151083D01*
X540894Y1150581D02*
X540936Y1150957D01*
X540757Y1150206D02*
X540894Y1150581D01*
X540711Y1150140D02*
X540757Y1150206D01*
X540673Y1150070D02*
X540711Y1150140D01*
X540450Y1149758D02*
X540673Y1150070D01*
X540158Y1149514D02*
X540450Y1149758D01*
X540085Y1149477D02*
X540158Y1149514D01*
X540019Y1149437D02*
X540085Y1149477D01*
X539675Y1149294D02*
X540019Y1149437D01*
X539286Y1149235D02*
X539675Y1149294D01*
X539197Y1149236D02*
X539286Y1149235D01*
X541353Y1156107D02*
X541399D01*
X541215Y1156062D02*
X541353Y1156107D01*
X541073Y1155984D02*
X541215Y1156062D01*
X541041Y1155967D02*
X541073Y1155984D01*
X541017Y1155944D02*
X541041Y1155967D01*
X540937Y1155800D02*
X541017Y1155944D01*
X540900Y1155632D02*
X540937Y1155800D01*
X540897Y1155596D02*
X540900Y1155632D01*
X540897Y1152888D02*
Y1155596D01*
X540840Y1152960D02*
X540897Y1152888D01*
X540528Y1153265D02*
X540840Y1152960D01*
X540150Y1153519D02*
X540528Y1153265D01*
X540060Y1153566D02*
X540150Y1153519D01*
X539978Y1153607D02*
X540060Y1153566D01*
X539557Y1153736D02*
X539978Y1153607D01*
X539099Y1153801D02*
X539557Y1153736D01*
X538999Y1153810D02*
X539099Y1153801D01*
X538831Y1153810D02*
X538999D01*
X538330Y1153712D02*
X538831Y1153810D01*
X537815Y1153507D02*
X538330Y1153712D01*
X537715Y1153455D02*
X537815Y1153507D01*
X537619Y1153396D02*
X537715Y1153455D01*
X537210Y1153022D02*
X537619Y1153396D01*
X536871Y1152573D02*
X537210Y1153022D01*
X536809Y1152476D02*
X536871Y1152573D01*
X536755Y1152372D02*
X536809Y1152476D01*
X536572Y1151814D02*
X536755Y1152372D01*
X536486Y1151211D02*
X536572Y1151814D01*
X536480Y1151083D02*
X536486Y1151211D01*
X536480Y1150899D02*
Y1151083D01*
Y1150899D02*
X536575Y1150346D01*
X536780Y1149790D01*
X536835Y1149689D01*
X536894Y1149584D01*
X537263Y1149126D01*
X537714Y1148760D01*
X537814Y1148703D01*
X537919Y1148643D01*
X538483Y1148434D01*
X539018Y1148344D01*
X539197D01*
X539378D01*
X539921Y1148430D01*
X540468Y1148642D01*
X540567Y1148704D01*
X540670Y1148765D01*
X541124Y1149128D01*
X541485Y1149586D01*
X541541Y1149694D01*
X541601Y1149799D01*
X541812Y1150356D01*
X541901Y1150964D01*
X541900Y1151093D02*
X541901Y1150964D01*
X541900Y1151093D02*
Y1155603D01*
Y1155652D01*
X541871Y1155798D02*
X541900Y1155652D01*
X541789Y1155939D02*
X541871Y1155798D01*
X541763Y1155968D02*
X541789Y1155939D01*
X541740Y1155991D02*
X541763Y1155968D01*
X541613Y1156059D02*
X541740Y1155991D01*
X541443Y1156098D02*
X541613Y1156059D01*
X541399Y1156107D02*
X541443Y1156098D01*
X545987Y1152918D02*
X546104D01*
X545639Y1152850D02*
X545987Y1152918D01*
X545279Y1152716D02*
X545639Y1152850D01*
X545206Y1152682D02*
X545279Y1152716D01*
X545140Y1152643D02*
X545206Y1152682D01*
X544856Y1152391D02*
X545140Y1152643D01*
X544626Y1152089D02*
X544856Y1152391D01*
X544586Y1152025D02*
X544626Y1152089D01*
X544550Y1151954D02*
X544586Y1152025D01*
X544424Y1151564D02*
X544550Y1151954D01*
X544367Y1151153D02*
X544424Y1151564D01*
X544364Y1151073D02*
X544367Y1151153D01*
X544364Y1150946D02*
Y1151073D01*
Y1150946D02*
X544424Y1150567D01*
X544552Y1150192D01*
X544586Y1150124D01*
X544623Y1150055D01*
X544860Y1149749D01*
X545146Y1149508D01*
X545206Y1149472D01*
X545273Y1149432D01*
X545636Y1149293D01*
X546025Y1149235D01*
X546104Y1149236D01*
X546224D01*
X546583Y1149291D01*
X546941Y1149430D01*
X547006Y1149472D01*
X547072Y1149511D01*
X547368Y1149749D01*
X547597Y1150053D01*
X547631Y1150124D01*
X547669Y1150194D01*
X547806Y1150558D01*
X547861Y1150976D01*
X547857Y1151073D02*
X547861Y1150976D01*
X547857Y1151073D02*
Y1151197D01*
X547807Y1151567D02*
X547857Y1151197D01*
X547673Y1151949D02*
X547807Y1151567D01*
X547631Y1152025D02*
X547673Y1151949D01*
X547594Y1152095D02*
X547631Y1152025D01*
X547364Y1152391D02*
X547594Y1152095D01*
X547074Y1152637D02*
X547364Y1152391D01*
X547006Y1152682D02*
X547074Y1152637D01*
X546939Y1152722D02*
X547006Y1152682D01*
X546586Y1152848D02*
X546939Y1152722D01*
X546191Y1152911D02*
X546586Y1152848D01*
X546104Y1152918D02*
X546191Y1152911D01*
X546104Y1153810D02*
X546292D01*
X546857Y1153712D01*
X547413Y1153511D01*
X547512Y1153460D01*
X547615Y1153402D01*
X548073Y1153031D01*
X548426Y1152585D01*
X548477Y1152489D01*
X548534Y1152386D01*
X548743Y1151812D01*
X548826Y1151197D01*
X548820Y1151073D02*
X548826Y1151197D01*
X548820Y1150886D02*
Y1151073D01*
X548745Y1150326D02*
X548820Y1150886D01*
X548541Y1149767D02*
X548745Y1150326D01*
X548477Y1149663D02*
X548541Y1149767D01*
X548420Y1149560D02*
X548477Y1149663D01*
X548071Y1149108D02*
X548420Y1149560D01*
X547620Y1148749D02*
X548071Y1149108D01*
X547512Y1148693D02*
X547620Y1148749D01*
X547408Y1148634D02*
X547512Y1148693D01*
X546855Y1148431D02*
X547408Y1148634D01*
X546291Y1148344D02*
X546855Y1148431D01*
X546104Y1148344D02*
X546291D01*
X545919D02*
X546104D01*
X545365Y1148429D02*
X545919Y1148344D01*
X544809Y1148633D02*
X545365Y1148429D01*
X544704Y1148693D02*
X544809Y1148633D01*
X544601Y1148751D02*
X544704Y1148693D01*
X544171Y1149109D02*
X544601Y1148751D01*
X543812Y1149559D02*
X544171Y1149109D01*
X543745Y1149663D02*
X543812Y1149559D01*
X543688Y1149767D02*
X543745Y1149663D01*
X543489Y1150314D02*
X543688Y1149767D01*
X543402Y1150933D02*
X543489Y1150314D01*
X543400Y1151073D02*
X543402Y1150933D01*
X543400Y1151073D02*
Y1151258D01*
X543501Y1151813D01*
X543701Y1152378D01*
X543751Y1152489D01*
X543809Y1152593D01*
X544168Y1153032D01*
X544613Y1153395D01*
X544714Y1153460D01*
X544817Y1153518D01*
X545374Y1153710D01*
X545978Y1153801D01*
X546104Y1153810D01*
X550692D02*
X550814D01*
X551179Y1153759D01*
X551551Y1153644D01*
X551616Y1153612D01*
X551689Y1153580D01*
X552016Y1153375D01*
X552296Y1153125D01*
X552344Y1153069D01*
Y1153274D01*
Y1153331D01*
X552379Y1153504D01*
X552476Y1153663D01*
X552631Y1153762D01*
X552784Y1153804D01*
X552837Y1153810D01*
X552890D01*
X553049Y1153767D01*
X553182Y1153695D01*
X553200Y1153680D01*
X553222Y1153659D01*
X553298Y1153517D01*
X553330Y1153346D01*
X553329Y1153310D02*
X553330Y1153346D01*
X553329Y1148845D02*
Y1153310D01*
Y1148790D02*
Y1148845D01*
X553300Y1148623D02*
X553329Y1148790D01*
X553224Y1148488D02*
X553300Y1148623D01*
X553200Y1148469D02*
X553224Y1148488D01*
X553179Y1148448D02*
X553200Y1148469D01*
X553054Y1148375D02*
X553179Y1148448D01*
X552891Y1148344D02*
X553054Y1148375D01*
X552837Y1148344D02*
X552891D01*
X552786D02*
X552837D01*
X552635Y1148374D02*
X552786Y1148344D01*
X552497Y1148449D02*
X552635Y1148374D01*
X552467Y1148472D02*
X552497Y1148449D01*
X552447Y1148493D02*
X552467Y1148472D01*
X552377Y1148621D02*
X552447Y1148493D01*
X552345Y1148794D02*
X552377Y1148621D01*
X552344Y1148838D02*
X552345Y1148794D01*
X552344Y1148838D02*
Y1151717D01*
Y1151838D01*
X552237Y1152199D02*
X552344Y1151838D01*
X551985Y1152530D02*
X552237Y1152199D01*
X551912Y1152592D02*
X551985Y1152530D01*
X551840Y1152647D02*
X551912Y1152592D01*
X551417Y1152826D02*
X551840Y1152647D01*
X550892Y1152911D02*
X551417Y1152826D01*
X550769Y1152918D02*
X550892Y1152911D01*
X550700Y1152918D02*
X550769D01*
X550492Y1152899D02*
X550700Y1152918D01*
X550200Y1152860D02*
X550492Y1152899D01*
X550132Y1152850D02*
X550200Y1152860D01*
X550115Y1152847D02*
X550132Y1152850D01*
X549999Y1152831D02*
X550115Y1152847D01*
X549985Y1152831D02*
X549999D01*
X549923D02*
X549985D01*
X549737Y1152914D02*
X549923Y1152831D01*
X549607Y1153111D02*
X549737Y1152914D01*
X549590Y1153168D02*
X549607Y1153111D01*
X549589Y1153173D02*
X549590Y1153168D01*
X549585Y1153259D02*
X549589Y1153173D01*
X549581Y1153272D02*
X549585Y1153259D01*
X549581Y1153272D02*
Y1153323D01*
X549665Y1153476D01*
X549834Y1153626D01*
X549877Y1153656D01*
X549926Y1153682D01*
X550231Y1153759D01*
X550607Y1153801D01*
X550692Y1153810D01*
X560298Y1152918D02*
X560414D01*
X559949Y1152850D02*
X560298Y1152918D01*
X559589Y1152716D02*
X559949Y1152850D01*
X559517Y1152682D02*
X559589Y1152716D01*
X559450Y1152643D02*
X559517Y1152682D01*
X559166Y1152391D02*
X559450Y1152643D01*
X558936Y1152089D02*
X559166Y1152391D01*
X558897Y1152025D02*
X558936Y1152089D01*
X558860Y1151954D02*
X558897Y1152025D01*
X558735Y1151564D02*
X558860Y1151954D01*
X558677Y1151153D02*
X558735Y1151564D01*
X558675Y1151073D02*
X558677Y1151153D01*
X558675Y1150946D02*
Y1151073D01*
Y1150946D02*
X558734Y1150567D01*
X558862Y1150192D01*
X558897Y1150124D01*
X558933Y1150055D01*
X559171Y1149749D01*
X559456Y1149508D01*
X559517Y1149472D01*
X559584Y1149432D01*
X559946Y1149293D01*
X560335Y1149235D01*
X560414Y1149236D01*
X560534D01*
X560893Y1149291D01*
X561251Y1149430D01*
X561316Y1149472D01*
X561383Y1149511D01*
X561678Y1149749D01*
X561908Y1150053D01*
X561942Y1150124D01*
X561979Y1150194D01*
X562116Y1150558D01*
X562171Y1150976D01*
X562167Y1151073D02*
X562171Y1150976D01*
X562167Y1151073D02*
Y1151197D01*
X562117Y1151567D02*
X562167Y1151197D01*
X561984Y1151949D02*
X562117Y1151567D01*
X561942Y1152025D02*
X561984Y1151949D01*
X561904Y1152095D02*
X561942Y1152025D01*
X561674Y1152391D02*
X561904Y1152095D01*
X561384Y1152637D02*
X561674Y1152391D01*
X561316Y1152682D02*
X561384Y1152637D01*
X561250Y1152722D02*
X561316Y1152682D01*
X560897Y1152848D02*
X561250Y1152722D01*
X560502Y1152911D02*
X560897Y1152848D01*
X560414Y1152918D02*
X560502Y1152911D01*
X560414Y1153810D02*
X560603D01*
X561168Y1153712D01*
X561724Y1153511D01*
X561822Y1153460D01*
X561926Y1153402D01*
X562384Y1153031D01*
X562737Y1152585D01*
X562787Y1152489D01*
X562845Y1152386D01*
X563053Y1151812D01*
X563137Y1151197D01*
X563131Y1151073D02*
X563137Y1151197D01*
X563131Y1150886D02*
Y1151073D01*
X563055Y1150326D02*
X563131Y1150886D01*
X562852Y1149767D02*
X563055Y1150326D01*
X562787Y1149663D02*
X562852Y1149767D01*
X562730Y1149560D02*
X562787Y1149663D01*
X562381Y1149108D02*
X562730Y1149560D01*
X561931Y1148749D02*
X562381Y1149108D01*
X561822Y1148693D02*
X561931Y1148749D01*
X561719Y1148634D02*
X561822Y1148693D01*
X561166Y1148431D02*
X561719Y1148634D01*
X560602Y1148344D02*
X561166Y1148431D01*
X560414Y1148344D02*
X560602D01*
X560230D02*
X560414D01*
X559676Y1148429D02*
X560230Y1148344D01*
X559119Y1148633D02*
X559676Y1148429D01*
X559015Y1148693D02*
X559119Y1148633D01*
X558912Y1148751D02*
X559015Y1148693D01*
X558481Y1149109D02*
X558912Y1148751D01*
X558122Y1149559D02*
X558481Y1149109D01*
X558056Y1149663D02*
X558122Y1149559D01*
X557999Y1149767D02*
X558056Y1149663D01*
X557799Y1150314D02*
X557999Y1149767D01*
X557712Y1150933D02*
X557799Y1150314D01*
X557711Y1151073D02*
X557712Y1150933D01*
X557711Y1151073D02*
Y1151258D01*
X557812Y1151813D01*
X558011Y1152378D01*
X558061Y1152489D01*
X558119Y1152593D01*
X558478Y1153032D01*
X558924Y1153395D01*
X559025Y1153460D01*
X559127Y1153518D01*
X559685Y1153710D01*
X560289Y1153801D01*
X560414Y1153810D01*
X566005Y1150183D02*
Y1155610D01*
Y1150057D02*
Y1150183D01*
X565959Y1149680D02*
X566005Y1150057D01*
X565850Y1149302D02*
X565959Y1149680D01*
X565819Y1149232D02*
X565850Y1149302D01*
X565788Y1149162D02*
X565819Y1149232D01*
X565605Y1148856D02*
X565788Y1149162D01*
X565357Y1148614D02*
X565605Y1148856D01*
X565293Y1148576D02*
X565357Y1148614D01*
X565236Y1148538D02*
X565293Y1148576D01*
X564943Y1148402D02*
X565236Y1148538D01*
X564633Y1148344D02*
X564943Y1148402D01*
X564529Y1148344D02*
X564633D01*
X564510D02*
X564529D01*
X564445D02*
X564510D01*
X564247Y1148375D02*
X564445Y1148344D01*
X564063Y1148456D02*
X564247Y1148375D01*
X564028Y1148481D02*
X564063Y1148456D01*
X563997Y1148504D02*
X564028Y1148481D01*
X563889Y1148632D02*
X563997Y1148504D01*
X563841Y1148795D02*
X563889Y1148632D01*
X563840Y1148836D02*
X563841Y1148795D01*
X563840Y1148836D02*
Y1148883D01*
X563884Y1149023D01*
X563952Y1149160D01*
X563963Y1149190D01*
X563984Y1149213D01*
X564203Y1149328D01*
X564283D01*
X564529D01*
X564580D01*
X564734Y1149385D01*
X564866Y1149526D01*
X564884Y1149567D01*
X564907Y1149607D01*
X564991Y1149829D01*
X565024Y1150106D01*
X565021Y1150174D02*
X565024Y1150106D01*
X565021Y1150174D02*
Y1155610D01*
Y1155657D01*
X565056Y1155799D01*
X565137Y1155937D01*
X565159Y1155967D01*
X565182Y1155990D01*
X565327Y1156059D01*
X565484Y1156098D01*
X565513Y1156107D01*
X565564D01*
X565718Y1156062D01*
X565850Y1155984D01*
X565869Y1155967D01*
X565892Y1155944D01*
X565975Y1155802D01*
X566008Y1155642D01*
X566005Y1155610D02*
X566008Y1155642D01*
X568958Y1150183D02*
Y1155610D01*
Y1150057D02*
Y1150183D01*
X568912Y1149680D02*
X568958Y1150057D01*
X568803Y1149302D02*
X568912Y1149680D01*
X568772Y1149232D02*
X568803Y1149302D01*
X568741Y1149162D02*
X568772Y1149232D01*
X568558Y1148856D02*
X568741Y1149162D01*
X568309Y1148614D02*
X568558Y1148856D01*
X568245Y1148576D02*
X568309Y1148614D01*
X568189Y1148538D02*
X568245Y1148576D01*
X567896Y1148402D02*
X568189Y1148538D01*
X567585Y1148344D02*
X567896Y1148402D01*
X567482Y1148344D02*
X567585D01*
X567463D02*
X567482D01*
X567397D02*
X567463D01*
X567200Y1148375D02*
X567397Y1148344D01*
X567016Y1148456D02*
X567200Y1148375D01*
X566981Y1148481D02*
X567016Y1148456D01*
X566950Y1148504D02*
X566981Y1148481D01*
X566842Y1148632D02*
X566950Y1148504D01*
X566794Y1148795D02*
X566842Y1148632D01*
X566793Y1148836D02*
X566794Y1148795D01*
X566793Y1148836D02*
Y1148883D01*
X566837Y1149023D01*
X566904Y1149160D01*
X566916Y1149190D01*
X566936Y1149213D01*
X567156Y1149328D01*
X567236D01*
X567482D01*
X567533D01*
X567687Y1149385D01*
X567819Y1149526D01*
X567837Y1149567D01*
X567860Y1149607D01*
X567944Y1149829D01*
X567977Y1150106D01*
X567974Y1150174D02*
X567977Y1150106D01*
X567974Y1150174D02*
Y1155610D01*
Y1155657D01*
X568009Y1155799D01*
X568089Y1155937D01*
X568112Y1155967D01*
X568135Y1155990D01*
X568280Y1156059D01*
X568437Y1156098D01*
X568466Y1156107D01*
X568517D01*
X568671Y1156062D01*
X568803Y1155984D01*
X568821Y1155967D01*
X568844Y1155944D01*
X568928Y1155802D01*
X568961Y1155642D01*
X568958Y1155610D02*
X568961Y1155642D01*
X572346Y1152918D02*
X572491D01*
X571911Y1152818D02*
X572346Y1152918D01*
X571512Y1152597D02*
X571911Y1152818D01*
X571440Y1152536D02*
X571512Y1152597D01*
X571373Y1152472D02*
X571440Y1152536D01*
X571129Y1152090D02*
X571373Y1152472D01*
X570972Y1151622D02*
X571129Y1152090D01*
X570948Y1151515D02*
X570972Y1151622D01*
X570948Y1151515D02*
X574224D01*
X574204Y1151622D02*
X574224Y1151515D01*
X574026Y1152086D02*
X574204Y1151622D01*
X573734Y1152469D02*
X574026Y1152086D01*
X573657Y1152536D02*
X573734Y1152469D01*
X573603Y1152582D02*
X573657Y1152536D01*
X573421Y1152699D02*
X573603Y1152582D01*
X573154Y1152812D02*
X573421Y1152699D01*
X572847Y1152882D02*
X573154Y1152812D01*
X572580Y1152913D02*
X572847Y1152882D01*
X572491Y1152918D02*
X572580Y1152913D01*
X570043Y1151180D02*
Y1151361D01*
X570125Y1151902D01*
X570294Y1152444D01*
X570338Y1152547D01*
X570388Y1152647D01*
X570710Y1153066D01*
X571101Y1153413D01*
X571186Y1153477D01*
X571278Y1153533D01*
X571800Y1153714D01*
X572373Y1153801D01*
X572491Y1153810D01*
X572674D01*
X573223Y1153712D01*
X573767Y1153511D01*
X573865Y1153460D01*
X573966Y1153402D01*
X574413Y1153030D01*
X574760Y1152581D01*
X574810Y1152484D01*
X574866Y1152380D01*
X575072Y1151806D01*
X575154Y1151195D01*
X575148Y1151073D02*
X575154Y1151195D01*
X575148Y1150886D02*
Y1151073D01*
X575071Y1150326D02*
X575148Y1150886D01*
X574857Y1149767D02*
X575071Y1150326D01*
X574789Y1149663D02*
X574857Y1149767D01*
X574730Y1149560D02*
X574789Y1149663D01*
X574374Y1149108D02*
X574730Y1149560D01*
X573907Y1148749D02*
X574374Y1149108D01*
X573792Y1148693D02*
X573907Y1148749D01*
X573685Y1148634D02*
X573792Y1148693D01*
X573113Y1148431D02*
X573685Y1148634D01*
X572537Y1148344D02*
X573113Y1148431D01*
X572344Y1148344D02*
X572537D01*
X572232D02*
X572344D01*
X571894Y1148379D02*
X572232Y1148344D01*
X571487Y1148481D02*
X571894Y1148379D01*
X571396Y1148515D02*
X571487Y1148481D01*
X571313Y1148544D02*
X571396Y1148515D01*
X570947Y1148704D02*
X571313Y1148544D01*
X570624Y1148909D02*
X570947Y1148704D01*
X570564Y1148961D02*
X570624Y1148909D01*
X570538Y1148981D02*
X570564Y1148961D01*
X570459Y1149093D02*
X570538Y1148981D01*
X570415Y1149231D02*
X570459Y1149093D01*
X570407Y1149265D02*
X570415Y1149231D01*
X570407Y1149265D02*
Y1149309D01*
X570456Y1149440D01*
X570558Y1149580D01*
X570584Y1149610D01*
X570602Y1149627D01*
X570720Y1149679D01*
X570854Y1149707D01*
X570880Y1149711D01*
X570926D01*
X571063Y1149677D01*
X571187Y1149618D01*
X571205Y1149605D01*
X571239Y1149579D01*
X571451Y1149460D01*
X571685Y1149359D01*
X571731Y1149342D01*
X571784Y1149324D01*
X572297Y1149235D01*
X572344Y1149236D01*
X572435D01*
X572707Y1149257D01*
X573043Y1149327D01*
X573346Y1149456D01*
X573551Y1149596D01*
X573609Y1149653D01*
X573672Y1149704D01*
X573847Y1149878D01*
X574036Y1150136D01*
X574168Y1150426D01*
X574226Y1150668D01*
X574232Y1150750D01*
X570496D02*
X574232D01*
X570451D02*
X570496D01*
X570318Y1150779D02*
X570451Y1150750D01*
X570193Y1150850D02*
X570318Y1150779D01*
X570171Y1150871D02*
X570193Y1150850D01*
X570149Y1150892D02*
X570171Y1150871D01*
X570078Y1150997D02*
X570149Y1150892D01*
X570045Y1151141D02*
X570078Y1150997D01*
X570043Y1151180D02*
X570045Y1151141D01*
X578920Y1153810D02*
X579039D01*
X579398Y1153762D01*
X579773Y1153664D01*
X579844Y1153639D01*
X579916Y1153611D01*
X580251Y1153434D01*
X580541Y1153209D01*
X580591Y1153158D01*
Y1155599D01*
Y1155649D01*
X580626Y1155796D01*
X580707Y1155937D01*
X580729Y1155967D01*
X580752Y1155990D01*
X580899Y1156059D01*
X581062Y1156098D01*
X581093Y1156107D01*
X581145D01*
X581297Y1156062D01*
X581434Y1155984D01*
X581454Y1155967D01*
X581478Y1155944D01*
X581562Y1155801D01*
X581596Y1155636D01*
X581596Y1155601D02*
X581596Y1155636D01*
X581596Y1148850D02*
Y1155601D01*
Y1148799D02*
Y1148850D01*
X581566Y1148646D02*
X581596Y1148799D01*
X581481Y1148509D02*
X581566Y1148646D01*
X581454Y1148487D02*
X581481Y1148509D01*
X581430Y1148464D02*
X581454Y1148487D01*
X581302Y1148380D02*
X581430Y1148464D01*
X581145Y1148344D02*
X581302Y1148380D01*
X581093Y1148344D02*
X581145D01*
X581042D02*
X581093D01*
X580890Y1148376D02*
X581042Y1148344D01*
X580753Y1148461D02*
X580890Y1148376D01*
X580729Y1148487D02*
X580753Y1148461D01*
X580706Y1148511D02*
X580729Y1148487D01*
X580629Y1148641D02*
X580706Y1148511D01*
X580593Y1148808D02*
X580629Y1148641D01*
X580591Y1148850D02*
X580593Y1148808D01*
X580591Y1148850D02*
Y1151649D01*
Y1151733D01*
X580544Y1151987D02*
X580591Y1151733D01*
X580432Y1152244D02*
X580544Y1151987D01*
X580399Y1152293D02*
X580432Y1152244D01*
X580368Y1152341D02*
X580399Y1152293D01*
X580183Y1152547D02*
X580368Y1152341D01*
X579933Y1152718D02*
X580183Y1152547D01*
X579868Y1152749D02*
X579933Y1152718D01*
X579812Y1152777D02*
X579868Y1152749D01*
X579521Y1152865D02*
X579812Y1152777D01*
X579190Y1152911D02*
X579521Y1152865D01*
X579114Y1152918D02*
X579190Y1152911D01*
X578956Y1152918D02*
X579114D01*
X578480Y1152814D02*
X578956Y1152918D01*
X578054Y1152575D02*
X578480Y1152814D01*
X577982Y1152507D02*
X578054Y1152575D01*
X577928Y1152455D02*
X577982Y1152507D01*
X577794Y1152271D02*
X577928Y1152455D01*
X577661Y1151984D02*
X577794Y1152271D01*
X577581Y1151654D02*
X577661Y1151984D01*
X577553Y1151383D02*
X577581Y1151654D01*
X577553Y1151291D02*
X577553Y1151383D01*
X577553Y1148850D02*
Y1151291D01*
Y1148799D02*
Y1148850D01*
X577522Y1148645D02*
X577553Y1148799D01*
X577438Y1148509D02*
X577522Y1148645D01*
X577411Y1148487D02*
X577438Y1148509D01*
X577387Y1148464D02*
X577411Y1148487D01*
X577258Y1148380D02*
X577387Y1148464D01*
X577102Y1148344D02*
X577258Y1148380D01*
X577050Y1148344D02*
X577102D01*
X577004D02*
X577050D01*
X576865Y1148376D02*
X577004Y1148344D01*
X576724Y1148461D02*
X576865Y1148376D01*
X576691Y1148487D02*
X576724Y1148461D01*
X576667Y1148511D02*
X576691Y1148487D01*
X576588Y1148641D02*
X576667Y1148511D01*
X576550Y1148806D02*
X576588Y1148641D01*
X576548Y1148848D02*
X576550Y1148806D01*
X576548Y1148848D02*
Y1151281D01*
Y1151465D01*
X576631Y1152017D01*
X576807Y1152551D01*
X576854Y1152648D01*
X576905Y1152743D01*
X577227Y1153146D01*
X577616Y1153461D01*
X577700Y1153513D01*
X577790Y1153563D01*
X578284Y1153723D01*
X578812Y1153801D01*
X578920Y1153810D01*
X590428Y1150421D02*
X590492D01*
X590557D01*
X590752Y1150476D01*
X590556Y1151819D02*
X590747Y1151766D01*
X590492Y1151819D02*
X590556D01*
X590428D02*
X590492D01*
M02*
